<svg width="22" height="16" viewBox="0 0 22 16" xmlns="http://www.w3.org/2000/svg"><title>Untitled</title><path d="M0 14.036c.918-.47 1.773-.943 2.564-1.42.79-.48 1.47-.954 2.036-1.423a8.86 8.86 0 0 0 1.64-1.816c.43-.645.802-1.475 1.115-2.49h-1.26c-1.23 0-2.115-.304-2.652-.91-.537-.605-.806-1.28-.806-2.02 0-.94.362-1.833 1.084-2.682C4.45.425 5.43 0 6.68 0c1.33 0 2.31.37 2.946 1.113.635.743.952 1.72.952 2.93 0 1.583-.342 3.02-1.025 4.308a14.008 14.008 0 0 1-2.58 3.46 16.888 16.888 0 0 1-3.178 2.43A90.765 90.765 0 0 1 .88 15.887L0 14.036zm10.842 0c.918-.47 1.773-.943 2.564-1.42.79-.48 1.47-.954 2.036-1.423a8.86 8.86 0 0 0 1.64-1.816c.43-.645.802-1.475 1.115-2.49h-1.26c-1.23 0-2.115-.304-2.652-.91-.537-.605-.806-1.28-.806-2.02 0-.94.36-1.833 1.08-2.682C15.285.425 16.27 0 17.52 0c1.33 0 2.31.37 2.946 1.113.634.743.95 1.72.95 2.93 0 1.583-.34 3.02-1.025 4.308a14.008 14.008 0 0 1-2.578 3.46 16.888 16.888 0 0 1-3.18 2.43 90.765 90.765 0 0 1-2.915 1.646l-.876-1.846z" fill="#FFF" fill-rule="evenodd"/></svg>