<svg width="23" height="17" viewBox="0 0 23 17" xmlns="http://www.w3.org/2000/svg"><title>close-quote-2</title><path d="M1 15.036c.918-.47 1.773-.943 2.564-1.42.79-.48 1.47-.954 2.036-1.423a8.86 8.86 0 0 0 1.64-1.816c.43-.645.802-1.475 1.115-2.49h-1.26c-1.23 0-2.115-.304-2.652-.91-.537-.605-.806-1.28-.806-2.02 0-.94.362-1.833 1.084-2.682C5.445 1.425 6.43 1 7.68 1c1.33 0 2.31.37 2.946 1.113.635.743.952 1.72.952 2.93 0 1.583-.342 3.02-1.025 4.308a14.008 14.008 0 0 1-2.58 3.46 16.888 16.888 0 0 1-3.178 2.43 90.765 90.765 0 0 1-2.916 1.642L1 15.036zm10.842 0c.918-.47 1.773-.943 2.564-1.42.79-.48 1.47-.954 2.036-1.423a8.86 8.86 0 0 0 1.64-1.816c.43-.645.802-1.475 1.115-2.49h-1.26c-1.23 0-2.115-.304-2.652-.91-.537-.605-.806-1.28-.806-2.02 0-.94.36-1.833 1.083-2.682.723-.85 1.71-1.275 2.96-1.275 1.328 0 2.31.37 2.945 1.113.635.743.952 1.72.952 2.93 0 1.583-.342 3.02-1.026 4.308a14.008 14.008 0 0 1-2.578 3.46 16.888 16.888 0 0 1-3.18 2.43 90.765 90.765 0 0 1-2.915 1.642l-.878-1.846z" fill="#50595C" fill-rule="evenodd"/></svg>