<?xml version="1.0" encoding="UTF-8" standalone="no"?>
<svg width="23px" height="17px" viewBox="0 0 23 17" version="1.1" xmlns="http://www.w3.org/2000/svg" xmlns:xlink="http://www.w3.org/1999/xlink" xmlns:sketch="http://www.bohemiancoding.com/sketch/ns">
    <!-- Generator: Sketch 3.4.4 (17249) - http://www.bohemiancoding.com/sketch -->
    <title>close-quote-2</title>
    <desc>Created with Sketch.</desc>
    <defs></defs>
    <g id="Page-1" stroke="none" stroke-width="1" fill="none" fill-rule="evenodd" sketch:type="MSPage">
        <g id="close-quote" sketch:type="MSLayerGroup" transform="translate(1.000000, 1.000000)" fill="#50595C">
            <g id="Page-1" sketch:type="MSShapeGroup">
                <path d="M21.42,1.84604602 C20.5018558,2.31488557 19.6472132,2.78860177 18.8560465,3.26720881 C18.0648797,3.74581586 17.3860493,4.21953205 16.8195348,4.68837161 C16.1553455,5.25488607 15.6083742,5.86046141 15.1786046,6.5051158 C14.748835,7.14977019 14.3776759,7.97999445 14.0651162,8.99581349 L15.3251162,8.99581349 C16.5558201,8.99581349 17.4397647,9.29860116 17.9769767,9.90418558 C18.5141887,10.50977 18.7827907,11.1837168 18.7827907,11.9260461 C18.7827907,12.8637252 18.4213989,13.7574372 17.6986046,14.6072089 C16.9758103,15.4569805 15.9893085,15.88186 14.7390697,15.88186 C13.410691,15.88186 12.4290729,15.5107009 11.794186,14.7683716 C11.1592991,14.0260423 10.8418604,13.0493079 10.8418604,11.8381391 C10.8418604,10.2558056 11.1837175,8.82000598 11.8674418,7.5306972 C12.5511662,6.24138842 13.4106924,5.08884181 14.4460465,4.07302277 C15.4618655,3.0962737 16.5216223,2.28558413 17.6253488,1.64092974 C18.7290753,0.99627535 19.700926,0.449304074 20.5409302,-5.00000001e-07 L21.42,1.84604602 L21.42,1.84604602 Z M10.5781395,1.84604602 C9.65999534,2.31488557 8.80535272,2.78860177 8.01418598,3.26720881 C7.22301923,3.74581586 6.5441888,4.21953205 5.97767434,4.68837161 C5.31348497,5.25488607 4.76651369,5.86046141 4.3367441,6.5051158 C3.90697451,7.14977019 3.53581543,7.97999445 3.22325573,8.99581349 L4.48325573,8.99581349 C5.71395956,8.99581349 6.59790421,9.29860116 7.1351162,9.90418558 C7.67232819,10.50977 7.94093016,11.1837168 7.94093016,11.9260461 C7.94093016,12.8637252 7.57953842,13.7574372 6.85674411,14.6072089 C6.1339498,15.4569805 5.14744803,15.88186 3.89720922,15.88186 C2.56883048,15.88186 1.58721238,15.5107009 0.952325485,14.7683716 C0.317438587,14.0260423 -9.99999958e-08,13.0493079 -9.99999958e-08,11.8381391 C-9.99999958e-08,10.2558056 0.341856948,8.82000598 1.0255813,7.5306972 C1.70930565,6.24138842 2.56883194,5.08884181 3.60418596,4.07302277 C4.620005,3.0962737 5.67976184,2.28558413 6.7834883,1.64092974 C7.88721475,0.99627535 8.8590655,0.449304074 9.6990697,-5.00000001e-07 L10.5781395,1.84604602 L10.5781395,1.84604602 Z" id="“" transform="translate(10.710000, 7.940930) rotate(180.000000) translate(-10.710000, -7.940930) "></path>
            </g>
        </g>
    </g>
</svg>