<svg width="22" height="16" viewBox="0 0 22 16" xmlns="http://www.w3.org/2000/svg"><title>Untitled</title><path d="M21.42 1.846c-.918.47-1.773.943-2.564 1.42-.79.48-1.47.954-2.036 1.422a8.86 8.86 0 0 0-1.64 1.817c-.43.645-.802 1.475-1.115 2.49h1.26c1.23 0 2.115.304 2.652.91.537.605.806 1.28.806 2.02 0 .94-.362 1.832-1.084 2.682-.724.85-1.71 1.275-2.96 1.275-1.33 0-2.31-.37-2.946-1.114-.635-.742-.952-1.72-.952-2.93 0-1.582.342-3.018 1.025-4.307a14.008 14.008 0 0 1 2.58-3.457 16.888 16.888 0 0 1 3.178-2.432A90.765 90.765 0 0 1 20.54 0l.88 1.846zm-10.842 0c-.918.47-1.773.943-2.564 1.42-.79.48-1.47.954-2.036 1.422a8.86 8.86 0 0 0-1.64 1.817c-.43.645-.802 1.475-1.115 2.49h1.26c1.23 0 2.115.304 2.652.91.537.605.806 1.28.806 2.02 0 .94-.36 1.832-1.083 2.682-.723.85-1.71 1.275-2.96 1.275-1.328 0-2.31-.37-2.945-1.114-.635-.742-.952-1.72-.952-2.93C0 10.256.342 8.82 1.026 7.53a14.008 14.008 0 0 1 2.578-3.457 16.888 16.888 0 0 1 3.18-2.432A90.765 90.765 0 0 1 9.698 0l.878 1.846z" fill="#FFF" fill-rule="evenodd"/></svg>