<?xml version="1.0" encoding="UTF-8" standalone="no"?>
<!-- Created with Inkscape (http://www.inkscape.org/) -->

<svg
   xmlns:dc="http://purl.org/dc/elements/1.1/"
   xmlns:cc="http://creativecommons.org/ns#"
   xmlns:rdf="http://www.w3.org/1999/02/22-rdf-syntax-ns#"
   xmlns:svg="http://www.w3.org/2000/svg"
   xmlns="http://www.w3.org/2000/svg"
   version="1.1"
   width="190.037"
   height="48.959"
   viewBox="0 0 190.037 48.958998"
   id="Layer_1"
   xml:space="preserve"><metadata
   id="metadata15"><rdf:RDF><cc:Work
       rdf:about=""><dc:format>image/svg+xml</dc:format><dc:type
         rdf:resource="http://purl.org/dc/dcmitype/StillImage" /><dc:title></dc:title></cc:Work></rdf:RDF></metadata><defs
   id="defs13" />
<g
   transform="translate(-2.912,-3.0470011)"
   id="g3"
   style="fill:#a4b2c1;fill-opacity:1">
	<path
   d="m 152.127,27.472 c 0,-9.289 -3.746,-13.837 -12.098,-13.969 -13.098,-0.207 -14.113,6.695 -14.113,5.543 V 18.4 c 0,-2.664 -1.439,-4.032 -4.608,-4.032 H 113.1 v 5.4 h 4.464 c 1.008,0 1.584,0.504 1.584,1.584 v 24.05 h -4.716 -0.973 -7.919 V 14.367 H 82.1 l 0.003,0.014 h -0.045 c 0,0 -0.209,29.208 -6.875,30.833 0,0 -3.916,1.541 -7.5,-13.125 0,0 6.25,-29.042 -4.957,-29.042 h -0.252 c -11.207,0 -4.957,29.042 -4.957,29.042 -3.584,14.666 -7.5,13.125 -7.5,13.125 -6.666,-1.625 -6.875,-30.833 -6.875,-30.833 l -0.055,0 0.013,-0.014 H 20.004 v -11.2 h -6.841 v 11.2 H 2.974 l -0.062,5.4 H 13.02 V 37.48 c 0,12.169 9.288,13.609 13.896,13.609 1.513,0 4.684,-0.376 4.684,-0.376 v -5.75 c 0,0 -2.812,0.221 -3.819,0.221 -2.736,0 -7.776,-0.936 -7.776,-8.352 V 19.767 l 16.264,0.027 c 0.632,13.929 3.805,32.212 12.79,32.212 10.207,0 13.541,-14.125 13.541,-14.125 4.5,14.917 13.125,14.083 13.125,14.083 10.668,0 12.867,-21.81 13.311,-32.197 h 9.521 v 25.634 h -5.688 v 5.4 h 20.593 1.473 11.208 l -0.008,-5.4 V 33.88 c 0,-7.272 4.825,-13.969 12.17,-13.969 5.832,0 6.84,4.032 6.84,9.145 v 21.746 h 12.745 v -5.4 h -5.76 V 27.472 z M 64.333,17.667 c -0.098,3.737 -0.773,8.17 -1.684,12.569 -0.904,-4.393 -1.602,-8.837 -1.695,-12.569 -0.09,-3.77 0.256,-6.441 1.082,-7.994 0.422,-0.891 0.75,-0.891 1.195,0.01 0.825,1.552 1.192,4.213 1.102,7.984 z"
   id="path5"
   style="fill:#a4b2c1;fill-opacity:1" />
	<path
   d="m 192.949,30.567 c 0,-9.432 -5.4,-17.065 -15.77,-17.065 -10.37,0 -18.218,7.489 -18.218,19.082 0,10.802 7.849,19.082 19.298,19.082 8.713,0 14.186,-5.04 14.186,-5.04 l -2.881,-5.113 c 0,0 -4.536,4.104 -10.873,4.104 -6.48,0 -12.169,-4.32 -12.601,-12.385 h 26.643 c 0,0 0.216,-1.728 0.216,-2.665 z m -26.57,-1.799 c 1.008,-6.121 5.328,-9.721 10.656,-9.721 4.608,0 8.497,3.312 8.713,9.721 h -19.369 z"
   id="path7"
   style="fill:#a4b2c1;fill-opacity:1" />
	<circle
   cx="101.994"
   cy="7.1919999"
   r="3.937"
   id="circle9"
   style="fill:#a4b2c1;fill-opacity:1" />
</g>
</svg>