<?xml version="1.0" encoding="UTF-8" standalone="no"?>
<svg width="152px" height="69px" viewBox="0 0 152 69" version="1.1" xmlns="http://www.w3.org/2000/svg" xmlns:xlink="http://www.w3.org/1999/xlink">
    <defs></defs>
    <g id="Page-1" stroke="none" stroke-width="1" fill="none" fill-rule="evenodd">
        <g id="twine-logo--turquoise" transform="translate(-1.000000, -1.000000)" fill="#2DB0B6">
            <g id="g3" transform="translate(0.280140, 0.962901)">
                <path d="M118.498238,19.3162381 C118.498238,11.984245 115.541445,8.39441777 108.949045,8.29022754 C98.6105319,8.12683831 97.8093722,13.5747247 97.8093722,12.6654281 L97.8093722,12.1555274 C97.8093722,10.052779 96.6735407,8.97298931 94.1721858,8.97298931 L87.6934476,8.97298931 L87.6934476,13.2353171 L91.2169719,13.2353171 C92.0126064,13.2353171 92.4672547,13.6331343 92.4672547,14.4855999 L92.4672547,33.4687449 L88.7448217,33.4687449 L87.9768134,33.4687449 L81.7261887,33.4687449 L81.7261887,8.97219999 L63.2245288,8.97219999 L63.2268968,8.98325046 L63.1913774,8.98325046 C63.1913774,8.98325046 63.0264095,32.0377079 57.7648026,33.3203528 C57.7648026,33.3203528 54.6738257,34.5366948 51.8449029,22.9605283 C51.8449029,22.9605283 56.7781527,0.0370980381 47.9322439,0.0370980381 L47.7333353,0.0370980381 C38.8874265,0.0370980381 43.8206762,22.9605283 43.8206762,22.9605283 C40.9917535,34.5366948 37.9007765,33.3203528 37.9007765,33.3203528 C32.6391697,32.0377079 32.4742018,8.98325046 32.4742018,8.98325046 L32.4307892,8.98325046 L32.4410504,8.97219999 L14.2109166,8.97219999 L14.2109166,0.131816433 L8.81117871,0.131816433 L8.81117871,8.97219999 L0.768797641,8.97219999 L0.719859804,13.2345278 L8.69830596,13.2345278 L8.69830596,27.2157522 C8.69830596,36.8209868 16.0295097,37.9576076 19.6666961,37.9576076 C20.8609372,37.9576076 23.3638708,37.6608233 23.3638708,37.6608233 L23.3638708,33.1222335 C23.3638708,33.1222335 21.1443031,33.2966732 20.3494579,33.2966732 C18.1898785,33.2966732 14.2117059,32.5578697 14.2117059,26.7042729 L14.2117059,13.2345278 L27.0492057,13.2558394 C27.5480559,24.2502771 30.0525682,38.681414 37.144608,38.681414 C45.2011968,38.681414 47.8327896,27.5322695 47.8327896,27.5322695 C51.3847294,39.3065554 58.1926141,38.6482625 58.1926141,38.6482625 C66.6130794,38.6482625 68.348794,21.4331942 68.699252,13.2345278 L76.2143674,13.2345278 L76.2143674,33.4679556 L71.7247154,33.4679556 L71.7247154,37.7302834 L87.9791814,37.7302834 L89.1418497,37.7302834 L97.9885478,37.7302834 L97.9822332,33.4679556 L97.9822332,24.3742004 C97.9822332,18.6342656 101.790702,13.3481898 107.588257,13.3481898 C112.191571,13.3481898 112.987206,16.5307279 112.987206,20.5665209 L112.987206,37.7310727 L123.047089,37.7310727 L123.047089,33.4687449 L118.500606,33.4687449 L118.500606,19.3162381 L118.498238,19.3162381 Z M49.2006811,11.5769559 C49.1233277,14.5266445 48.5905367,18.0256999 47.8714663,21.4979184 C47.157921,18.0304358 46.6069757,14.5226979 46.5335689,11.5769559 C46.4625301,8.6012196 46.7356348,6.49294599 47.3876131,5.26713209 C47.7207061,4.56384801 47.9796031,4.56384801 48.3308505,5.27502529 C48.9820394,6.50004987 49.2717199,8.60043028 49.2006811,11.5769559 L49.2006811,11.5769559 Z" id="path5"></path>
                <path d="M150.719857,21.7591833 C150.719857,14.3143175 146.457529,8.28943822 138.272281,8.28943822 C130.087033,8.28943822 123.89245,14.2006554 123.89245,23.3512417 C123.89245,31.8774759 130.087823,38.4130452 139.124747,38.4130452 C146.002092,38.4130452 150.32204,34.4348726 150.32204,34.4348726 L148.048009,30.3990796 C148.048009,30.3990796 144.467654,33.6384487 139.465733,33.6384487 C134.35094,33.6384487 129.860498,30.2285865 129.519512,23.862721 L150.549364,23.862721 C150.549364,23.862721 150.719857,22.4987761 150.719857,21.7591833 L150.719857,21.7591833 Z M129.747626,20.3391967 C130.54326,15.5077693 133.953122,12.6662174 138.158619,12.6662174 C141.795806,12.6662174 144.865471,15.2804451 145.035964,20.3391967 L129.747626,20.3391967 L129.747626,20.3391967 Z" id="path7"></path>
                <circle id="circle9" cx="78.9272601" cy="3.30882919" r="3.10755268"></circle>
            </g>
        </g>
        <path d="M18.28825,53.45 L16.80325,53.45 L14.37775,62.162 L14.34475,62.162 L12.03475,53.45 L10.28575,53.45 L13.45375,65 L15.00475,65 L17.51275,56.2055 L17.54575,56.2055 L19.85575,65 L21.43975,65 L24.73975,53.45 L23.05675,53.45 L20.63125,62.162 L20.59825,62.162 L18.28825,53.45 Z M33.30325,61.2545 C33.35275,61.04 33.36925,60.677 33.36925,60.3965 C33.36925,58.1855 31.78525,56.552 29.60725,56.552 C27.29725,56.552 25.51525,58.4165 25.51525,60.875 C25.51525,63.284 26.98375,65.198 29.60725,65.198 C31.27375,65.198 32.37925,64.5875 33.22075,63.2675 L32.13175,62.5745 C31.62025,63.515 30.77875,63.911 29.67325,63.911 C28.08925,63.911 27.09925,62.6735 27.01675,61.2545 L33.30325,61.2545 Z M29.62375,57.839 C30.89425,57.839 31.73575,58.8785 31.81825,60.05 L27.13225,60.05 C27.44575,58.8125 28.28725,57.839 29.62375,57.839 L29.62375,57.839 Z M36.94975,52.625 L35.44825,52.625 L35.44825,65 L36.94975,65 L36.94975,52.625 Z M45.03475,63.2345 C44.58925,63.5645 43.83025,63.812 43.28575,63.812 C41.85025,63.812 40.56325,62.657 40.56325,60.875 C40.56325,59.2415 41.78425,57.938 43.26925,57.938 C43.86325,57.938 44.49025,58.1525 44.95225,58.499 L45.66175,57.2615 C45.00175,56.816 44.20975,56.552 43.33525,56.552 C40.90975,56.552 39.02875,58.466 39.02875,60.875 C39.02875,63.482 40.89325,65.198 43.25275,65.198 C44.24275,65.198 45.16675,64.901 45.77725,64.3895 L45.03475,63.2345 Z M51.07375,56.552 C48.66475,56.552 46.86625,58.466 46.86625,60.875 C46.86625,63.284 48.66475,65.198 51.07375,65.198 C53.48275,65.198 55.28125,63.284 55.28125,60.875 C55.28125,58.466 53.48275,56.552 51.07375,56.552 L51.07375,56.552 Z M53.74675,60.875 C53.74675,62.4755 52.62475,63.812 51.07375,63.812 C49.52275,63.812 48.40075,62.4755 48.40075,60.875 C48.40075,59.2745 49.52275,57.938 51.07375,57.938 C52.62475,57.938 53.74675,59.2745 53.74675,60.875 L53.74675,60.875 Z M69.85075,65 L69.85075,60.71 C69.85075,58.466 69.30625,56.552 66.81475,56.552 C65.69275,56.552 64.65325,57.0635 63.94375,58.07 C63.48175,57.014 62.55775,56.552 61.45225,56.552 C60.47875,56.552 59.47225,57.1295 58.86175,58.004 L58.86175,56.75 L57.36025,56.75 L57.36025,65 L58.86175,65 L58.86175,59.456 C59.38975,58.7135 60.29725,57.938 61.13875,57.938 C62.85475,57.938 62.85475,59.654 62.85475,60.875 L62.85475,65 L64.35625,65 L64.35625,60.71 C64.35625,60.1985 64.32325,59.72 64.25725,59.3075 C64.86775,58.499 65.74225,57.938 66.53425,57.938 C68.31625,57.938 68.34925,59.5385 68.34925,60.875 L68.34925,65 L69.85075,65 Z M79.61875,61.2545 C79.66825,61.04 79.68475,60.677 79.68475,60.3965 C79.68475,58.1855 78.10075,56.552 75.92275,56.552 C73.61275,56.552 71.83075,58.4165 71.83075,60.875 C71.83075,63.284 73.29925,65.198 75.92275,65.198 C77.58925,65.198 78.69475,64.5875 79.53625,63.2675 L78.44725,62.5745 C77.93575,63.515 77.09425,63.911 75.98875,63.911 C74.40475,63.911 73.41475,62.6735 73.33225,61.2545 L79.61875,61.2545 Z M75.93925,57.839 C77.20975,57.839 78.05125,58.8785 78.13375,60.05 L73.44775,60.05 C73.76125,58.8125 74.60275,57.839 75.93925,57.839 L75.93925,57.839 Z M89.78275,58.07 L89.78275,56.75 L87.47275,56.75 L87.47275,54.77 L85.97125,54.77 L85.97125,56.75 L84.86575,56.75 L84.86575,58.07 L85.97125,58.07 L85.97125,62.162 C85.97125,63.911 86.53225,65.165 88.44625,65.165 C88.99075,65.165 89.56825,65.0165 89.98075,64.802 L89.56825,63.5975 C89.30425,63.7295 88.97425,63.8285 88.64425,63.8285 C87.58825,63.8285 87.47275,63.053 87.47275,61.799 L87.47275,58.07 L89.78275,58.07 Z M95.11225,56.552 C92.70325,56.552 90.90475,58.466 90.90475,60.875 C90.90475,63.284 92.70325,65.198 95.11225,65.198 C97.52125,65.198 99.31975,63.284 99.31975,60.875 C99.31975,58.466 97.52125,56.552 95.11225,56.552 L95.11225,56.552 Z M97.78525,60.875 C97.78525,62.4755 96.66325,63.812 95.11225,63.812 C93.56125,63.812 92.43925,62.4755 92.43925,60.875 C92.43925,59.2745 93.56125,57.938 95.11225,57.938 C96.66325,57.938 97.78525,59.2745 97.78525,60.875 L97.78525,60.875 Z M111.85975,54.869 L111.85975,53.45 L104.46775,53.45 L104.46775,54.869 L107.37175,54.869 L107.37175,65 L108.95575,65 L108.95575,54.869 L111.85975,54.869 Z M119.10325,56.75 L117.48625,56.75 L115.65475,63.1025 L115.62175,63.1025 L114.07075,56.75 L112.45375,56.75 L114.73075,65 L116.41375,65 L118.22875,58.5815 L118.26175,58.5815 L120.02725,65 L121.64425,65 L124.02025,56.75 L122.50225,56.75 L120.81925,63.1025 L120.76975,63.1025 L119.10325,56.75 Z M127.17175,65 L127.17175,56.75 L125.67025,56.75 L125.67025,65 L127.17175,65 Z M127.17175,55.133 L127.17175,53.45 L125.67025,53.45 L125.67025,55.133 L127.17175,55.133 Z M129.94375,56.75 L129.94375,65 L131.44525,65 L131.44525,59.522 C132.03925,58.598 132.93025,57.938 133.90375,57.938 C135.68575,57.938 135.76825,59.5385 135.76825,60.875 L135.76825,65 L137.26975,65 L137.26975,60.71 C137.26975,58.4495 136.69225,56.552 134.13475,56.552 C133.01275,56.552 132.05575,57.113 131.44525,58.103 L131.44525,56.75 L129.94375,56.75 Z M147.03775,61.2545 C147.08725,61.04 147.10375,60.677 147.10375,60.3965 C147.10375,58.1855 145.51975,56.552 143.34175,56.552 C141.03175,56.552 139.24975,58.4165 139.24975,60.875 C139.24975,63.284 140.71825,65.198 143.34175,65.198 C145.00825,65.198 146.11375,64.5875 146.95525,63.2675 L145.86625,62.5745 C145.35475,63.515 144.51325,63.911 143.40775,63.911 C141.82375,63.911 140.83375,62.6735 140.75125,61.2545 L147.03775,61.2545 Z M143.35825,57.839 C144.62875,57.839 145.47025,58.8785 145.55275,60.05 L140.86675,60.05 C141.18025,58.8125 142.02175,57.839 143.35825,57.839 L143.35825,57.839 Z" id="Welcome-to-Twine" fill="#FFFFFF"></path>
    </g>
</svg>