<svg xmlns="http://www.w3.org/2000/svg" width="402" height="401.567" viewBox="0 0 402 401.567"><path fill="#872042" d="M0-.433h402v402H0z"/><path fill="#610E30" stroke="#610E30" stroke-width="5" stroke-miterlimit="10" d="M279.296 133.604H263.96c-3.5-17.272-7.467-29.89-11.906-37.855-4.44-7.966-11.2-14.21-20.28-18.73-9.08-4.52-19.27-6.78-30.572-6.78-16.01 0-28.755 4.444-38.24 13.332s-14.226 19.662-14.226 32.322c0 11.177 3.897 20.942 11.697 29.29 7.662 8.35 26.403 18.897 56.225 31.64 29.818 12.74 50.102 25.913 60.848 39.52 10.61 13.743 15.916 29.17 15.916 46.28 0 15.36-4.004 29.64-12.007 42.843-8.005 13.203-20.047 23.744-36.12 31.627-16.078 7.88-33.397 11.82-51.962 11.82-12.647 0-25.325-1.21-38.038-3.632-12.714-2.422-27.95-6.59-45.707-12.512 2.02-18.97 3.027-44.122 3.027-75.47h15.538c4.433 20.18 9.033 34.305 13.8 42.377 4.77 8.07 11.985 14.7 21.66 19.875 9.67 5.18 20.28 7.77 31.832 7.77 15.847 0 29.75-4.442 41.705-13.328 11.953-8.885 17.93-21.34 17.93-37.363 0-13.06-4.306-24.636-12.913-34.73-8.747-9.964-27.68-21.24-56.806-33.826-29.122-12.587-48.6-24.663-58.414-36.225-9.82-11.426-14.73-25.07-14.73-40.93 0-13.847 3.966-27.055 11.905-39.62 7.937-12.57 19.605-22.516 35.01-29.84 15.4-7.33 31.38-10.994 47.927-10.994 19.908 0 43.99 4.777 72.242 14.327-.676 19.644-1.01 31.48-1.01 35.516 0 8.204.333 19.303 1.01 33.293z"/><g fill="#FFF"><path d="M82.238 163.622h-3.34c-.762-3.76-1.625-6.51-2.592-8.244-.967-1.734-2.44-3.094-4.416-4.078-1.98-.985-4.197-1.477-6.658-1.477-3.486 0-6.262.968-8.328 2.904-2.064 1.936-3.098 4.282-3.098 7.04 0 2.434.848 4.56 2.547 6.378 1.668 1.818 5.75 4.115 12.244 6.89s10.91 5.644 13.252 8.606c2.31 2.998 3.46 6.358 3.46 10.08 0 3.35-.87 6.46-2.613 9.33-1.744 2.88-4.367 5.17-7.867 6.89-3.5 1.718-7.272 2.576-11.315 2.576a44.29 44.29 0 0 1-8.283-.79c-2.768-.528-6.086-1.437-9.953-2.726.44-4.13.66-9.61.66-16.437h3.382c.965 4.396 1.967 7.47 3.006 9.23 1.04 1.758 2.61 3.2 4.716 4.33 2.107 1.127 4.418 1.69 6.934 1.69 3.45 0 6.48-.968 9.084-2.9 2.604-1.938 3.904-4.65 3.904-8.14 0-2.843-.938-5.365-2.812-7.563-1.904-2.17-6.027-4.626-12.37-7.367-6.343-2.74-10.583-5.37-12.722-7.89-2.14-2.486-3.21-5.457-3.21-8.912 0-3.012.866-5.89 2.595-8.625s4.27-4.904 7.623-6.5 6.832-2.394 10.436-2.394c4.334 0 9.58 1.04 15.73 3.12-.146 4.278-.22 6.855-.22 7.734 0 1.788.072 4.205.22 7.252zm21.807 21.033h7.443c2.87 0 4.562-.077 5.076-.23a2.256 2.256 0 0 0 1.246-.938c.318-.472.713-1.835 1.184-4.09.062-.227.154-.575.277-1.047h2.036c-.227 3.384-.34 5.988-.34 7.813 0 1.887.113 4.47.34 7.75h-2.03c-.597-2.972-.966-4.633-1.108-4.982a1.92 1.92 0 0 0-1.076-1.06c-.514-.212-2.04-.32-4.584-.32h-8.428l.152 18.09h12.89l1.136-.03c1.764 0 2.87-.073 3.322-.217a5.093 5.093 0 0 0 2.06-1.34c.595-.624 1.69-2.393 3.29-5.305.166-.287.41-.707.74-1.262h2.123c-.244.657-1.52 4.513-3.812 11.566-7.467-.226-14.285-.34-20.457-.34-4.307 0-9.064.114-14.273.34v-1.814l4.982-1.076c.8-.227 1.29-.45 1.475-.68.31-.39.462-1.2.462-2.43v-.553l.15-7.23c.02-1.394.03-4.13.03-8.213 0-5.926-.02-10.27-.06-13.027-.043-2.758-.145-4.322-.31-4.69a1.453 1.453 0 0 0-.567-.6c-.258-.155-1.205-.417-2.846-.786l-3.322-.736V165.4c3.855.225 8.46.337 13.812.337 2.93 0 9.903-.112 20.917-.338a88.63 88.63 0 0 0 .738 10.52h-2.153c-.82-2.79-1.485-4.648-2-5.57-.347-.635-.778-1.056-1.29-1.26-.678-.267-2.174-.4-4.49-.4h-12.43l-.216 9.904-.09 6.06zm57.31-7.505h-2.34c-.532-2.634-1.14-4.558-1.813-5.772-.678-1.214-1.707-2.166-3.092-2.855-1.385-.69-2.938-1.034-4.66-1.034-2.44 0-4.385.673-5.83 2.03s-2.168 2.995-2.168 4.925c0 1.703.594 3.19 1.783 4.464 1.168 1.272 4.025 2.88 8.57 4.823s7.64 3.95 9.275 6.024c1.617 2.095 2.426 4.447 2.426 7.055 0 2.342-.61 4.52-1.83 6.53-1.22 2.014-3.055 3.62-5.506 4.822s-5.092 1.803-7.922 1.803c-1.928 0-3.86-.185-5.797-.554-1.934-.37-4.26-1.004-6.964-1.906.31-2.893.46-6.727.46-11.506h2.37c.676 3.077 1.377 5.23 2.104 6.46s1.827 2.24 3.302 3.03c1.475.79 3.09 1.186 4.85 1.186 2.418 0 4.537-.68 6.36-2.033s2.733-3.254 2.733-5.696c0-1.99-.656-3.755-1.97-5.294-1.333-1.52-4.218-3.237-8.66-5.156-4.438-1.918-7.407-3.76-8.903-5.52-1.5-1.743-2.248-3.822-2.248-6.24 0-2.11.605-4.125 1.814-6.04 1.21-1.917 2.988-3.433 5.338-4.55 2.348-1.117 4.783-1.676 7.305-1.676 3.035 0 6.707.73 11.014 2.185-.104 2.995-.154 4.8-.154 5.414 0 1.25.05 2.943.152 5.076zm34.76 0h-2.338c-.535-2.634-1.14-4.558-1.816-5.772-.67-1.214-1.702-2.166-3.09-2.855-1.38-.69-2.94-1.034-4.66-1.034-2.44 0-4.38.673-5.83 2.03-1.442 1.353-2.17 2.995-2.17 4.925 0 1.703.6 3.19 1.788 4.464 1.168 1.272 4.025 2.88 8.572 4.823 4.544 1.942 7.636 3.95 9.274 6.024 1.618 2.095 2.427 4.447 2.427 7.055 0 2.342-.61 4.52-1.83 6.53-1.22 2.014-3.056 3.62-5.505 4.822-2.45 1.2-5.09 1.803-7.92 1.803-1.93 0-3.862-.185-5.8-.554s-4.26-1.004-6.967-1.906c.307-2.893.46-6.727.46-11.506h2.37c.676 3.077 1.377 5.23 2.104 6.46s1.827 2.24 3.3 3.03c1.477.79 3.094 1.186 4.856 1.186 2.416 0 4.535-.68 6.357-2.033s2.733-3.254 2.733-5.696c0-1.99-.658-3.755-1.97-5.294-1.333-1.52-4.22-3.237-8.66-5.156-4.44-1.918-7.407-3.76-8.905-5.52-1.495-1.743-2.243-3.822-2.243-6.24 0-2.11.604-4.125 1.814-6.04 1.21-1.917 2.99-3.433 5.337-4.55 2.35-1.117 4.786-1.676 7.308-1.676 3.036 0 6.708.73 11.015 2.185-.105 2.995-.155 4.8-.155 5.414 0 1.25.052 2.943.155 5.076zm27.008-11.752v1.815c-.72.165-1.252.277-1.6.338-2.73.477-4.307.92-4.738 1.34-.43.42-.645 1.36-.645 2.818v1.077l-.154 12.367.092 17.965c0 1.436.21 2.35.63 2.737.42.39 1.862.73 4.323 1.017.476.06 1.16.185 2.066.37v1.813c-3.3-.227-6.48-.34-9.535-.34-3.16 0-6.625.113-10.4.34v-1.815c.597-.164 1.048-.267 1.355-.308 2.912-.473 4.578-.908 5-1.31.42-.4.63-1.41.63-3.03l-.062-1.54.094-11.29c0-11.605-.03-18.024-.092-19.255-.04-.677-.26-1.2-.657-1.57s-1.945-.81-4.64-1.322a54.194 54.194 0 0 1-1.624-.4v-1.815c4.457.226 7.938.338 10.445.338 2.79 0 5.965-.11 9.52-.337zm4.397 22.117c0-6.726 2.17-12.248 6.507-16.565 4.338-4.317 9.91-6.476 16.72-6.476 6.337 0 11.382 1.907 15.134 5.722 3.76 3.814 5.636 9.064 5.636 15.75 0 7.424-2.113 13.284-6.338 17.58-4.225 4.297-9.78 6.445-16.672 6.445-6.46 0-11.572-1.943-15.336-5.84-3.765-3.895-5.646-9.43-5.646-16.61zm6.738-.907c0 6.772 1.482 11.857 4.445 15.254 2.965 3.397 6.71 5.095 11.244 5.095 2.994 0 5.65-.79 7.967-2.37 2.318-1.58 4.07-3.895 5.26-6.942 1.19-3.047 1.785-6.42 1.785-10.113 0-4.638-.76-8.487-2.28-11.544-1.52-3.058-3.395-5.25-5.63-6.573-2.235-1.324-4.75-1.985-7.538-1.985-3.055 0-5.793.806-8.213 2.417-2.42 1.61-4.2 3.94-5.336 6.99-1.14 3.044-1.71 6.302-1.71 9.77zm40.207-19.395v-1.815c2.598.226 4.643.338 6.137.338 1.207 0 3.365-.112 6.475-.338l8.736 10.92c.8.964 6.973 8.44 18.52 22.425.02-2.87.03-4.953.03-6.244 0-3.06-.093-8.65-.276-16.77-.082-3.795-.18-5.856-.293-6.184-.113-.33-.35-.626-.707-.893-.36-.266-1.79-.635-4.29-1.107-.33-.06-.812-.173-1.446-.337v-1.815c3.65.226 6.556.338 8.71.338 2.09 0 4.98-.112 8.674-.338v1.815a13.63 13.63 0 0 1-1.23.28c-2.747.573-4.274.953-4.58 1.137a1.427 1.427 0 0 0-.556.554c-.205.33-.35.945-.43 1.848-.02.39-.068 3.184-.14 8.382-.07 5.2-.106 10.23-.106 15.09 0 5.74.103 10.59.308 14.55l-2 .922-12.826-15.937-16.83-20.246.156 18.18c.102 7.96.215 12.205.338 12.74.082.37.268.687.555.953.45.41 1.98.842 4.584 1.292.308.042.77.134 1.384.277v1.815c-3.136-.226-5.782-.338-7.935-.338-1.804 0-4.952.11-9.442.336v-1.814a416.7 416.7 0 0 1 1.63-.37c2.46-.43 3.886-.83 4.276-1.198.225-.186.39-.503.492-.954.202-.94.347-4.51.43-10.703.1-8.777.153-13.966.153-15.565 0-5.147-.07-8.008-.214-8.583-.084-.41-.35-.756-.8-1.034-.452-.276-2.39-.702-5.815-1.276a35.05 35.05 0 0 1-1.66-.34zm80.533 9.937h-2.338c-.533-2.634-1.14-4.558-1.814-5.772-.678-1.214-1.707-2.166-3.092-2.855-1.385-.69-2.938-1.034-4.66-1.034-2.44 0-4.385.673-5.83 2.03s-2.168 2.995-2.168 4.925c0 1.703.594 3.19 1.783 4.464 1.163 1.272 4.02 2.88 8.57 4.823s7.634 3.95 9.27 6.024c1.617 2.095 2.426 4.447 2.426 7.055 0 2.342-.61 4.52-1.83 6.53-1.22 2.014-3.056 3.62-5.507 4.822s-5.09 1.803-7.92 1.803c-1.93 0-3.86-.185-5.798-.554-1.94-.37-4.262-1.004-6.97-1.906.31-2.893.462-6.727.462-11.506h2.37c.675 3.077 1.376 5.23 2.103 6.46s1.827 2.24 3.302 3.03c1.474.79 3.09 1.186 4.85 1.186 2.417 0 4.536-.68 6.358-2.033s2.733-3.254 2.733-5.696c0-1.99-.655-3.755-1.97-5.294-1.332-1.52-4.217-3.237-8.66-5.156-4.437-1.918-7.406-3.76-8.902-5.52-1.497-1.743-2.245-3.822-2.245-6.24 0-2.11.605-4.125 1.814-6.04 1.21-1.917 2.99-3.433 5.34-4.55 2.345-1.117 4.78-1.676 7.302-1.676 3.034 0 6.706.73 11.013 2.185-.104 2.995-.154 4.8-.154 5.414 0 1.25.05 2.943.153 5.076z"/><path d="M241.04 190.747c0-.923.183-1.8.548-2.63a7.41 7.41 0 0 1 1.45-2.178c.597-.62 1.24-1.1 1.927-1.43s1.326-.5 1.918-.5c.71 0 1.264.21 1.654.63s.652.896.787 1.43c.135.538.2 1.034.2 1.49a6.15 6.15 0 0 1-.532 2.544 7.304 7.304 0 0 1-1.434 2.113 6.844 6.844 0 0 1-1.943 1.427c-.697.334-1.357.502-1.977.502-.902 0-1.56-.354-1.977-1.058a4.536 4.536 0 0 1-.62-2.347zm1.69-.17c0 .62.127 1.21.38 1.766.253.557.726.835 1.417.835.61 0 1.172-.27 1.68-.813.508-.542.908-1.25 1.205-2.124a8.308 8.308 0 0 0 .443-2.67c0-.584-.102-1.17-.307-1.76-.205-.59-.666-.88-1.385-.88-.62 0-1.19.31-1.717.935-.525.624-.94 1.387-1.252 2.288-.31.903-.464 1.71-.464 2.43zm8.614-5.39l.105-.475a20.5 20.5 0 0 0 1.57-.518c.24-.916.446-1.616.622-2.103s.393-.904.65-1.264.615-.736 1.072-1.13c.986-.84 1.986-1.258 3.002-1.258.38 0 .71.047.99.143.284.095.55.213.806.354-.184.452-.307.77-.37.952-.063.184-.15.5-.255.95l-.56-.04a2.467 2.467 0 0 0-.31-1.03c-.175-.294-.53-.44-1.073-.44-.333 0-.632.1-.9.297s-.505.48-.712.855a8.39 8.39 0 0 0-.56 1.252 37.237 37.237 0 0 0-.65 2.075c0 .077-.044.243-.128.496.564.016 1.328 0 2.293-.04l.106.146c-.197.288-.36.57-.496.845a39.776 39.776 0 0 0-2.135-.083 585.887 585.887 0 0 0-1.193 4.48 97.8 97.8 0 0 1-.968 3.456c-.293.958-.56 1.7-.805 2.23-.242.527-.506.957-.79 1.288s-.646.65-1.075.963c-.738.535-1.426.803-2.06.803-.317 0-.58-.042-.792-.127a3.99 3.99 0 0 1-.74-.413c.206-.28.36-.518.47-.708s.23-.43.356-.72h.21c.177.26.355.464.53.61.176.142.44.214.79.214.552 0 .985-.268 1.302-.803s.662-1.482 1.035-2.842c.14-.466.314-1.117.518-1.956.207-.837.668-2.76 1.387-5.77.014-.034.04-.137.08-.306a6.63 6.63 0 0 1 .1-.4c-.422.016-.9.023-1.426.023z"/></g><path fill="#FFF" d="M60.596 255.337h-1.443a1130.035 1130.035 0 0 0-7.14-20.075c-1.27-3.477-2.086-5.51-2.446-6.097a2.475 2.475 0 0 0-.723-.763c-.44-.28-1.424-.595-2.948-.942v-1.183c3.087.146 5.058.22 5.913.22 1.13 0 2.96-.073 5.47-.22v1.183c-1.59.4-2.525.71-2.8.924-.272.214-.41.475-.41.782 0 .28.28 1.257.843 2.928 2.49 7.552 4.43 13.105 5.822 16.66l5.493-14.774c-.896-2.447-1.5-3.944-1.814-4.493-.315-.548-.64-.923-.974-1.123-.335-.2-1.284-.502-2.85-.903v-1.18c2.488.148 4.413.22 5.776.22 1.423 0 3.285-.07 5.584-.22v1.185l-.722.182c-1.11.215-1.825.45-2.146.703-.2.174-.3.435-.3.782 0 .148.013.29.04.423.08.348.822 2.556 2.226 6.624l4.312 12.262c.924-2.54 2.034-5.794 3.333-9.755l2.994-9.155c.04-.188.06-.355.06-.5 0-.24-.073-.42-.22-.533-.147-.114-1.144-.46-2.99-1.034v-1.183c2.49.147 4.112.22 4.875.22.908 0 2.44-.072 4.592-.22v1.184c-1.525.4-2.475.75-2.85 1.043-.24.2-.47.536-.68 1.004-.35.76-1.913 5.06-4.694 12.895-.08.2-1.552 4.51-4.413 12.934h-1.38l-4.935-13.736a159.92 159.92 0 0 0-1.766-4.633c-1.78 4.584-4.01 10.707-6.7 18.368zM340.38 238.83h4.855c1.87 0 2.975-.05 3.31-.15.333-.1.604-.303.81-.61s.466-1.196.773-2.667c.04-.147.1-.374.18-.683h1.324c-.147 2.206-.22 3.904-.22 5.095 0 1.23.072 2.915.22 5.054h-1.323c-.39-1.94-.63-3.026-.728-3.25a1.244 1.244 0 0 0-.7-.69c-.335-.146-1.332-.216-2.99-.216H340.4l.102 11.792h8.402l.742-.02c1.15 0 1.87-.048 2.166-.14a3.326 3.326 0 0 0 1.344-.874c.388-.408 1.104-1.562 2.146-3.46.106-.187.267-.46.48-.822h1.384c-.16.43-.99 2.94-2.487 7.54a448.17 448.17 0 0 0-13.34-.22c-2.81 0-5.91.074-9.307.22v-1.182l3.25-.7c.52-.148.84-.296.962-.44.2-.256.3-.784.3-1.587v-.36l.1-4.71c.014-.91.02-2.694.02-5.355 0-3.863-.013-6.694-.04-8.493-.026-1.797-.093-2.816-.2-3.06a.94.94 0 0 0-.37-.39c-.168-.1-.786-.27-1.855-.51l-2.165-.48v-1.183c2.513.145 5.514.22 9.004.22 1.91 0 6.456-.074 13.636-.22.028 2.31.19 4.6.483 6.857h-1.403c-.536-1.818-.97-3.028-1.305-3.63-.228-.414-.51-.688-.843-.822-.44-.174-1.418-.26-2.93-.26h-8.1l-.14 6.457-.06 3.95zm-250.813-1.764c0-3.174 1.023-5.78 3.07-7.818s4.678-3.056 7.89-3.056c2.992 0 5.373.9 7.144 2.7 1.776 1.8 2.66 4.278 2.66 7.434 0 3.503-.995 6.27-2.99 8.297-1.992 2.028-4.615 3.042-7.87 3.042-3.05 0-5.46-.92-7.234-2.758s-2.665-4.453-2.665-7.84zm3.18-.43c0 3.198.7 5.598 2.098 7.2s3.167 2.405 5.307 2.405c1.413 0 2.666-.37 3.76-1.114 1.094-.746 1.92-1.838 2.482-3.276.562-1.44.842-3.03.842-4.774 0-2.19-.357-4.005-1.074-5.448-.716-1.443-1.602-2.478-2.656-3.103-1.056-.625-2.24-.937-3.558-.937-1.44 0-2.734.38-3.876 1.14s-1.98 1.86-2.52 3.3-.805 2.976-.805 4.612zm20.283-9.152v-.856c2.565.106 4.622.16 6.17.16.892 0 1.724-.01 2.498-.03a65.955 65.955 0 0 1 2.135-.057c1.887 0 3.31.45 4.268 1.34.95.9 1.428 2.115 1.428 3.645 0 1.027-.215 1.935-.646 2.724-.43.79-1.053 1.454-1.866 1.996-.59.39-1.433.732-2.527 1.032l4.835 6.3c.602.784.98 1.244 1.134 1.38.24.202.556.376.942.52.54.214 1.455.46 2.743.74v.857c-1.53-.107-2.643-.16-3.34-.16a19.4 19.4 0 0 0-2.468.16 60.723 60.723 0 0 0-1.77-2.738c-.747-1.098-1.2-1.75-1.366-1.953a4.937 4.937 0 0 1-.276-.363l-3.194-4.384a26.828 26.828 0 0 1-2.614-.19l.116 7.318c.02.29.106.51.262.654.23.193.958.4 2.178.624.174.03.44.09.798.176v.857a77.816 77.816 0 0 0-4.63-.16 79.53 79.53 0 0 0-4.805.16v-.857l.624-.13c1.38-.26 2.17-.477 2.36-.646.184-.17.294-.473.323-.908.02-.28.043-2.768.072-7.462l-.06-6.823c-.01-1.046-.035-1.647-.078-1.8a.557.557 0 0 0-.284-.35c-.475-.25-1.225-.46-2.25-.624-.156-.03-.393-.078-.713-.146zm6.084 8.885c1.007.1 1.786.16 2.338.16 1.76 0 3.065-.398 3.912-1.18.847-.788 1.27-1.88 1.27-3.27 0-1.227-.374-2.19-1.124-2.9-.75-.707-1.842-1.06-3.274-1.06-.513 0-1.524.06-3.034.175l-.088 8.07zm33.816 7.33l.61 1.102c-1.556.978-3.05 1.698-4.48 2.163a14.28 14.28 0 0 1-4.435.697c-1.942 0-3.706-.443-5.29-1.33a8.703 8.703 0 0 1-3.604-3.76c-.81-1.62-1.22-3.418-1.22-5.393 0-3.223 1.05-5.86 3.15-7.913 2.104-2.054 4.884-3.08 8.344-3.08 2.127 0 4.494.436 7.104 1.307-.02.852-.03 1.49-.03 1.917 0 1.24.074 2.54.22 3.906h-1.22c-.358-1.695-.74-2.86-1.147-3.5s-1.064-1.15-1.974-1.53c-.908-.384-2.03-.575-3.364-.575-2.803 0-4.915.998-6.336 2.99-1.103 1.56-1.654 3.515-1.654 5.867 0 2.808.775 5.02 2.327 6.643 1.552 1.62 3.584 2.434 6.1 2.434 1.082 0 2.136-.14 3.16-.42 1.026-.28 2.273-.79 3.744-1.525zm8.93-7.987h3.515c1.355 0 2.153-.037 2.396-.11.247-.072.44-.22.59-.442s.34-.865.56-1.93c.03-.106.075-.27.13-.493h.96c-.105 1.596-.16 2.825-.16 3.687 0 .89.055 2.11.16 3.658h-.96c-.28-1.403-.452-2.187-.52-2.352a.912.912 0 0 0-.51-.5c-.24-.102-.96-.152-2.16-.152h-3.98l.074 8.54h6.084l.537-.016c.833 0 1.355-.034 1.568-.102.37-.125.693-.335.974-.63.28-.296.8-1.13 1.555-2.505.077-.136.193-.334.35-.596h1c-.115.31-.716 2.13-1.8 5.46-3.522-.108-6.74-.16-9.654-.16-2.03 0-4.277.05-6.735.16v-.858l2.353-.508c.378-.106.61-.213.697-.32.145-.183.217-.565.217-1.146v-.26l.073-3.415c.01-.658.015-1.95.015-3.876 0-2.8-.01-4.85-.03-6.15s-.066-2.04-.144-2.214a.695.695 0 0 0-.27-.283c-.12-.073-.566-.196-1.34-.37l-1.567-.35v-.855c1.82.103 3.992.16 6.52.16 1.383 0 4.674-.056 9.87-.16.02 1.67.137 3.33.35 4.962h-1.017c-.387-1.316-.7-2.192-.943-2.628-.165-.3-.368-.5-.61-.596-.318-.125-1.025-.19-2.12-.19h-5.864l-.103 4.676-.046 2.86zm27.792-3.542h-1.104c-.252-1.242-.537-2.15-.856-2.723-.32-.574-.807-1.023-1.46-1.348s-1.386-.49-2.2-.49c-1.15 0-2.067.32-2.75.96-.683.64-1.023 1.415-1.023 2.326 0 .803.28 1.506.84 2.106.55.6 1.9 1.36 4.042 2.276 2.146.916 3.604 1.864 4.378 2.842.764.99 1.146 2.1 1.146 3.33a5.85 5.85 0 0 1-.864 3.083c-.576.95-1.442 1.706-2.6 2.273a8.382 8.382 0 0 1-3.738.85c-.91 0-1.82-.085-2.736-.26s-2.01-.473-3.29-.9c.146-1.363.22-3.173.22-5.43h1.117c.318 1.453.65 2.47.992 3.05.342.58.86 1.058 1.56 1.43a4.772 4.772 0 0 0 2.29.56c1.14 0 2.14-.32 3-.96.86-.638 1.29-1.534 1.29-2.687 0-.94-.31-1.773-.93-2.5-.63-.716-1.99-1.527-4.088-2.433-2.098-.905-3.498-1.773-4.205-2.605-.707-.822-1.06-1.804-1.06-2.945 0-.995.284-1.945.855-2.85s1.41-1.62 2.52-2.147a7.933 7.933 0 0 1 3.448-.79c1.433 0 3.165.344 5.198 1.03a114.8 114.8 0 0 0-.072 2.556c0 .59.024 1.39.072 2.396zm5.04.117h-1.117c.184-1.685.348-3.573.493-5.663 4.284.106 7.34.16 9.168.16 1.52 0 4.284-.053 8.298-.16.125 2.158.27 4.046.435 5.662h-1.09c-.457-1.77-.75-2.81-.887-3.115-.136-.304-.33-.52-.587-.652s-.906-.197-1.95-.197h-3.215c-.077 2.576-.115 5.76-.115 9.554 0 3.522.037 5.903.115 7.142.02.29.093.49.22.595.163.137.962.345 2.394.625.135.02.338.064.61.13v.858a93.93 93.93 0 0 0-5.126-.16 59.3 59.3 0 0 0-4.37.16v-.858a9.64 9.64 0 0 1 .77-.174c1.325-.223 2.09-.41 2.293-.566a.705.705 0 0 0 .198-.327c.042-.14.08-1.213.107-3.216.04-3.096.06-5.39.06-6.88 0-2.605-.02-4.9-.06-6.882h-3.455l-.625.015c-.55 0-.914.06-1.09.174-.27.164-.512.512-.725 1.044-.164.407-.416 1.317-.755 2.73zm25.134 3.425h3.514c1.354 0 2.153-.037 2.396-.11.24-.072.438-.22.588-.442.15-.222.336-.865.56-1.93.028-.106.07-.27.13-.493h.958c-.106 1.596-.16 2.825-.16 3.687 0 .89.054 2.11.16 3.658h-.958c-.28-1.403-.455-2.187-.522-2.352-.098-.232-.267-.4-.51-.5s-.962-.153-2.162-.153h-3.978l.072 8.54h6.083l.537-.016c.832 0 1.355-.032 1.568-.1a2.41 2.41 0 0 0 .973-.63c.28-.296.798-1.13 1.554-2.505.072-.136.19-.334.343-.596h1.002c-.117.31-.717 2.13-1.8 5.46a323.41 323.41 0 0 0-9.656-.16c-2.03 0-4.277.052-6.736.16v-.857l2.353-.508c.377-.106.61-.213.696-.32.146-.183.218-.565.218-1.146v-.26l.074-3.415c.01-.658.015-1.95.015-3.876 0-2.8-.01-4.85-.03-6.15s-.068-2.04-.146-2.214c-.058-.116-.147-.21-.27-.283s-.567-.196-1.342-.37l-1.568-.35v-.855c1.82.103 3.993.16 6.52.16 1.384 0 4.674-.056 9.872-.16.02 1.67.134 3.33.347 4.962h-1.016c-.387-1.317-.7-2.193-.942-2.63-.166-.3-.37-.5-.61-.594-.32-.125-1.027-.19-2.12-.19h-5.865l-.1 4.676-.047 2.86zm14.522-8.232v-.855c2.564.106 4.62.16 6.17.16.89 0 1.723-.01 2.497-.03a65.914 65.914 0 0 1 2.134-.057c1.883 0 3.31.447 4.264 1.337.948.9 1.423 2.115 1.423 3.645 0 1.027-.216 1.935-.646 2.724s-1.052 1.455-1.865 1.997c-.593.39-1.436.734-2.53 1.034l4.837 6.3c.6.784.978 1.244 1.132 1.38.24.202.556.376.943.52.542.214 1.457.46 2.744.74v.857c-1.53-.106-2.64-.16-3.34-.16-.802 0-1.624.053-2.466.16a61.622 61.622 0 0 0-1.77-2.737c-.745-1.098-1.2-1.75-1.364-1.953a4.683 4.683 0 0 1-.275-.363l-3.193-4.384a27.097 27.097 0 0 1-2.613-.19l.115 7.318c.02.29.105.51.26.656.233.193.96.4 2.18.624.174.03.44.086.798.173v.857a77.848 77.848 0 0 0-4.632-.16c-1.432 0-3.033.053-4.804.16v-.856l.626-.13c1.384-.26 2.17-.477 2.36-.646.187-.17.296-.472.325-.907.02-.28.044-2.765.072-7.46l-.06-6.822c-.01-1.045-.035-1.646-.08-1.8a.55.55 0 0 0-.282-.35c-.473-.25-1.224-.458-2.25-.623a36.49 36.49 0 0 1-.71-.146zm6.083 8.886c1.01.104 1.79.16 2.34.16 1.76 0 3.067-.395 3.915-1.18.848-.785 1.27-1.876 1.27-3.27 0-1.224-.374-2.19-1.124-2.896-.75-.708-1.84-1.062-3.273-1.062-.514 0-1.524.06-3.034.175l-.09 8.07zm29.318-4.196h-1.104c-.25-1.243-.535-2.15-.854-2.724-.32-.573-.807-1.022-1.46-1.347s-1.387-.49-2.2-.49c-1.15 0-2.07.32-2.75.96-.683.64-1.024 1.415-1.024 2.326 0 .804.28 1.507.842 2.107.552.6 1.9 1.36 4.045 2.276 2.145.917 3.603 1.865 4.377 2.843.763.99 1.145 2.1 1.145 3.33a5.84 5.84 0 0 1-.864 3.083c-.575.95-1.44 1.706-2.6 2.273s-2.4.85-3.74.85a14.6 14.6 0 0 1-2.732-.26c-.915-.175-2.01-.475-3.29-.9.147-1.365.22-3.175.22-5.43h1.117c.32 1.45.65 2.467.993 3.05.343.58.862 1.056 1.558 1.43a4.77 4.77 0 0 0 2.29.557c1.14 0 2.14-.32 3-.96s1.29-1.533 1.29-2.686c0-.94-.31-1.772-.928-2.5-.63-.715-1.992-1.526-4.087-2.432-2.097-.907-3.5-1.775-4.204-2.607-.707-.82-1.06-1.803-1.06-2.944 0-.996.285-1.946.856-2.85.57-.905 1.41-1.62 2.52-2.148a7.94 7.94 0 0 1 3.45-.79c1.43 0 3.163.343 5.195 1.03a111.89 111.89 0 0 0-.072 2.555c0 .59.023 1.39.07 2.396zm20.53 3.746l-.013-1.032-.015-3.122-.03-2.715c-.01-.405-.068-.657-.174-.754-.155-.165-.533-.29-1.133-.377l-1.96-.438v-.856c2.23.106 3.84.16 4.836.16 1.09 0 2.6-.053 4.53-.16v.856c-1.59.33-2.488.537-2.69.625-.2.087-.337.184-.404.29-.106.174-.164.707-.174 1.597-.02 1.452-.03 3.94-.03 7.462l.06 6.88v.408c0 .455.08.745.247.87.27.204 1.275.456 3.02.756v.858c-2.66-.106-4.35-.16-5.07-.16a71.31 71.31 0 0 0-4.355.16v-.856l2.67-.594a.83.83 0 0 0 .378-.29c.137-.204.21-.586.22-1.148l.072-6.823a337.35 337.35 0 0 0-5.86-.073c-1.463 0-3.01.024-4.637.073l.042 7.012c0 .5.05.82.147.956.095.138.346.26.75.38.097.03.887.2 2.37.507v.857c-2.36-.106-4.025-.16-5-.16-1.21 0-2.674.053-4.394.16v-.856a82.797 82.797 0 0 1 2.338-.493c.388-.068.635-.165.74-.29.146-.166.22-.51.22-1.032.03-1.85.043-4.49.043-7.927l-.072-7.188v-.464c0-.34-.054-.574-.164-.704-.11-.13-.346-.24-.7-.328l-2.4-.465v-.856c1.957.108 3.59.16 4.9.16 1.375 0 2.883-.05 4.52-.16v.858l-2.45.48c-.312.077-.525.186-.642.326-.118.14-.177.39-.177.748l-.07 6.88c1.494.03 3.07.045 4.73.045 2.145.005 4.07-.01 5.78-.04zm17.542-9.292v.856c-.34.078-.59.13-.756.16-1.287.223-2.032.434-2.235.632s-.308.64-.308 1.328v.508l-.07 5.836.044 8.48c0 .676.1 1.107.298 1.29.2.185.88.345 2.04.48.223.03.547.087.973.174v.856a66.42 66.42 0 0 0-4.5-.16c-1.49 0-3.127.053-4.907.16v-.856a5.19 5.19 0 0 1 .64-.146c1.374-.222 2.16-.428 2.36-.617.197-.19.297-.668.297-1.43l-.03-.728.044-5.33c0-5.477-.012-8.506-.04-9.087-.02-.32-.124-.566-.31-.74-.19-.175-.92-.383-2.19-.625-.175-.04-.43-.1-.768-.19v-.854c2.105.108 3.747.16 4.93.16a71.96 71.96 0 0 0 4.49-.16zm1.992.856v-.856c2.565.106 4.62.16 6.17.16.89 0 1.724-.01 2.498-.03a65.985 65.985 0 0 1 2.134-.057c1.89 0 3.313.446 4.27 1.336.95.9 1.424 2.115 1.424 3.645 0 1.028-.216 1.936-.646 2.725s-1.053 1.455-1.866 1.997c-.59.39-1.433.732-2.526 1.032l4.836 6.3c.6.784.978 1.244 1.133 1.38.24.202.555.376.94.52.543.214 1.458.46 2.746.74v.857c-1.528-.108-2.642-.16-3.34-.16-.802 0-1.625.05-2.467.16a61.622 61.622 0 0 0-1.77-2.74c-.747-1.097-1.2-1.75-1.366-1.952a5.247 5.247 0 0 1-.275-.364l-3.194-4.384a27.097 27.097 0 0 1-2.614-.19l.117 7.318c.02.29.104.51.26.655.232.193.96.4 2.18.624.173.03.44.085.797.172v.856a77.848 77.848 0 0 0-4.632-.16c-1.433 0-3.034.05-4.805.16v-.858l.625-.13c1.383-.26 2.17-.477 2.36-.646.186-.17.295-.472.324-.907.02-.28.042-2.77.07-7.463l-.058-6.823c-.01-1.046-.036-1.647-.08-1.8a.55.55 0 0 0-.283-.35c-.475-.25-1.226-.46-2.25-.624-.16-.03-.395-.077-.714-.145zm6.084 8.885c1.006.104 1.785.16 2.337.16 1.763 0 3.067-.395 3.914-1.18.847-.785 1.27-1.876 1.27-3.27 0-1.224-.375-2.19-1.124-2.896-.753-.71-1.844-1.06-3.276-1.06-.514 0-1.524.06-3.034.172l-.087 8.07z"/></svg>