<svg xmlns="http://www.w3.org/2000/svg" width="402" height="401.567" viewBox="0 0 402 401.567"><path fill="#FFF" d="M0 .567h402v402H0z"/><path fill="#D9D9D6" stroke="#D9D9D6" stroke-width="5" stroke-miterlimit="10" d="M279.296 133.463H263.96c-3.5-17.272-7.467-29.892-11.906-37.855-4.44-7.962-11.2-14.205-20.28-18.726-9.08-4.52-19.27-6.782-30.572-6.782-16.01 0-28.755 4.445-38.24 13.334-9.483 8.888-14.226 19.662-14.226 32.32 0 11.18 3.897 20.943 11.697 29.293 7.662 8.35 26.403 18.896 56.225 31.638 29.818 12.74 50.102 25.914 60.848 39.52 10.61 13.744 15.916 29.172 15.916 46.28 0 15.36-4.004 29.642-12.007 42.844-8.005 13.202-20.047 23.743-36.12 31.626-16.078 7.88-33.397 11.82-51.962 11.82-12.647 0-25.325-1.21-38.038-3.632-12.714-2.422-27.95-6.59-45.707-12.512 2.02-18.97 3.027-44.123 3.027-75.47h15.538c4.433 20.18 9.033 34.304 13.8 42.376 4.77 8.07 11.985 14.698 21.66 19.875 9.67 5.18 20.28 7.77 31.832 7.77 15.847 0 29.75-4.442 41.705-13.328 11.953-8.885 17.93-21.34 17.93-37.363 0-13.06-4.306-24.638-12.913-34.733-8.747-9.964-27.68-21.24-56.806-33.826-29.125-12.587-48.6-24.663-58.417-36.225-9.82-11.428-14.73-25.07-14.73-40.934 0-13.846 3.966-27.054 11.905-39.62 7.937-12.57 19.605-22.514 35.012-29.842 15.4-7.327 31.378-10.99 47.925-10.99 19.908 0 43.99 4.776 72.242 14.326-.675 19.645-1.01 31.48-1.01 35.517 0 8.207.334 19.305 1.01 33.296z"/><g fill="#872042"><path d="M82.238 163.48h-3.34c-.762-3.76-1.625-6.51-2.592-8.243s-2.44-3.094-4.416-4.078c-1.98-.987-4.197-1.48-6.658-1.48-3.486 0-6.262.97-8.328 2.904-2.064 1.936-3.098 4.28-3.098 7.038 0 2.435.848 4.562 2.547 6.38 1.668 1.817 5.75 4.114 12.244 6.89 6.494 2.774 10.91 5.644 13.252 8.606 2.31 2.992 3.463 6.352 3.463 10.077 0 3.346-.87 6.455-2.613 9.33-1.743 2.876-4.366 5.17-7.866 6.888-3.502 1.716-7.273 2.574-11.316 2.574-2.754 0-5.514-.265-8.283-.792-2.768-.527-6.086-1.436-9.953-2.725.44-4.13.658-9.61.658-16.436h3.385c.965 4.395 1.967 7.47 3.006 9.23 1.04 1.757 2.61 3.2 4.717 4.328 2.107 1.128 4.418 1.69 6.934 1.69 3.45 0 6.48-.967 9.083-2.9 2.604-1.937 3.904-4.648 3.904-8.138 0-2.844-.938-5.365-2.812-7.564-1.904-2.17-6.027-4.625-12.37-7.366-6.343-2.74-10.583-5.37-12.722-7.89-2.14-2.487-3.21-5.458-3.21-8.913 0-3.014.866-5.89 2.595-8.627 1.73-2.737 4.27-4.903 7.625-6.5 3.354-1.595 6.832-2.393 10.436-2.393 4.335 0 9.58 1.04 15.73 3.12-.145 4.278-.22 6.855-.22 7.734 0 1.79.073 4.206.22 7.253zm21.807 21.032h7.443c2.87 0 4.562-.077 5.076-.23a2.256 2.256 0 0 0 1.246-.938c.318-.472.713-1.835 1.184-4.09.062-.227.154-.575.277-1.047h2.033c-.227 3.384-.34 5.988-.34 7.813 0 1.887.113 4.47.34 7.75h-2.03c-.597-2.972-.966-4.633-1.108-4.98a1.923 1.923 0 0 0-1.076-1.063c-.515-.216-2.04-.323-4.585-.323h-8.428l.152 18.088h12.89l1.137-.03c1.764 0 2.87-.072 3.322-.216a5.093 5.093 0 0 0 2.06-1.338c.595-.626 1.69-2.395 3.29-5.307.166-.285.41-.705.74-1.26h2.123c-.246.657-1.52 4.513-3.814 11.566-7.468-.226-14.286-.338-20.458-.338-4.306 0-9.063.112-14.272.338v-1.814l4.982-1.075c.8-.226 1.293-.45 1.477-.678.31-.39.462-1.2.462-2.43v-.555l.152-7.23c.02-1.393.03-4.13.03-8.212 0-5.925-.02-10.268-.06-13.026-.043-2.758-.145-4.322-.31-4.69a1.453 1.453 0 0 0-.567-.6c-.258-.155-1.205-.416-2.846-.785l-3.322-.74v-1.814c3.855.227 8.46.34 13.812.34 2.93 0 9.903-.113 20.917-.34a88.6 88.6 0 0 0 .738 10.52h-2.154c-.82-2.787-1.484-4.644-2-5.566-.346-.636-.777-1.057-1.29-1.262-.677-.266-2.173-.4-4.49-.4h-12.43l-.215 9.906-.09 6.058zm57.31-7.505h-2.34c-.532-2.633-1.14-4.557-1.813-5.77-.678-1.215-1.707-2.166-3.092-2.855s-2.938-1.034-4.66-1.034c-2.44 0-4.385.678-5.83 2.033-1.445 1.356-2.168 3-2.168 4.93 0 1.703.594 3.19 1.783 4.465 1.168 1.272 4.025 2.88 8.57 4.822s7.64 3.95 9.275 6.024c1.617 2.096 2.426 4.448 2.426 7.056 0 2.342-.61 4.52-1.83 6.53-1.22 2.014-3.055 3.62-5.506 4.822s-5.092 1.803-7.922 1.803c-1.928 0-3.86-.185-5.797-.554-1.937-.37-4.26-1.004-6.967-1.906.31-2.894.46-6.728.46-11.507h2.37c.676 3.076 1.377 5.23 2.104 6.46s1.828 2.24 3.303 3.03c1.474.79 3.09 1.185 4.85 1.185 2.417 0 4.536-.677 6.358-2.03s2.734-3.255 2.734-5.697c0-1.99-.656-3.754-1.97-5.293-1.333-1.52-4.218-3.237-8.66-5.156-4.438-1.92-7.407-3.76-8.903-5.52-1.5-1.74-2.248-3.82-2.248-6.24 0-2.11.605-4.124 1.814-6.04 1.21-1.916 2.988-3.43 5.338-4.55 2.348-1.116 4.783-1.675 7.305-1.675 3.034 0 6.706.73 11.013 2.185-.104 2.993-.154 4.798-.154 5.413 0 1.25.05 2.94.153 5.074zm34.76 0h-2.338c-.535-2.633-1.14-4.557-1.816-5.77-.674-1.215-1.705-2.166-3.09-2.855-1.383-.69-2.94-1.034-4.66-1.034-2.44 0-4.383.678-5.83 2.033-1.445 1.356-2.17 3-2.17 4.93 0 1.703.596 3.19 1.785 4.465 1.168 1.272 4.025 2.88 8.572 4.822 4.545 1.942 7.637 3.95 9.275 6.024 1.618 2.096 2.427 4.448 2.427 7.056 0 2.342-.61 4.52-1.83 6.53-1.22 2.014-3.058 3.62-5.507 4.822-2.45 1.2-5.09 1.803-7.92 1.803-1.93 0-3.862-.185-5.8-.554s-4.26-1.004-6.967-1.906c.307-2.894.46-6.728.46-11.507h2.37c.676 3.076 1.377 5.23 2.104 6.46s1.826 2.24 3.3 3.03c1.476.79 3.093 1.185 4.855 1.185 2.416 0 4.535-.677 6.357-2.03s2.733-3.255 2.733-5.697c0-1.99-.658-3.754-1.97-5.293-1.333-1.52-4.22-3.237-8.66-5.156-4.44-1.92-7.407-3.76-8.905-5.52-1.496-1.74-2.244-3.82-2.244-6.24 0-2.11.604-4.124 1.814-6.04 1.21-1.916 2.988-3.43 5.336-4.55 2.35-1.116 4.785-1.675 7.307-1.675 3.036 0 6.708.73 11.015 2.185-.104 2.993-.154 4.798-.154 5.413 0 1.25.052 2.94.155 5.074zm27.008-11.75v1.814a37.37 37.37 0 0 1-1.6.34c-2.73.473-4.307.918-4.738 1.338-.43.42-.645 1.36-.645 2.815v1.076l-.154 12.365.092 17.965c0 1.435.21 2.348.63 2.736.42.39 1.862.73 4.323 1.016.473.062 1.16.185 2.063.37v1.813c-3.3-.226-6.48-.338-9.535-.338-3.158 0-6.625.112-10.398.338v-1.814c.595-.162 1.046-.265 1.353-.306 2.912-.472 4.578-.907 5-1.308.42-.4.63-1.41.63-3.03l-.062-1.538.094-11.29c0-11.606-.03-18.025-.092-19.256-.04-.676-.26-1.198-.657-1.567s-1.945-.81-4.64-1.323c-.368-.08-.91-.215-1.624-.4v-1.814c4.457.227 7.938.34 10.445.34 2.792-.002 5.966-.114 9.52-.34zm4.397 22.117c0-6.727 2.17-12.248 6.507-16.565 4.338-4.318 9.91-6.478 16.72-6.478 6.337 0 11.382 1.907 15.134 5.722 3.756 3.814 5.633 9.064 5.633 15.75 0 7.424-2.113 13.284-6.338 17.58-4.225 4.297-9.78 6.445-16.672 6.445-6.46 0-11.572-1.95-15.336-5.847-3.764-3.895-5.645-9.432-5.645-16.61zm6.738-.908c0 6.772 1.482 11.857 4.445 15.254 2.965 3.397 6.71 5.095 11.244 5.095 2.994 0 5.65-.79 7.967-2.37 2.318-1.58 4.07-3.895 5.26-6.942 1.19-3.047 1.785-6.42 1.785-10.112 0-4.637-.76-8.485-2.28-11.543s-3.392-5.25-5.63-6.573c-2.232-1.323-4.746-1.985-7.535-1.985-3.055 0-5.793.805-8.213 2.416s-4.2 3.94-5.336 6.988c-1.14 3.046-1.71 6.304-1.71 9.773zm40.207-19.396v-1.814c2.598.227 4.643.34 6.137.34 1.207 0 3.365-.113 6.475-.34l8.736 10.92c.8.965 6.973 8.44 18.52 22.426.02-2.87.03-4.953.03-6.244 0-3.056-.093-8.645-.276-16.766-.082-3.794-.18-5.854-.293-6.183s-.35-.628-.707-.895c-.36-.266-1.79-.635-4.29-1.107a24.12 24.12 0 0 1-1.446-.34v-1.814c3.65.227 6.553.34 8.707.34 2.092 0 4.982-.113 8.674-.34v1.815a13.54 13.54 0 0 1-1.23.276c-2.747.574-4.274.954-4.58 1.14a1.427 1.427 0 0 0-.556.553c-.205.327-.35.942-.43 1.845-.02.39-.068 3.184-.14 8.382-.07 5.2-.106 10.23-.106 15.09 0 5.74.102 10.592.307 14.55l-2 .923-12.826-15.937-16.83-20.245.155 18.185c.102 7.958.215 12.204.338 12.738.082.37.268.69.555.955.45.41 1.98.842 4.584 1.292.308.042.77.134 1.384.277v1.814c-3.137-.226-5.783-.338-7.936-.338-1.805 0-4.953.11-9.443.337v-1.814a416.7 416.7 0 0 1 1.63-.37c2.46-.43 3.886-.83 4.276-1.198.226-.186.39-.503.493-.954.203-.94.348-4.51.43-10.703.102-8.777.154-13.966.154-15.565 0-5.146-.072-8.007-.215-8.58-.084-.41-.35-.755-.8-1.032-.452-.276-2.39-.702-5.815-1.276a40.17 40.17 0 0 1-1.662-.34zm80.533 9.937h-2.338c-.533-2.633-1.14-4.557-1.814-5.77-.678-1.215-1.707-2.166-3.092-2.855s-2.938-1.034-4.66-1.034c-2.44 0-4.385.678-5.83 2.033-1.445 1.356-2.168 3-2.168 4.93 0 1.703.594 3.19 1.783 4.465 1.166 1.272 4.023 2.88 8.57 4.822s7.637 3.95 9.273 6.024c1.617 2.096 2.426 4.448 2.426 7.056 0 2.342-.61 4.52-1.83 6.53-1.22 2.014-3.056 3.62-5.507 4.822s-5.092 1.803-7.922 1.803c-1.927 0-3.86-.185-5.796-.554-1.94-.37-4.262-1.004-6.97-1.906.31-2.894.462-6.728.462-11.507h2.37c.675 3.076 1.376 5.23 2.103 6.46s1.827 2.24 3.302 3.03c1.475.79 3.092 1.185 4.852 1.185 2.416 0 4.535-.677 6.357-2.03s2.735-3.255 2.735-5.697c0-1.99-.656-3.754-1.97-5.293-1.333-1.52-4.218-3.237-8.66-5.156-4.438-1.92-7.407-3.76-8.903-5.52-1.498-1.74-2.246-3.82-2.246-6.24 0-2.11.605-4.124 1.814-6.04 1.212-1.916 2.99-3.43 5.34-4.55 2.347-1.116 4.782-1.675 7.304-1.675 3.035 0 6.707.73 11.014 2.185-.104 2.993-.154 4.798-.154 5.413 0 1.25.05 2.94.154 5.074z"/><path d="M241.04 190.604c0-.922.183-1.8.548-2.63.367-.83.85-1.558 1.45-2.177.597-.62 1.24-1.096 1.927-1.428.688-.33 1.326-.498 1.918-.498.71 0 1.264.21 1.654.63.39.417.652.895.787 1.43s.2 1.032.2 1.49c0 .903-.177 1.75-.532 2.542a7.277 7.277 0 0 1-1.434 2.113 6.848 6.848 0 0 1-1.943 1.428c-.697.334-1.357.502-1.977.502-.902 0-1.56-.354-1.977-1.057a4.532 4.532 0 0 1-.62-2.346zm1.69-.168c0 .62.127 1.21.38 1.764.253.557.726.836 1.417.836.61 0 1.172-.27 1.68-.814.508-.54.908-1.25 1.205-2.123a8.317 8.317 0 0 0 .443-2.676c0-.586-.102-1.172-.307-1.76s-.666-.883-1.385-.883c-.62 0-1.19.313-1.717.937s-.94 1.387-1.252 2.287c-.31.902-.464 1.713-.464 2.43zm8.614-5.39l.105-.475a21.29 21.29 0 0 0 1.572-.516c.24-.916.447-1.617.623-2.104s.393-.91.65-1.27.615-.735 1.072-1.13c.986-.838 1.986-1.258 3.002-1.258.38 0 .71.047.99.143.284.096.55.213.806.354-.184.45-.307.77-.37.95-.063.183-.15.5-.255.95l-.56-.04a2.477 2.477 0 0 0-.31-1.03c-.174-.295-.53-.44-1.072-.44-.333 0-.632.1-.9.295s-.505.482-.712.855c-.21.376-.395.792-.56 1.253a37.328 37.328 0 0 0-.65 2.078c0 .078-.044.244-.128.498.564.014 1.328 0 2.293-.043l.106.148c-.197.29-.36.57-.496.846a38.756 38.756 0 0 0-2.135-.085c-.527 1.957-.926 3.45-1.193 4.48a97.68 97.68 0 0 1-.967 3.455c-.293.958-.56 1.7-.805 2.23-.242.526-.506.956-.79 1.288a6.29 6.29 0 0 1-1.075.96c-.738.536-1.426.804-2.06.804-.317 0-.58-.04-.792-.127a3.93 3.93 0 0 1-.74-.412c.205-.28.36-.518.47-.707.11-.19.228-.43.355-.72h.21c.177.26.355.464.53.608s.44.217.79.217c.552 0 .985-.266 1.302-.8s.662-1.485 1.035-2.845c.14-.465.314-1.115.518-1.955.205-.84.666-2.763 1.385-5.77a3.05 3.05 0 0 0 .08-.308c.037-.168.072-.303.1-.4-.422.018-.9.024-1.426.024z"/></g><path fill="#872042" d="M60.596 255.195h-1.443a1130.035 1130.035 0 0 0-7.14-20.075c-1.27-3.477-2.086-5.51-2.446-6.097a2.475 2.475 0 0 0-.723-.763c-.44-.28-1.424-.595-2.948-.942v-1.183c3.087.146 5.058.22 5.913.22 1.134 0 2.96-.073 5.472-.22v1.183c-1.59.4-2.524.71-2.798.924-.273.214-.41.475-.41.782 0 .28.28 1.257.842 2.928 2.49 7.552 4.43 13.105 5.822 16.66l5.493-14.774c-.895-2.447-1.5-3.944-1.813-4.493-.315-.548-.64-.923-.974-1.123-.335-.2-1.284-.502-2.85-.903v-1.185c2.488.146 4.413.22 5.776.22 1.424 0 3.286-.073 5.585-.22v1.183l-.722.18c-1.11.215-1.825.45-2.146.703-.2.176-.3.437-.3.784 0 .147.013.288.04.422.08.348.822 2.556 2.226 6.624l4.312 12.264c.924-2.542 2.034-5.795 3.333-9.756l2.994-9.155c.04-.187.06-.354.06-.5 0-.24-.073-.42-.22-.532-.147-.112-1.144-.457-2.99-1.032v-1.183c2.488.146 4.112.22 4.875.22.908 0 2.44-.073 4.592-.22v1.183c-1.525.4-2.475.75-2.85 1.043-.24.2-.47.536-.68 1.004-.35.762-1.913 5.06-4.694 12.896-.08.2-1.552 4.513-4.413 12.936H73.99l-4.93-13.736c-.442-1.23-1.03-2.773-1.766-4.632-1.778 4.583-4.01 10.706-6.698 18.367zM340.38 238.69h4.855c1.87 0 2.975-.05 3.31-.15.333-.1.604-.305.81-.612s.466-1.196.773-2.667c.04-.145.1-.372.18-.68h1.324c-.147 2.205-.22 3.903-.22 5.094 0 1.23.072 2.915.22 5.054h-1.323c-.39-1.938-.63-3.02-.725-3.25a1.244 1.244 0 0 0-.7-.69c-.335-.14-1.332-.21-2.99-.21H340.4l.102 11.79h8.402l.742-.02c1.15 0 1.87-.046 2.166-.14a3.326 3.326 0 0 0 1.344-.872c.388-.408 1.104-1.562 2.146-3.46.106-.187.267-.46.48-.822h1.384c-.16.428-.99 2.94-2.487 7.54-4.868-.146-9.314-.22-13.338-.22-2.808 0-5.91.073-9.306.22v-1.183l3.25-.7c.52-.147.84-.295.962-.44.2-.255.3-.783.3-1.586v-.36l.1-4.713c.014-.91.02-2.693.02-5.354 0-3.863-.013-6.694-.04-8.493-.026-1.798-.093-2.817-.2-3.06a.94.94 0 0 0-.37-.39c-.168-.1-.786-.27-1.855-.512l-2.166-.48v-1.183c2.513.146 5.514.22 9.004.22 1.913 0 6.458-.073 13.638-.22.028 2.312.19 4.6.483 6.858h-1.403c-.536-1.818-.97-3.028-1.305-3.63-.228-.414-.51-.688-.843-.822-.44-.174-1.417-.26-2.93-.26h-8.1l-.14 6.457-.06 3.95zM89.567 236.925c0-3.175 1.023-5.78 3.07-7.818 2.047-2.037 4.678-3.056 7.89-3.056 2.992 0 5.373.9 7.144 2.7 1.773 1.8 2.66 4.28 2.66 7.436 0 3.503-.998 6.27-2.99 8.297-1.995 2.027-4.618 3.04-7.87 3.04-3.05 0-5.46-.918-7.237-2.757s-2.665-4.453-2.665-7.84zm3.18-.43c0 3.197.7 5.598 2.098 7.2 1.398 1.604 3.167 2.404 5.307 2.404 1.413 0 2.666-.375 3.76-1.12 1.094-.746 1.92-1.838 2.482-3.276s.842-3.03.842-4.773c0-2.187-.357-4.004-1.074-5.447-.716-1.443-1.602-2.478-2.656-3.103-1.056-.623-2.24-.936-3.558-.936-1.44 0-2.734.38-3.876 1.14-1.142.76-1.98 1.86-2.52 3.3s-.805 2.975-.805 4.612zm20.283-9.152v-.856c2.565.106 4.622.16 6.17.16.892 0 1.724-.01 2.498-.03a69.104 69.104 0 0 1 2.135-.058c1.887 0 3.31.443 4.268 1.334.95.9 1.425 2.115 1.425 3.645 0 1.025-.215 1.933-.646 2.722-.43.79-1.054 1.454-1.867 1.996-.59.387-1.433.73-2.527 1.03l4.836 6.3c.602.784.98 1.244 1.134 1.38a3.2 3.2 0 0 0 .943.52c.542.214 1.456.46 2.744.74v.857c-1.53-.106-2.643-.16-3.34-.16-.803 0-1.625.054-2.468.16a60.21 60.21 0 0 0-1.77-2.736c-.747-1.1-1.2-1.75-1.366-1.953a4.92 4.92 0 0 1-.275-.362l-3.194-4.385c-.86-.02-1.732-.08-2.613-.187l.116 7.317c.02.29.106.508.262.653.23.193.958.4 2.178.624.174.028.44.087.798.174v.858a77.74 77.74 0 0 0-4.63-.16c-1.433 0-3.034.054-4.806.16v-.856l.624-.13c1.384-.26 2.17-.477 2.36-.646s.297-.472.326-.907c.02-.28.043-2.77.072-7.464l-.06-6.823c-.01-1.044-.035-1.645-.078-1.8a.557.557 0 0 0-.283-.348c-.475-.252-1.225-.46-2.25-.624-.156-.03-.393-.077-.713-.144zm6.084 8.884c1.007.106 1.786.16 2.338.16 1.76 0 3.065-.393 3.912-1.18.847-.784 1.27-1.875 1.27-3.27 0-1.222-.374-2.187-1.124-2.895s-1.842-1.062-3.274-1.062c-.513 0-1.524.06-3.034.175l-.088 8.072zm33.816 7.333l.61 1.103c-1.556.978-3.05 1.698-4.48 2.163-1.43.464-2.908.696-4.435.696-1.942 0-3.706-.442-5.29-1.328s-2.786-2.14-3.604-3.76c-.814-1.62-1.223-3.42-1.223-5.394 0-3.224 1.05-5.86 3.152-7.913 2.102-2.052 4.882-3.077 8.342-3.077 2.127 0 4.494.436 7.104 1.307-.02.852-.03 1.49-.03 1.916 0 1.24.074 2.54.22 3.905h-1.22c-.358-1.693-.74-2.86-1.147-3.5s-1.064-1.147-1.974-1.53c-.908-.382-2.03-.573-3.364-.573-2.805 0-4.917.997-6.338 2.99-1.103 1.56-1.654 3.514-1.654 5.865 0 2.808.776 5.02 2.328 6.643 1.553 1.62 3.585 2.432 6.1 2.432 1.083 0 2.137-.14 3.16-.42 1.027-.283 2.274-.79 3.745-1.526zm8.93-7.986h3.515c1.355 0 2.153-.036 2.396-.108.244-.073.44-.22.59-.443s.336-.866.56-1.93c.03-.107.072-.272.13-.494h.96c-.108 1.595-.16 2.824-.16 3.686 0 .89.052 2.11.16 3.658h-.96c-.28-1.403-.455-2.188-.52-2.352a.912.912 0 0 0-.51-.5c-.24-.103-.964-.153-2.163-.153h-3.98l.074 8.535h6.084l.537-.015c.833 0 1.355-.032 1.568-.1a2.41 2.41 0 0 0 .973-.633c.28-.295.8-1.13 1.555-2.504.077-.136.193-.334.35-.596h1c-.115.31-.716 2.13-1.8 5.46-3.522-.107-6.74-.16-9.654-.16-2.03 0-4.277.053-6.735.16v-.857l2.352-.508c.378-.106.61-.213.697-.32.146-.183.218-.565.218-1.146v-.26l.073-3.413c.01-.658.015-1.95.015-3.876 0-2.797-.01-4.847-.03-6.148s-.066-2.04-.144-2.216a.69.69 0 0 0-.27-.283c-.12-.072-.568-.195-1.343-.37l-1.566-.35v-.854c1.82.106 3.992.16 6.52.16 1.383 0 4.674-.054 9.87-.16.02 1.674.137 3.33.35 4.965h-1.017c-.387-1.315-.7-2.19-.943-2.627-.165-.3-.368-.498-.61-.595-.318-.127-1.025-.19-2.12-.19h-5.864l-.102 4.675-.046 2.86zm27.792-3.542h-1.104c-.252-1.243-.537-2.15-.856-2.724-.32-.573-.807-1.022-1.46-1.348s-1.386-.487-2.2-.487c-1.15 0-2.067.32-2.75.96s-1.023 1.414-1.023 2.324c0 .805.28 1.507.84 2.107.55.6 1.9 1.36 4.045 2.276s3.604 1.864 4.378 2.843c.763.99 1.145 2.1 1.145 3.33a5.843 5.843 0 0 1-.864 3.082c-.576.95-1.442 1.71-2.6 2.275a8.382 8.382 0 0 1-3.738.85c-.91 0-1.82-.086-2.736-.26-.915-.175-2.01-.475-3.288-.9.145-1.364.218-3.175.218-5.43h1.118c.318 1.452.65 2.468.992 3.05s.862 1.057 1.56 1.43c.694.372 1.458.56 2.29.56 1.14 0 2.14-.32 3-.96.86-.64 1.29-1.535 1.29-2.688 0-.94-.31-1.772-.93-2.5-.63-.716-1.99-1.527-4.087-2.433s-3.496-1.776-4.203-2.608c-.706-.82-1.06-1.804-1.06-2.944 0-.997.285-1.947.856-2.852s1.41-1.62 2.52-2.147a7.946 7.946 0 0 1 3.447-.79c1.433 0 3.165.344 5.198 1.03a108.43 108.43 0 0 0-.072 2.556c0 .59.024 1.388.072 2.395zm5.04.116h-1.117c.184-1.685.348-3.572.493-5.662 4.284.106 7.34.16 9.168.16 1.52 0 4.284-.054 8.298-.16.125 2.158.27 4.046.435 5.662h-1.09c-.454-1.77-.75-2.81-.884-3.114-.136-.305-.33-.522-.587-.653s-.906-.194-1.95-.194h-3.215c-.078 2.575-.116 5.76-.116 9.553 0 3.522.037 5.903.115 7.143.02.29.092.488.218.595.164.136.963.344 2.395.624.135.02.338.064.61.132v.856a93.847 93.847 0 0 0-5.126-.16 61.6 61.6 0 0 0-4.37.16v-.856a9.64 9.64 0 0 1 .77-.174c1.326-.223 2.09-.41 2.294-.566a.71.71 0 0 0 .196-.327c.043-.14.08-1.212.108-3.215.04-3.098.06-5.392.06-6.882 0-2.604-.02-4.897-.06-6.882h-3.455l-.624.015c-.55 0-.914.06-1.09.175-.27.165-.512.514-.725 1.046-.164.405-.416 1.315-.755 2.728zm25.134 3.426h3.514c1.354 0 2.153-.036 2.396-.108.24-.073.438-.22.588-.443.15-.223.336-.866.56-1.93.028-.107.07-.272.13-.494h.958c-.106 1.595-.16 2.824-.16 3.686 0 .89.054 2.11.16 3.658h-.958c-.28-1.403-.455-2.188-.522-2.352-.098-.232-.267-.4-.51-.5s-.962-.153-2.162-.153h-3.978l.072 8.535h6.083l.537-.015c.832 0 1.355-.032 1.568-.1a2.41 2.41 0 0 0 .973-.633c.28-.295.798-1.13 1.554-2.504.075-.136.19-.334.346-.596h1.002c-.117.31-.717 2.13-1.8 5.46a320.19 320.19 0 0 0-9.656-.16c-2.032 0-4.277.053-6.736.16v-.857l2.353-.508c.377-.106.61-.213.696-.32.146-.183.218-.565.218-1.146v-.26l.073-3.413c.01-.658.015-1.95.015-3.876 0-2.797-.01-4.847-.03-6.148s-.067-2.04-.145-2.216a.677.677 0 0 0-.27-.283c-.12-.072-.567-.195-1.342-.37l-1.568-.35v-.854c1.82.106 3.993.16 6.52.16 1.384 0 4.674-.054 9.872-.16.02 1.674.134 3.33.347 4.965h-1.016c-.387-1.315-.7-2.19-.942-2.627-.166-.3-.37-.498-.61-.595-.32-.127-1.027-.19-2.12-.19h-5.865l-.103 4.675-.046 2.86zm14.522-8.23v-.857c2.564.106 4.62.16 6.17.16.89 0 1.723-.01 2.497-.03a69.063 69.063 0 0 1 2.134-.058c1.886 0 3.31.443 4.267 1.334.948.9 1.423 2.115 1.423 3.645 0 1.025-.215 1.933-.645 2.722s-1.053 1.454-1.866 1.996c-.593.387-1.436.73-2.53 1.03l4.837 6.3c.6.784.978 1.244 1.132 1.38.24.202.556.377.943.52.542.214 1.457.46 2.744.74v.857c-1.53-.106-2.642-.16-3.34-.16-.803 0-1.625.054-2.467.16-.435-.726-1.025-1.638-1.77-2.736s-1.2-1.75-1.364-1.953a4.667 4.667 0 0 1-.276-.362l-3.193-4.385a27.092 27.092 0 0 1-2.613-.187l.116 7.317c.02.29.105.508.26.653.233.193.96.4 2.18.624.174.028.44.087.798.174v.858a77.77 77.77 0 0 0-4.632-.16 81.09 81.09 0 0 0-4.805.16v-.856l.626-.13c1.384-.26 2.17-.477 2.36-.646.187-.17.296-.472.325-.907.02-.28.045-2.77.073-7.464l-.058-6.823c-.01-1.044-.036-1.645-.08-1.8a.55.55 0 0 0-.283-.348c-.473-.252-1.224-.46-2.25-.624a43.49 43.49 0 0 1-.712-.144zm6.083 8.883c1.008.106 1.787.16 2.34.16 1.76 0 3.064-.393 3.912-1.18.848-.784 1.27-1.875 1.27-3.27 0-1.222-.374-2.187-1.124-2.895s-1.84-1.062-3.273-1.062c-.514 0-1.524.06-3.034.175l-.09 8.072zm29.315-4.195h-1.104c-.25-1.243-.535-2.15-.854-2.724s-.806-1.022-1.46-1.348-1.386-.487-2.198-.487c-1.152 0-2.07.32-2.752.96-.682.64-1.023 1.414-1.023 2.324 0 .805.28 1.507.842 2.107.552.6 1.9 1.36 4.045 2.276s3.603 1.864 4.377 2.843c.764.99 1.146 2.1 1.146 3.33a5.835 5.835 0 0 1-.864 3.082c-.578.95-1.444 1.71-2.6 2.275a8.374 8.374 0 0 1-3.74.85 14.6 14.6 0 0 1-2.735-.26c-.915-.175-2.01-.475-3.29-.9.147-1.364.22-3.175.22-5.43h1.117c.32 1.452.65 2.468.993 3.05s.862 1.057 1.558 1.43a4.77 4.77 0 0 0 2.29.56c1.14 0 2.14-.32 3-.96.86-.64 1.29-1.535 1.29-2.688 0-.94-.31-1.772-.928-2.5-.63-.716-1.992-1.527-4.087-2.433-2.097-.907-3.498-1.776-4.204-2.608-.707-.82-1.06-1.804-1.06-2.944 0-.997.285-1.947.856-2.852.57-.904 1.41-1.62 2.52-2.147a7.954 7.954 0 0 1 3.447-.79c1.43 0 3.164.344 5.196 1.03-.05 1.413-.072 2.265-.072 2.556 0 .59.023 1.388.07 2.395zm20.53 3.745l-.013-1.03-.015-3.122-.03-2.715c-.01-.406-.067-.657-.173-.755-.155-.164-.533-.29-1.133-.377l-1.96-.436v-.856c2.23.106 3.84.16 4.836.16 1.09 0 2.6-.054 4.53-.16v.856c-1.59.33-2.486.537-2.688.624s-.337.184-.404.29c-.106.175-.164.707-.174 1.598-.02 1.45-.03 3.94-.03 7.462l.06 6.882v.406c0 .455.08.745.247.87.27.204 1.277.456 3.02.756v.856c-2.66-.106-4.35-.16-5.07-.16-1.193 0-2.645.054-4.353.16v-.856l2.67-.595a.83.83 0 0 0 .378-.29c.137-.204.21-.586.22-1.147l.072-6.823c-2.55-.05-4.502-.073-5.86-.073-1.463 0-3.01.024-4.637.073l.044 7.012c0 .504.05.823.147.958.096.136.347.262.75.378.098.03.888.198 2.372.508v.858c-2.36-.106-4.026-.16-5-.16-1.21 0-2.675.054-4.395.16v-.856a81.96 81.96 0 0 1 2.338-.492c.387-.068.634-.165.74-.29.145-.165.218-.51.218-1.03.03-1.85.044-4.492.044-7.928l-.072-7.187v-.465c0-.34-.055-.573-.165-.704-.11-.13-.345-.24-.7-.326l-2.4-.465v-.856a93.48 93.48 0 0 0 4.9.16 70.37 70.37 0 0 0 4.52-.16v.855l-2.448.48c-.313.077-.526.186-.643.326-.117.14-.176.39-.176.748l-.072 6.88c1.494.03 3.07.045 4.73.045 2.145 0 4.07-.016 5.78-.045zm17.542-9.29v.855c-.34.077-.59.13-.755.16-1.287.222-2.032.433-2.235.63s-.306.643-.306 1.33v.508l-.07 5.836.044 8.48c0 .677.1 1.107.298 1.29.2.186.88.345 2.04.48.223.028.547.087.973.174v.856c-1.56-.106-3.06-.16-4.5-.16-1.49 0-3.127.054-4.907.16v-.856c.28-.077.493-.126.64-.146 1.373-.222 2.16-.428 2.358-.616.198-.19.298-.666.298-1.43l-.03-.727.044-5.326c0-5.48-.014-8.508-.043-9.088-.02-.32-.123-.566-.31-.74-.19-.175-.92-.383-2.19-.625a26.83 26.83 0 0 1-.767-.187v-.856c2.104.106 3.746.16 4.93.16a71.2 71.2 0 0 0 4.49-.16zm1.993.856v-.856c2.564.106 4.62.16 6.17.16.89 0 1.723-.01 2.497-.03a69.14 69.14 0 0 1 2.134-.058c1.89 0 3.313.443 4.27 1.334.95.9 1.424 2.115 1.424 3.645 0 1.025-.216 1.933-.646 2.722s-1.053 1.454-1.866 1.996c-.59.387-1.433.73-2.526 1.03l4.836 6.3c.6.784.978 1.244 1.133 1.38a3.2 3.2 0 0 0 .943.52c.542.214 1.457.46 2.745.74v.857c-1.528-.106-2.642-.16-3.34-.16-.802 0-1.625.054-2.467.16-.436-.726-1.026-1.638-1.77-2.736s-1.2-1.75-1.365-1.953a5.227 5.227 0 0 1-.275-.362l-3.193-4.385a27.092 27.092 0 0 1-2.614-.187l.116 7.317c.02.29.105.508.26.653.233.193.96.4 2.18.624.174.028.44.087.798.174v.858a77.77 77.77 0 0 0-4.632-.16 81.09 81.09 0 0 0-4.805.16v-.856l.624-.13c1.383-.26 2.17-.477 2.36-.646.186-.17.295-.472.324-.907.02-.28.044-2.77.072-7.464l-.058-6.823c-.01-1.044-.036-1.645-.08-1.8a.55.55 0 0 0-.283-.348c-.474-.252-1.225-.46-2.25-.624-.158-.03-.394-.077-.713-.144zm6.083 8.884c1.006.106 1.785.16 2.337.16 1.762 0 3.066-.393 3.913-1.18.847-.784 1.27-1.875 1.27-3.27 0-1.222-.375-2.187-1.124-2.895-.753-.708-1.844-1.062-3.276-1.062-.514 0-1.524.06-3.034.175l-.087 8.072z"/></svg>