<svg xmlns="http://www.w3.org/2000/svg" width="402" height="401.567" viewBox="0 0 402 401.567"><path fill="#FFF" d="M0 .567h402v402H0z"/><path fill="#D9D9D6" stroke="#D9D9D6" stroke-width="5" stroke-miterlimit="10" d="M279.296 133.463H263.96c-3.5-17.272-7.467-29.892-11.906-37.855-4.44-7.962-11.2-14.205-20.28-18.726-9.08-4.52-19.27-6.782-30.572-6.782-16.01 0-28.755 4.445-38.24 13.334-9.483 8.888-14.226 19.662-14.226 32.32 0 11.18 3.897 20.943 11.697 29.293 7.662 8.35 26.403 18.896 56.225 31.638 29.818 12.74 50.102 25.914 60.848 39.52 10.61 13.744 15.916 29.172 15.916 46.28 0 15.36-4.004 29.642-12.007 42.844-8.005 13.2-20.047 23.74-36.12 31.622-16.078 7.88-33.397 11.82-51.962 11.82-12.647 0-25.325-1.21-38.038-3.632-12.714-2.42-27.95-6.59-45.707-12.51 2.02-18.97 3.027-44.123 3.027-75.47h15.538c4.433 20.18 9.033 34.304 13.8 42.376 4.77 8.07 11.985 14.698 21.66 19.875 9.67 5.18 20.28 7.77 31.832 7.77 15.847 0 29.75-4.44 41.705-13.326 11.953-8.885 17.93-21.34 17.93-37.363 0-13.06-4.306-24.635-12.913-34.73-8.747-9.964-27.68-21.24-56.806-33.826-29.12-12.587-48.6-24.663-58.413-36.225-9.82-11.43-14.73-25.07-14.73-40.935 0-13.846 3.966-27.054 11.905-39.62 7.937-12.57 19.605-22.514 35.01-29.842 15.4-7.326 31.38-10.99 47.927-10.99 19.907 0 43.99 4.777 72.24 14.327-.675 19.643-1.01 31.48-1.01 35.515 0 8.207.334 19.305 1.01 33.296z"/><g fill="#872042"><path d="M82.238 163.48h-3.34c-.762-3.76-1.625-6.51-2.592-8.243s-2.44-3.094-4.416-4.078c-1.98-.99-4.197-1.48-6.658-1.48-3.486 0-6.262.97-8.328 2.9-2.064 1.936-3.098 4.28-3.098 7.04 0 2.434.848 4.56 2.547 6.38 1.668 1.816 5.75 4.113 12.244 6.89 6.494 2.773 10.91 5.643 13.252 8.605 2.31 2.992 3.46 6.352 3.46 10.077 0 3.346-.87 6.455-2.614 9.33-1.744 2.876-4.367 5.17-7.867 6.888-3.5 1.717-7.273 2.575-11.316 2.575-2.754 0-5.514-.265-8.283-.792-2.767-.527-6.085-1.436-9.952-2.725.44-4.13.66-9.61.66-16.438h3.382c.965 4.395 1.967 7.47 3.006 9.23 1.04 1.757 2.61 3.2 4.716 4.328 2.107 1.13 4.418 1.69 6.934 1.69 3.45 0 6.48-.966 9.084-2.9 2.604-1.936 3.904-4.647 3.904-8.137 0-2.842-.938-5.363-2.812-7.562-1.904-2.17-6.027-4.627-12.37-7.368-6.343-2.74-10.583-5.37-12.722-7.89-2.14-2.488-3.21-5.46-3.21-8.914 0-3.015.866-5.89 2.595-8.628 1.73-2.737 4.27-4.903 7.623-6.5 3.354-1.595 6.832-2.393 10.436-2.393 4.334 0 9.58 1.04 15.73 3.12-.146 4.277-.22 6.854-.22 7.733 0 1.79.072 4.206.22 7.253zm21.807 21.032h7.443c2.87 0 4.562-.077 5.076-.23a2.256 2.256 0 0 0 1.246-.938c.318-.472.713-1.835 1.184-4.09.062-.227.154-.575.277-1.047h2.037c-.227 3.384-.34 5.988-.34 7.813 0 1.887.113 4.47.34 7.75h-2.03c-.597-2.972-.966-4.633-1.108-4.98a1.923 1.923 0 0 0-1.077-1.063c-.514-.216-2.04-.323-4.584-.323h-8.43l.153 18.088h12.89l1.136-.03c1.763 0 2.87-.072 3.32-.216a5.093 5.093 0 0 0 2.06-1.338c.596-.626 1.69-2.395 3.29-5.307.167-.28.41-.7.74-1.26h2.124c-.244.66-1.52 4.517-3.812 11.57-7.467-.226-14.285-.34-20.457-.34-4.307 0-9.064.11-14.273.34v-1.815l4.982-1.075c.8-.227 1.29-.45 1.475-.68.31-.39.46-1.2.46-2.43v-.554l.15-7.23c.02-1.393.03-4.13.03-8.212 0-5.925-.02-10.268-.06-13.026-.042-2.758-.144-4.322-.31-4.69a1.453 1.453 0 0 0-.566-.6c-.258-.155-1.205-.416-2.846-.785l-3.322-.74v-1.814c3.855.225 8.46.34 13.812.34 2.93 0 9.903-.115 20.917-.34a88.6 88.6 0 0 0 .738 10.52h-2.153c-.82-2.79-1.485-4.646-2-5.568-.347-.636-.778-1.057-1.29-1.262-.678-.265-2.174-.4-4.49-.4h-12.43l-.216 9.907-.09 6.058zm57.31-7.505h-2.34c-.532-2.633-1.14-4.557-1.813-5.77-.678-1.215-1.707-2.166-3.092-2.855s-2.938-1.034-4.66-1.034c-2.44 0-4.385.678-5.83 2.033-1.445 1.36-2.168 3-2.168 4.93 0 1.707.594 3.19 1.783 4.47 1.168 1.27 4.025 2.88 8.57 4.82s7.64 3.95 9.275 6.024c1.617 2.096 2.426 4.448 2.426 7.056 0 2.34-.61 4.52-1.83 6.53-1.22 2.012-3.055 3.62-5.506 4.82s-5.092 1.803-7.922 1.803c-1.928 0-3.86-.185-5.797-.554-1.933-.37-4.26-1.007-6.963-1.91.31-2.893.46-6.727.46-11.506h2.37c.676 3.076 1.377 5.23 2.104 6.46s1.828 2.24 3.303 3.03c1.475.79 3.09 1.185 4.85 1.185 2.418 0 4.537-.676 6.36-2.03s2.733-3.254 2.733-5.696c0-1.99-.656-3.754-1.97-5.293-1.333-1.52-4.218-3.235-8.66-5.154-4.438-1.92-7.407-3.76-8.903-5.52-1.5-1.74-2.248-3.82-2.248-6.24 0-2.11.605-4.124 1.814-6.04 1.21-1.916 2.987-3.43 5.337-4.55 2.348-1.116 4.783-1.675 7.305-1.675 3.035 0 6.707.73 11.014 2.186-.104 2.993-.154 4.798-.154 5.413 0 1.25.05 2.94.152 5.073zm34.76 0h-2.338c-.535-2.633-1.14-4.557-1.816-5.77-.67-1.215-1.7-2.166-3.09-2.855-1.38-.69-2.94-1.034-4.66-1.034-2.44 0-4.38.678-5.83 2.033-1.44 1.36-2.17 3-2.17 4.93 0 1.707.6 3.19 1.79 4.47 1.167 1.27 4.024 2.88 8.57 4.82 4.545 1.94 7.637 3.95 9.275 6.024 1.618 2.096 2.427 4.448 2.427 7.056 0 2.34-.61 4.52-1.83 6.53-1.22 2.012-3.056 3.62-5.505 4.82-2.45 1.2-5.09 1.803-7.92 1.803-1.93 0-3.862-.185-5.8-.554s-4.26-1.007-6.967-1.91c.307-2.893.46-6.727.46-11.506h2.37c.676 3.076 1.377 5.23 2.104 6.46s1.827 2.24 3.3 3.03c1.477.79 3.094 1.185 4.856 1.185 2.416 0 4.535-.676 6.357-2.03s2.733-3.254 2.733-5.696c0-1.99-.658-3.754-1.97-5.293-1.333-1.52-4.22-3.235-8.66-5.154-4.44-1.92-7.407-3.76-8.905-5.52-1.495-1.74-2.243-3.82-2.243-6.24 0-2.11.604-4.124 1.814-6.04 1.21-1.916 2.99-3.43 5.337-4.55 2.35-1.116 4.786-1.675 7.308-1.675 3.037 0 6.71.73 11.016 2.186-.105 2.993-.155 4.798-.155 5.413 0 1.25.053 2.94.156 5.073zm27.008-11.75v1.814a37.37 37.37 0 0 1-1.6.34c-2.73.477-4.307.92-4.738 1.34-.43.42-.645 1.36-.645 2.817v1.076l-.154 12.366.092 17.964c0 1.436.21 2.35.63 2.737.42.39 1.862.73 4.323 1.017.477.062 1.16.185 2.067.37v1.813c-3.3-.227-6.48-.34-9.535-.34-3.16 0-6.625.113-10.4.34v-1.815c.597-.16 1.048-.264 1.355-.305 2.912-.472 4.578-.907 5-1.308.42-.4.63-1.41.63-3.03l-.062-1.54.094-11.29c0-11.606-.03-18.025-.093-19.256-.04-.676-.26-1.198-.657-1.567s-1.945-.81-4.64-1.325c-.368-.08-.91-.215-1.624-.4v-1.814c4.457.227 7.938.34 10.445.34 2.79-.002 5.966-.114 9.52-.34zm4.397 22.117c0-6.727 2.17-12.248 6.507-16.565 4.338-4.32 9.91-6.48 16.72-6.48 6.337 0 11.382 1.905 15.134 5.72 3.76 3.814 5.637 9.064 5.637 15.75 0 7.424-2.113 13.284-6.338 17.58-4.226 4.297-9.78 6.445-16.673 6.445-6.46 0-11.572-1.95-15.336-5.847-3.764-3.895-5.645-9.43-5.645-16.61zm6.738-.908c0 6.772 1.482 11.857 4.445 15.254 2.965 3.397 6.71 5.095 11.244 5.095 2.994 0 5.65-.79 7.967-2.37 2.318-1.58 4.07-3.895 5.26-6.942 1.19-3.047 1.785-6.42 1.785-10.112 0-4.633-.76-8.48-2.28-11.54s-3.396-5.25-5.63-6.572c-2.236-1.323-4.75-1.985-7.54-1.985-3.054 0-5.792.806-8.212 2.417s-4.2 3.94-5.336 6.987c-1.14 3.046-1.71 6.304-1.71 9.773zm40.207-19.396v-1.814c2.598.227 4.643.34 6.137.34 1.207 0 3.365-.113 6.475-.34l8.736 10.92c.8.965 6.973 8.44 18.52 22.426.02-2.87.03-4.953.03-6.244 0-3.056-.093-8.645-.276-16.766-.082-3.794-.18-5.854-.293-6.183s-.35-.63-.707-.9c-.36-.265-1.79-.634-4.29-1.106a24.12 24.12 0 0 1-1.446-.34v-1.814c3.65.228 6.557.34 8.71.34 2.09 0 4.98-.112 8.675-.34v1.816a13.54 13.54 0 0 1-1.23.276c-2.747.574-4.274.954-4.58 1.14a1.427 1.427 0 0 0-.556.553c-.206.327-.35.942-.43 1.845-.02.39-.07 3.185-.14 8.383-.07 5.2-.107 10.23-.107 15.09 0 5.74.103 10.592.308 14.55l-2 .923-12.825-15.937-16.83-20.248.156 18.185c.103 7.957.216 12.203.34 12.737.08.37.267.69.554.955.45.41 1.98.84 4.584 1.29.308.043.77.135 1.384.278v1.814c-3.136-.226-5.782-.338-7.935-.338-1.804 0-4.952.11-9.442.337v-1.813a416.7 416.7 0 0 1 1.63-.37c2.46-.43 3.886-.83 4.276-1.198.226-.187.39-.504.493-.955.202-.94.347-4.51.43-10.705.1-8.777.153-13.966.153-15.565 0-5.145-.07-8.006-.214-8.58-.084-.41-.35-.754-.8-1.03-.452-.277-2.39-.703-5.815-1.277a40.17 40.17 0 0 1-1.66-.34zm80.533 9.937h-2.338c-.533-2.633-1.14-4.557-1.814-5.77-.678-1.215-1.707-2.166-3.092-2.855s-2.938-1.034-4.66-1.034c-2.44 0-4.385.678-5.83 2.033-1.445 1.36-2.168 3-2.168 4.93 0 1.707.594 3.19 1.783 4.47 1.162 1.27 4.02 2.88 8.57 4.82s7.633 3.95 9.27 6.024c1.616 2.096 2.425 4.448 2.425 7.056 0 2.34-.61 4.52-1.83 6.53-1.22 2.012-3.056 3.62-5.507 4.82s-5.09 1.803-7.92 1.803c-1.93 0-3.86-.185-5.798-.554-1.94-.37-4.262-1.007-6.97-1.91.31-2.893.462-6.727.462-11.506h2.37c.675 3.076 1.376 5.23 2.103 6.46s1.827 2.24 3.302 3.03c1.474.79 3.09 1.185 4.85 1.185 2.417 0 4.536-.676 6.358-2.03s2.733-3.254 2.733-5.696c0-1.99-.655-3.754-1.97-5.293-1.332-1.52-4.217-3.235-8.66-5.154-4.437-1.92-7.406-3.76-8.902-5.52-1.497-1.74-2.245-3.82-2.245-6.24 0-2.11.606-4.124 1.815-6.04 1.21-1.916 2.99-3.43 5.34-4.55 2.345-1.116 4.78-1.675 7.302-1.675 3.034 0 6.706.73 11.013 2.186-.104 2.993-.154 4.798-.154 5.413 0 1.25.05 2.94.153 5.073z"/><path d="M241.04 190.604c0-.922.183-1.8.548-2.63.367-.83.85-1.558 1.45-2.177.597-.62 1.24-1.096 1.927-1.428.688-.33 1.326-.5 1.918-.5.71 0 1.264.21 1.654.63.39.415.652.893.787 1.43s.2 1.03.2 1.49a6.13 6.13 0 0 1-.532 2.54 7.277 7.277 0 0 1-1.434 2.113 6.848 6.848 0 0 1-1.943 1.428c-.697.335-1.357.503-1.977.503-.902 0-1.56-.354-1.977-1.057a4.532 4.532 0 0 1-.62-2.347zm1.69-.168c0 .62.127 1.21.38 1.764.253.557.726.836 1.417.836.61 0 1.172-.27 1.68-.814.508-.54.908-1.25 1.205-2.123a8.317 8.317 0 0 0 .443-2.68c0-.586-.102-1.17-.307-1.76s-.666-.883-1.385-.883c-.62 0-1.19.312-1.717.936s-.94 1.387-1.252 2.287c-.31.903-.464 1.714-.464 2.43zm8.614-5.39l.105-.475a21.29 21.29 0 0 0 1.57-.512c.24-.916.445-1.617.62-2.104s.394-.91.65-1.27.616-.734 1.073-1.13c.986-.837 1.986-1.257 3.002-1.257.38 0 .71.047.99.143.284.095.55.212.806.353-.183.45-.306.77-.37.95-.062.183-.15.5-.254.95l-.56-.04a2.477 2.477 0 0 0-.31-1.03c-.175-.295-.53-.44-1.073-.44-.333 0-.632.1-.9.295s-.505.482-.712.855c-.21.376-.394.792-.56 1.253a37.328 37.328 0 0 0-.65 2.078c0 .08-.043.245-.127.5.564.013 1.328 0 2.293-.044l.106.147c-.197.29-.36.57-.496.846a38.756 38.756 0 0 0-2.135-.085c-.526 1.957-.925 3.45-1.192 4.48a97.68 97.68 0 0 1-.968 3.455c-.293.958-.56 1.7-.805 2.23-.242.526-.506.956-.79 1.288a6.29 6.29 0 0 1-1.075.96c-.738.54-1.426.807-2.06.807-.317 0-.58-.04-.792-.127a3.93 3.93 0 0 1-.74-.413c.206-.28.36-.518.47-.707.11-.19.23-.43.356-.72h.21c.177.26.355.463.53.607s.44.217.79.217c.552 0 .985-.265 1.302-.8s.662-1.484 1.035-2.844c.14-.465.315-1.115.52-1.955.206-.84.667-2.762 1.386-5.77a3.05 3.05 0 0 0 .08-.307c.037-.168.072-.303.1-.4-.422.018-.9.024-1.426.024z"/></g><path fill="#872042" d="M60.596 255.195h-1.443a1130.035 1130.035 0 0 0-7.14-20.075c-1.27-3.477-2.086-5.51-2.446-6.097a2.475 2.475 0 0 0-.723-.763c-.44-.28-1.424-.595-2.948-.942v-1.183c3.087.146 5.058.22 5.913.22 1.13 0 2.96-.073 5.47-.22v1.183c-1.59.4-2.526.71-2.8.924-.273.214-.41.475-.41.782 0 .28.28 1.257.842 2.928 2.49 7.552 4.43 13.105 5.822 16.66l5.493-14.774c-.896-2.447-1.5-3.944-1.814-4.493-.315-.548-.64-.923-.974-1.123-.336-.2-1.285-.502-2.85-.903v-1.19c2.487.147 4.412.22 5.775.22 1.423 0 3.285-.072 5.584-.22v1.184l-.723.18c-1.11.215-1.825.45-2.146.703-.2.175-.3.436-.3.783 0 .148.014.29.04.423.08.348.823 2.556 2.227 6.624l4.312 12.263c.923-2.542 2.033-5.795 3.332-9.756l2.994-9.155c.04-.19.06-.356.06-.5 0-.24-.073-.42-.22-.534-.147-.11-1.144-.456-2.99-1.03v-1.184c2.49.146 4.112.22 4.875.22.91 0 2.44-.073 4.593-.22v1.183c-1.525.4-2.475.75-2.85 1.04-.24.2-.47.537-.68 1.005-.35.763-1.913 5.06-4.694 12.897-.08.2-1.553 4.514-4.414 12.937h-1.38l-4.93-13.736c-.442-1.23-1.03-2.772-1.766-4.63-1.777 4.582-4.01 10.705-6.697 18.366zM340.38 238.69h4.855c1.87 0 2.975-.05 3.31-.15.333-.1.604-.305.81-.612s.466-1.196.773-2.667c.04-.14.1-.37.18-.68h1.324c-.147 2.21-.22 3.907-.22 5.098 0 1.23.072 2.915.22 5.054h-1.323c-.39-1.94-.63-3.02-.73-3.25a1.244 1.244 0 0 0-.7-.69c-.334-.14-1.33-.21-2.99-.21h-5.49l.102 11.79h8.402l.742-.02c1.15 0 1.87-.046 2.166-.14a3.326 3.326 0 0 0 1.344-.872c.388-.408 1.104-1.562 2.146-3.46.106-.187.267-.46.48-.822h1.384c-.16.428-.99 2.94-2.487 7.54a448.17 448.17 0 0 0-13.34-.22c-2.81 0-5.91.073-9.308.22v-1.183l3.25-.7c.52-.147.84-.295.962-.44.2-.255.3-.783.3-1.586v-.36l.1-4.714c.014-.91.02-2.693.02-5.354 0-3.865-.013-6.696-.04-8.495-.026-1.798-.093-2.817-.2-3.06a.94.94 0 0 0-.37-.39c-.168-.1-.786-.27-1.855-.512l-2.166-.48v-1.183c2.513.147 5.514.22 9.004.22 1.91 0 6.456-.072 13.636-.22.028 2.313.19 4.6.483 6.86h-1.403c-.536-1.82-.97-3.03-1.305-3.63-.23-.415-.51-.69-.844-.823-.44-.175-1.418-.26-2.93-.26h-8.1l-.14 6.456-.06 3.95zm-250.813-1.765c0-3.175 1.023-5.78 3.07-7.818 2.047-2.037 4.678-3.056 7.89-3.056 2.992 0 5.373.9 7.144 2.7 1.777 1.8 2.66 4.28 2.66 7.44 0 3.503-.994 6.27-2.99 8.297-1.99 2.027-4.614 3.04-7.87 3.04-3.05 0-5.46-.918-7.233-2.757s-2.665-4.454-2.665-7.84zm3.18-.43c0 3.197.7 5.598 2.098 7.2 1.398 1.604 3.167 2.404 5.307 2.404 1.413 0 2.666-.38 3.76-1.12 1.094-.75 1.92-1.84 2.482-3.28s.842-3.03.842-4.773c0-2.188-.357-4.005-1.074-5.448-.716-1.444-1.602-2.48-2.656-3.104-1.056-.624-2.24-.937-3.558-.937-1.44 0-2.734.38-3.876 1.14-1.142.76-1.98 1.86-2.52 3.3s-.805 2.974-.805 4.61zm20.283-9.152v-.856c2.565.106 4.622.16 6.17.16.892 0 1.724-.01 2.498-.03a69.104 69.104 0 0 1 2.135-.058c1.887 0 3.31.44 4.268 1.33.95.9 1.43 2.115 1.43 3.645 0 1.025-.216 1.933-.647 2.722-.43.79-1.053 1.453-1.866 1.995-.59.387-1.433.73-2.527 1.03l4.835 6.3c.602.784.98 1.244 1.134 1.38a3.2 3.2 0 0 0 .94.52c.54.214 1.456.46 2.744.74v.857c-1.53-.107-2.643-.16-3.34-.16-.803 0-1.625.053-2.468.16a60.21 60.21 0 0 0-1.77-2.737c-.747-1.1-1.2-1.75-1.366-1.953a4.92 4.92 0 0 1-.276-.36l-3.194-4.385a26.84 26.84 0 0 1-2.614-.187l.116 7.316c.02.29.106.508.262.653.23.192.958.4 2.178.623.174.028.44.087.798.174v.858a77.74 77.74 0 0 0-4.63-.16 81.21 81.21 0 0 0-4.805.16v-.856l.624-.13c1.38-.26 2.17-.478 2.36-.647s.293-.474.322-.91c.02-.28.043-2.77.072-7.463l-.06-6.823c-.01-1.045-.035-1.646-.078-1.8a.557.557 0 0 0-.284-.35c-.475-.25-1.225-.46-2.25-.623-.156-.03-.393-.076-.713-.143zm6.084 8.884c1.007.106 1.786.16 2.338.16 1.76 0 3.065-.393 3.912-1.18.847-.784 1.27-1.875 1.27-3.27 0-1.222-.374-2.187-1.124-2.895s-1.842-1.062-3.274-1.062c-.513 0-1.524.06-3.034.175l-.088 8.072zm33.816 7.333l.61 1.103c-1.556.978-3.05 1.698-4.48 2.163-1.43.464-2.908.696-4.435.696-1.942 0-3.706-.442-5.29-1.328s-2.786-2.14-3.604-3.76c-.81-1.62-1.22-3.42-1.22-5.394 0-3.224 1.05-5.86 3.15-7.913 2.105-2.052 4.885-3.077 8.345-3.077 2.127 0 4.494.436 7.104 1.307-.02.852-.03 1.49-.03 1.916 0 1.24.073 2.54.22 3.905h-1.22c-.36-1.693-.74-2.86-1.148-3.5s-1.064-1.147-1.974-1.53c-.908-.382-2.03-.573-3.364-.573-2.803 0-4.915.997-6.336 2.99-1.103 1.56-1.654 3.514-1.654 5.865 0 2.808.775 5.02 2.327 6.643 1.553 1.62 3.585 2.432 6.1 2.432 1.083 0 2.137-.14 3.16-.42 1.027-.283 2.274-.79 3.745-1.526zm8.93-7.986h3.515c1.355 0 2.153-.036 2.396-.108.248-.073.44-.22.59-.443s.34-.866.56-1.93c.03-.107.076-.272.13-.494h.96c-.104 1.59-.16 2.82-.16 3.682 0 .89.056 2.11.16 3.658h-.96c-.28-1.402-.45-2.187-.52-2.35a.912.912 0 0 0-.51-.5c-.24-.103-.96-.153-2.16-.153h-3.98l.075 8.535h6.084l.536-.015c.833 0 1.355-.032 1.568-.1a2.41 2.41 0 0 0 .974-.633c.28-.295.8-1.13 1.555-2.504.077-.134.193-.332.35-.594h1c-.115.31-.716 2.13-1.8 5.46a320.02 320.02 0 0 0-9.654-.16c-2.03 0-4.278.053-6.736.16v-.857l2.353-.51c.378-.107.61-.214.697-.32.145-.184.217-.566.217-1.147v-.26l.074-3.413c.01-.656.015-1.95.015-3.874 0-2.797-.01-4.847-.03-6.148s-.067-2.04-.145-2.217a.69.69 0 0 0-.27-.28c-.12-.07-.566-.194-1.34-.37l-1.567-.35v-.853c1.82.106 3.992.16 6.52.16 1.383 0 4.674-.054 9.87-.16.02 1.674.137 3.33.35 4.965h-1.017c-.386-1.315-.7-2.19-.942-2.627-.165-.3-.368-.498-.61-.595-.318-.128-1.025-.19-2.12-.19h-5.864l-.103 4.674-.045 2.86zm27.792-3.542h-1.104c-.252-1.243-.537-2.15-.856-2.724-.32-.573-.807-1.022-1.46-1.348s-1.386-.487-2.2-.487c-1.15 0-2.067.32-2.75.96s-1.023 1.414-1.023 2.324c0 .805.28 1.507.84 2.107.55.6 1.9 1.36 4.04 2.276s3.605 1.864 4.38 2.843c.763.99 1.145 2.1 1.145 3.33a5.843 5.843 0 0 1-.864 3.082c-.575.95-1.44 1.71-2.6 2.275a8.382 8.382 0 0 1-3.737.85c-.91 0-1.82-.086-2.736-.26-.916-.175-2.01-.475-3.29-.9.146-1.364.22-3.175.22-5.43h1.117c.318 1.452.65 2.468.992 3.05s.86 1.057 1.56 1.43c.693.372 1.457.56 2.29.56 1.14 0 2.14-.32 3-.96.86-.64 1.29-1.535 1.29-2.688 0-.94-.31-1.772-.93-2.5-.63-.716-1.99-1.527-4.088-2.433s-3.498-1.78-4.205-2.61c-.707-.82-1.06-1.806-1.06-2.946 0-.997.284-1.947.855-2.852s1.41-1.62 2.52-2.147a7.946 7.946 0 0 1 3.448-.79c1.433 0 3.165.344 5.198 1.03a108.43 108.43 0 0 0-.072 2.556c0 .59.024 1.39.072 2.396zm5.04.116h-1.117c.184-1.685.348-3.572.493-5.662 4.284.106 7.34.16 9.168.16 1.52 0 4.284-.054 8.298-.16.125 2.158.27 4.046.435 5.662h-1.09c-.458-1.77-.75-2.81-.888-3.114-.136-.305-.33-.522-.587-.653s-.906-.19-1.95-.19h-3.215c-.077 2.575-.115 5.76-.115 9.553 0 3.523.037 5.904.115 7.144.02.29.093.488.22.595.163.136.962.344 2.394.624.135.02.338.064.61.132v.856a93.847 93.847 0 0 0-5.126-.16 61.6 61.6 0 0 0-4.37.16v-.855a9.64 9.64 0 0 1 .77-.175c1.325-.222 2.09-.41 2.293-.565a.71.71 0 0 0 .2-.327c.04-.14.08-1.21.106-3.214.04-3.1.06-5.393.06-6.883 0-2.603-.02-4.896-.06-6.88h-3.455l-.624.014c-.55 0-.914.06-1.09.176-.27.164-.512.513-.725 1.045-.163.406-.415 1.316-.754 2.73zm25.134 3.426h3.514c1.354 0 2.153-.036 2.396-.108.24-.073.438-.22.588-.443.15-.223.336-.866.56-1.93.028-.107.07-.272.13-.494h.958c-.106 1.59-.16 2.82-.16 3.682 0 .89.054 2.11.16 3.658h-.958c-.28-1.402-.455-2.187-.522-2.35-.098-.23-.267-.4-.51-.5s-.962-.153-2.162-.153h-3.978l.072 8.535h6.083l.537-.015c.832 0 1.355-.032 1.568-.1a2.41 2.41 0 0 0 .973-.633c.28-.295.798-1.13 1.554-2.504.07-.134.19-.332.342-.594h1.002c-.117.31-.717 2.13-1.8 5.46a320.19 320.19 0 0 0-9.656-.16c-2.03 0-4.277.053-6.736.16v-.857l2.353-.51c.377-.107.61-.214.696-.32.147-.184.22-.566.22-1.147v-.26l.073-3.413c.01-.656.015-1.95.015-3.874 0-2.797-.01-4.847-.03-6.148s-.068-2.04-.146-2.217a.677.677 0 0 0-.27-.28c-.12-.07-.567-.194-1.342-.37l-1.568-.35v-.853c1.82.106 3.993.16 6.52.16 1.384 0 4.674-.054 9.872-.16.02 1.674.134 3.33.347 4.965h-1.015c-.387-1.315-.7-2.19-.942-2.627-.166-.3-.37-.498-.61-.595-.32-.128-1.027-.19-2.12-.19h-5.865l-.1 4.674-.047 2.86zm14.522-8.23v-.857c2.564.106 4.62.16 6.17.16.89 0 1.723-.01 2.497-.03a69.063 69.063 0 0 1 2.134-.058c1.882 0 3.31.44 4.263 1.33.948.9 1.423 2.115 1.423 3.645 0 1.025-.216 1.933-.646 2.722s-1.052 1.453-1.865 1.995c-.593.387-1.436.73-2.53 1.03l4.837 6.3c.6.784.978 1.244 1.132 1.38.24.202.556.377.943.52.542.214 1.457.46 2.744.74v.857c-1.53-.107-2.64-.16-3.34-.16-.8 0-1.623.053-2.465.16-.435-.727-1.025-1.64-1.77-2.737s-1.2-1.75-1.364-1.953a4.667 4.667 0 0 1-.274-.36l-3.193-4.385a27.092 27.092 0 0 1-2.613-.187l.115 7.316c.02.29.105.508.26.653.233.192.96.4 2.18.623.174.028.44.087.798.174v.858a77.77 77.77 0 0 0-4.632-.16 81.09 81.09 0 0 0-4.803.16v-.856l.626-.13c1.384-.26 2.17-.478 2.36-.647.187-.17.296-.474.325-.91.02-.28.044-2.77.072-7.463l-.06-6.823c-.01-1.045-.035-1.646-.08-1.8a.55.55 0 0 0-.282-.35c-.473-.25-1.224-.46-2.25-.623a43.49 43.49 0 0 1-.71-.143zm6.083 8.883c1.01.106 1.79.16 2.34.16 1.76 0 3.068-.393 3.916-1.18.848-.784 1.27-1.875 1.27-3.27 0-1.222-.374-2.187-1.124-2.895s-1.84-1.062-3.273-1.062c-.515 0-1.525.06-3.035.175l-.09 8.072zm29.32-4.195h-1.105c-.25-1.243-.535-2.15-.854-2.724s-.806-1.022-1.46-1.348-1.386-.487-2.2-.487c-1.15 0-2.07.32-2.75.96-.682.64-1.023 1.414-1.023 2.324 0 .805.28 1.507.842 2.107.55.6 1.9 1.36 4.044 2.276s3.603 1.864 4.377 2.843c.764.99 1.146 2.1 1.146 3.33a5.835 5.835 0 0 1-.864 3.082c-.575.95-1.44 1.71-2.6 2.275a8.374 8.374 0 0 1-3.74.85 14.6 14.6 0 0 1-2.732-.26c-.915-.175-2.01-.475-3.29-.9.147-1.364.22-3.175.22-5.43h1.117c.32 1.452.65 2.468.993 3.05s.862 1.057 1.558 1.43a4.77 4.77 0 0 0 2.29.56c1.14 0 2.14-.32 3-.96.86-.64 1.29-1.535 1.29-2.688 0-.94-.31-1.772-.928-2.5-.63-.716-1.992-1.527-4.087-2.433-2.097-.91-3.5-1.78-4.204-2.61-.708-.82-1.06-1.806-1.06-2.946 0-.997.284-1.947.855-2.852.57-.904 1.41-1.62 2.52-2.147a7.954 7.954 0 0 1 3.45-.79c1.43 0 3.163.344 5.195 1.03-.05 1.413-.072 2.265-.072 2.556 0 .59.023 1.39.07 2.396zm20.53 3.745l-.014-1.03-.015-3.122-.03-2.715c-.01-.406-.067-.657-.173-.755-.155-.164-.533-.29-1.133-.377l-1.96-.436v-.856c2.23.106 3.84.16 4.836.16 1.09 0 2.6-.054 4.53-.16v.856c-1.59.33-2.488.537-2.69.624s-.337.184-.404.29c-.106.175-.164.707-.174 1.598-.02 1.45-.03 3.94-.03 7.462l.06 6.882v.406c0 .455.08.745.247.87.27.204 1.274.456 3.02.756v.856c-2.66-.106-4.35-.16-5.07-.16a72.13 72.13 0 0 0-4.356.16v-.856l2.67-.595a.83.83 0 0 0 .378-.29c.137-.204.21-.586.22-1.147l.072-6.823c-2.55-.05-4.502-.073-5.86-.073-1.463 0-3.01.024-4.637.073l.042 7.012c0 .504.05.823.146.958.095.136.346.262.75.378.097.03.887.198 2.37.508v.86c-2.36-.104-4.025-.16-5-.16-1.21 0-2.674.056-4.394.16v-.854a81.96 81.96 0 0 1 2.338-.492c.388-.067.635-.164.74-.29.146-.164.22-.51.22-1.03.03-1.85.043-4.49.043-7.927l-.072-7.187v-.466c0-.34-.053-.572-.163-.703-.11-.13-.346-.24-.7-.324l-2.4-.464v-.855a93.48 93.48 0 0 0 4.9.16 70.37 70.37 0 0 0 4.52-.16v.855l-2.45.48c-.312.076-.525.185-.642.325-.118.14-.177.39-.177.75l-.07 6.88c1.494.03 3.07.044 4.73.044a342 342 0 0 0 5.78-.046zm17.54-9.29v.855c-.34.077-.59.13-.755.16-1.287.222-2.032.433-2.235.63s-.308.643-.308 1.33v.508l-.07 5.836.044 8.48c0 .677.1 1.107.298 1.29.2.186.88.345 2.04.48.223.028.547.087.973.174v.856c-1.56-.106-3.06-.16-4.5-.16-1.49 0-3.127.054-4.907.16v-.856a5.43 5.43 0 0 1 .64-.146c1.374-.222 2.16-.428 2.36-.616.197-.19.297-.666.297-1.43l-.03-.727.044-5.322c0-5.48-.01-8.508-.04-9.088-.02-.32-.123-.567-.31-.74-.19-.176-.92-.384-2.19-.626a26.83 26.83 0 0 1-.767-.187v-.856c2.105.107 3.747.16 4.93.16a71.2 71.2 0 0 0 4.49-.16zm1.993.856v-.856c2.565.106 4.62.16 6.17.16.89 0 1.724-.01 2.498-.03a69.14 69.14 0 0 1 2.135-.058c1.89 0 3.313.44 4.27 1.33.95.9 1.424 2.115 1.424 3.645 0 1.025-.217 1.933-.647 2.722s-1.053 1.453-1.866 1.995c-.59.387-1.433.73-2.526 1.03l4.837 6.3c.6.784.978 1.244 1.133 1.38a3.2 3.2 0 0 0 .94.52c.543.214 1.458.46 2.746.74v.857c-1.528-.107-2.642-.16-3.34-.16-.802 0-1.625.053-2.467.16-.438-.727-1.028-1.64-1.77-2.737s-1.2-1.75-1.367-1.953a5.227 5.227 0 0 1-.275-.36l-3.194-4.385a27.092 27.092 0 0 1-2.614-.187l.117 7.316c.02.29.104.508.26.653.232.192.96.4 2.18.623.173.028.44.087.797.174v.858a77.77 77.77 0 0 0-4.632-.16 81.09 81.09 0 0 0-4.805.16v-.856l.625-.13c1.383-.26 2.17-.478 2.36-.647.186-.17.295-.474.324-.91.02-.28.042-2.77.07-7.463l-.058-6.823c-.01-1.045-.036-1.646-.08-1.8a.55.55 0 0 0-.283-.35c-.475-.25-1.226-.46-2.25-.623a35.54 35.54 0 0 1-.714-.143zm6.084 8.884c1.006.106 1.785.16 2.337.16 1.763 0 3.067-.393 3.914-1.18.847-.784 1.27-1.875 1.27-3.27 0-1.222-.375-2.187-1.124-2.895-.753-.708-1.844-1.062-3.276-1.062-.514 0-1.524.06-3.034.175l-.087 8.072z"/></svg>