<svg xmlns="http://www.w3.org/2000/svg" width="402" height="401.567" viewBox="0 0 402 401.567"><path fill="#D9D9D6" stroke="#D9D9D6" stroke-width="5" stroke-miterlimit="10" d="M279.296 133.462H263.96c-3.5-17.272-7.467-29.89-11.906-37.855-4.44-7.96-11.2-14.205-20.28-18.726-9.08-4.52-19.27-6.78-30.572-6.78-16.01 0-28.755 4.446-38.24 13.334s-14.226 19.662-14.226 32.322c0 11.177 3.897 20.942 11.697 29.292 7.662 8.35 26.403 18.896 56.225 31.638 29.818 12.74 50.102 25.914 60.848 39.52 10.61 13.744 15.916 29.172 15.916 46.28 0 15.36-4.004 29.642-12.007 42.844-8.005 13.203-20.047 23.744-36.12 31.627-16.078 7.88-33.397 11.82-51.962 11.82-12.647 0-25.325-1.21-38.038-3.632-12.714-2.422-27.95-6.59-45.707-12.512 2.02-18.97 3.027-44.123 3.027-75.47h15.538c4.433 20.18 9.033 34.304 13.8 42.376 4.77 8.07 11.985 14.697 21.66 19.874 9.67 5.18 20.28 7.77 31.832 7.77 15.847 0 29.75-4.442 41.705-13.328 11.953-8.885 17.93-21.34 17.93-37.363 0-13.06-4.306-24.638-12.913-34.733-8.747-9.963-27.68-21.238-56.806-33.825-29.125-12.587-48.6-24.663-58.417-36.225-9.82-11.427-14.73-25.07-14.73-40.933 0-13.845 3.966-27.053 11.905-39.62 7.937-12.57 19.605-22.514 35.012-29.84 15.4-7.33 31.378-10.992 47.925-10.992 19.908 0 43.99 4.777 72.242 14.327-.675 19.644-1.01 31.48-1.01 35.516 0 8.206.334 19.304 1.01 33.294z"/><g fill="#872042"><path d="M82.238 163.48h-3.34c-.762-3.76-1.625-6.51-2.592-8.244-.967-1.734-2.44-3.094-4.416-4.078-1.98-.985-4.197-1.477-6.658-1.477-3.486 0-6.262.97-8.328 2.906-2.064 1.936-3.098 4.282-3.098 7.04 0 2.434.848 4.56 2.547 6.378 1.668 1.818 5.75 4.115 12.244 6.89s10.91 5.644 13.252 8.606c2.31 2.992 3.463 6.352 3.463 10.078 0 3.346-.87 6.455-2.613 9.33-1.743 2.876-4.366 5.17-7.866 6.888-3.502 1.716-7.273 2.574-11.316 2.574a44.29 44.29 0 0 1-8.283-.79c-2.768-.528-6.086-1.437-9.953-2.726.44-4.13.658-9.61.658-16.436h3.385c.965 4.395 1.967 7.47 3.006 9.23 1.04 1.757 2.61 3.2 4.717 4.328 2.107 1.128 4.418 1.69 6.934 1.69 3.45 0 6.48-.967 9.083-2.9 2.604-1.937 3.904-4.648 3.904-8.138 0-2.844-.938-5.366-2.812-7.564-1.904-2.17-6.027-4.625-12.37-7.366-6.343-2.74-10.583-5.37-12.722-7.89-2.14-2.487-3.21-5.458-3.21-8.913 0-3.015.866-5.892 2.595-8.628s4.27-4.903 7.625-6.5c3.354-1.595 6.832-2.393 10.436-2.393 4.335 0 9.58 1.04 15.73 3.12-.145 4.278-.22 6.855-.22 7.734 0 1.79.073 4.206.22 7.252zm21.807 21.033h7.443c2.87 0 4.562-.077 5.076-.23a2.256 2.256 0 0 0 1.246-.938c.318-.472.713-1.835 1.184-4.09.062-.227.154-.575.277-1.047h2.033c-.227 3.384-.34 5.988-.34 7.813 0 1.89.113 4.473.34 7.753h-2.03c-.597-2.973-.966-4.634-1.108-4.983a1.92 1.92 0 0 0-1.076-1.062c-.515-.216-2.04-.323-4.585-.323h-8.428l.152 18.088h12.89l1.137-.03c1.764 0 2.87-.072 3.322-.216a5.093 5.093 0 0 0 2.06-1.338c.595-.628 1.69-2.397 3.29-5.31.166-.286.41-.706.74-1.26h2.123c-.246.656-1.52 4.512-3.814 11.565-7.468-.226-14.286-.338-20.458-.338-4.306 0-9.063.112-14.272.338v-1.814l4.982-1.075c.8-.226 1.293-.45 1.477-.678.31-.39.462-1.2.462-2.43v-.554l.152-7.23c.02-1.393.03-4.13.03-8.212 0-5.925-.02-10.27-.06-13.026-.043-2.758-.145-4.322-.31-4.69a1.453 1.453 0 0 0-.567-.6c-.258-.155-1.205-.417-2.846-.786l-3.322-.74v-1.814c3.855.226 8.46.338 13.812.338 2.93 0 9.903-.112 20.917-.338a88.63 88.63 0 0 0 .738 10.52h-2.154c-.82-2.788-1.484-4.644-2-5.567-.346-.636-.777-1.057-1.29-1.262-.677-.266-2.173-.4-4.49-.4h-12.43l-.215 9.905-.09 6.06zm57.31-7.506h-2.34c-.532-2.633-1.14-4.557-1.813-5.77-.678-1.215-1.707-2.167-3.092-2.856-1.385-.687-2.938-1.032-4.66-1.032-2.44 0-4.385.678-5.83 2.033s-2.168 2.998-2.168 4.928c0 1.704.594 3.192 1.783 4.465 1.168 1.272 4.025 2.88 8.57 4.823s7.64 3.95 9.275 6.024c1.617 2.094 2.426 4.446 2.426 7.054 0 2.342-.61 4.52-1.83 6.53-1.22 2.014-3.055 3.62-5.506 4.822s-5.092 1.803-7.922 1.803c-1.928 0-3.86-.188-5.797-.557-1.937-.37-4.26-1.004-6.967-1.906.31-2.893.46-6.727.46-11.506h2.37c.676 3.077 1.377 5.23 2.104 6.46s1.828 2.24 3.303 3.03c1.474.79 3.09 1.186 4.85 1.186 2.417 0 4.536-.677 6.358-2.03s2.734-3.255 2.734-5.697c0-1.99-.656-3.757-1.97-5.296-1.333-1.52-4.218-3.237-8.66-5.156-4.438-1.92-7.407-3.76-8.903-5.523-1.5-1.742-2.248-3.82-2.248-6.24 0-2.11.605-4.124 1.814-6.04 1.21-1.916 2.988-3.432 5.338-4.55 2.348-1.116 4.783-1.675 7.305-1.675 3.034 0 6.706.728 11.013 2.184-.104 2.995-.154 4.8-.154 5.414 0 1.252.05 2.944.153 5.077zm34.76 0h-2.338c-.535-2.633-1.14-4.557-1.816-5.77-.674-1.215-1.705-2.167-3.09-2.856-1.383-.687-2.94-1.032-4.66-1.032-2.44 0-4.383.678-5.83 2.033-1.445 1.356-2.17 2.998-2.17 4.928 0 1.704.596 3.192 1.785 4.465 1.168 1.272 4.025 2.88 8.572 4.823 4.545 1.942 7.637 3.95 9.275 6.024 1.618 2.094 2.427 4.446 2.427 7.054 0 2.342-.61 4.52-1.83 6.53-1.22 2.014-3.058 3.62-5.507 4.822-2.45 1.2-5.09 1.803-7.92 1.803-1.93 0-3.862-.188-5.8-.557s-4.26-1.004-6.967-1.906c.307-2.893.46-6.727.46-11.506h2.37c.676 3.077 1.377 5.23 2.104 6.46s1.826 2.24 3.3 3.03c1.476.79 3.093 1.186 4.855 1.186 2.416 0 4.535-.677 6.357-2.03s2.733-3.255 2.733-5.697c0-1.99-.658-3.757-1.97-5.296-1.333-1.52-4.22-3.237-8.66-5.156-4.44-1.92-7.407-3.76-8.905-5.523-1.496-1.742-2.244-3.82-2.244-6.24 0-2.11.604-4.124 1.814-6.04 1.21-1.916 2.988-3.432 5.336-4.55 2.35-1.116 4.785-1.675 7.307-1.675 3.036 0 6.708.728 11.015 2.184-.104 2.995-.154 4.8-.154 5.414 0 1.252.052 2.944.155 5.077zm27.008-11.75v1.814c-.72.167-1.252.28-1.6.34-2.73.47-4.307.918-4.738 1.338-.43.42-.645 1.36-.645 2.815v1.077l-.154 12.365.092 17.965c0 1.436.21 2.35.63 2.737.42.39 1.862.73 4.323 1.016.473.062 1.16.185 2.063.37v1.813c-3.3-.226-6.48-.338-9.535-.338-3.158 0-6.625.112-10.398.338v-1.814c.595-.164 1.046-.267 1.353-.308 2.912-.472 4.578-.907 5-1.308.42-.4.63-1.41.63-3.03l-.062-1.538.094-11.29c0-11.606-.03-18.025-.092-19.256-.04-.677-.26-1.2-.657-1.57s-1.945-.81-4.64-1.322a54.194 54.194 0 0 1-1.624-.4v-1.815c4.457.226 7.938.338 10.445.338 2.792 0 5.966-.11 9.52-.337zm4.397 22.117c0-6.726 2.17-12.248 6.507-16.565 4.338-4.32 9.91-6.478 16.72-6.478 6.337 0 11.382 1.907 15.134 5.722 3.756 3.814 5.633 9.064 5.633 15.75 0 7.424-2.113 13.284-6.338 17.58-4.225 4.297-9.78 6.445-16.672 6.445-6.46 0-11.572-1.95-15.336-5.847-3.764-3.895-5.645-9.432-5.645-16.61zm6.738-.908c0 6.772 1.482 11.857 4.445 15.254 2.965 3.397 6.71 5.095 11.244 5.095 2.994 0 5.65-.79 7.967-2.37 2.318-1.58 4.07-3.895 5.26-6.942 1.19-3.047 1.785-6.42 1.785-10.113 0-4.638-.76-8.487-2.28-11.544-1.517-3.058-3.392-5.25-5.63-6.573-2.232-1.324-4.746-1.985-7.535-1.985-3.055 0-5.793.806-8.213 2.417-2.42 1.61-4.2 3.94-5.336 6.99-1.14 3.044-1.71 6.302-1.71 9.77zm40.207-19.396v-1.814c2.598.226 4.643.338 6.137.338 1.207 0 3.365-.112 6.475-.338l8.736 10.92c.8.964 6.973 8.44 18.52 22.425.02-2.87.03-4.95.03-6.242 0-3.056-.093-8.645-.276-16.766-.082-3.793-.18-5.854-.293-6.182-.113-.328-.35-.625-.707-.892-.36-.266-1.79-.635-4.29-1.107a24.12 24.12 0 0 1-1.446-.34v-1.813c3.65.226 6.553.338 8.707.338 2.092 0 4.982-.112 8.674-.338v1.815a13.63 13.63 0 0 1-1.23.278c-2.747.574-4.274.954-4.58 1.138a1.427 1.427 0 0 0-.556.554c-.205.328-.35.943-.43 1.846-.02.39-.068 3.184-.14 8.382-.07 5.2-.106 10.23-.106 15.09 0 5.74.102 10.592.307 14.55l-2 .923-12.826-15.937-16.83-20.246.155 18.185c.102 7.958.215 12.204.338 12.738.082.37.268.687.555.953.45.41 1.98.842 4.584 1.292.308.042.77.134 1.384.277v1.814c-3.137-.227-5.783-.34-7.936-.34-1.805 0-4.953.113-9.443.34v-1.815a416.7 416.7 0 0 1 1.63-.37c2.46-.43 3.886-.83 4.276-1.198.226-.186.39-.503.493-.954.203-.943.348-4.512.43-10.705.102-8.777.154-13.966.154-15.565 0-5.147-.072-8.008-.215-8.583-.084-.41-.35-.753-.8-1.03-.452-.277-2.39-.703-5.815-1.277a35.05 35.05 0 0 1-1.662-.34zm80.533 9.937h-2.338c-.533-2.633-1.14-4.557-1.814-5.77-.678-1.215-1.707-2.167-3.092-2.856-1.385-.687-2.938-1.032-4.66-1.032-2.44 0-4.385.678-5.83 2.033s-2.168 2.998-2.168 4.928c0 1.704.594 3.192 1.783 4.465 1.166 1.272 4.023 2.88 8.57 4.823s7.637 3.95 9.273 6.024c1.617 2.094 2.426 4.446 2.426 7.054 0 2.342-.61 4.52-1.83 6.53-1.22 2.014-3.056 3.62-5.507 4.822s-5.092 1.803-7.922 1.803c-1.927 0-3.86-.188-5.796-.557-1.94-.37-4.262-1.004-6.97-1.906.31-2.893.462-6.727.462-11.506h2.37c.675 3.077 1.376 5.23 2.103 6.46s1.827 2.24 3.302 3.03c1.475.79 3.092 1.186 4.852 1.186 2.416 0 4.535-.677 6.357-2.03s2.735-3.255 2.735-5.697c0-1.99-.656-3.757-1.97-5.296-1.333-1.52-4.218-3.237-8.66-5.156-4.438-1.92-7.407-3.76-8.903-5.523-1.498-1.742-2.246-3.82-2.246-6.24 0-2.11.605-4.124 1.814-6.04 1.212-1.916 2.99-3.432 5.34-4.55 2.347-1.116 4.782-1.675 7.304-1.675 3.035 0 6.707.728 11.014 2.184-.104 2.995-.154 4.8-.154 5.414 0 1.252.05 2.944.154 5.077z"/><path d="M241.04 190.604c0-.923.183-1.8.548-2.63a7.41 7.41 0 0 1 1.45-2.178c.597-.62 1.24-1.096 1.927-1.427s1.326-.5 1.918-.5c.71 0 1.264.21 1.654.63s.652.896.787 1.43c.135.538.2 1.034.2 1.49a6.15 6.15 0 0 1-.532 2.544 7.304 7.304 0 0 1-1.434 2.113 6.844 6.844 0 0 1-1.943 1.427c-.697.334-1.357.502-1.977.502-.902 0-1.56-.353-1.977-1.057a4.53 4.53 0 0 1-.62-2.347zm1.69-.168c0 .62.127 1.21.38 1.765.253.56.726.837 1.417.837.61 0 1.172-.27 1.68-.813.508-.542.908-1.25 1.205-2.124a8.308 8.308 0 0 0 .443-2.675c0-.585-.102-1.17-.307-1.76-.205-.588-.666-.882-1.385-.882-.62 0-1.19.312-1.717.936-.525.62-.94 1.384-1.252 2.285-.31.9-.464 1.71-.464 2.43zm8.614-5.39l.105-.476a20.5 20.5 0 0 0 1.572-.518c.24-.916.447-1.616.623-2.103s.393-.91.65-1.27.615-.737 1.072-1.13c.986-.84 1.986-1.26 3.002-1.26.38 0 .71.048.99.144.284.095.55.213.806.354-.184.45-.307.768-.37.95-.063.184-.15.5-.255.95l-.56-.04a2.467 2.467 0 0 0-.31-1.03c-.174-.294-.53-.44-1.072-.44-.333 0-.632.1-.9.297s-.505.482-.712.855a8.39 8.39 0 0 0-.56 1.252 37.237 37.237 0 0 0-.65 2.077c0 .077-.044.243-.128.496.564.015 1.328 0 2.293-.042l.106.148c-.197.288-.36.57-.496.845a39.776 39.776 0 0 0-2.135-.084 585.887 585.887 0 0 0-1.193 4.48 97.8 97.8 0 0 1-.967 3.456c-.293.957-.56 1.7-.805 2.23-.242.526-.506.956-.79 1.287s-.646.65-1.075.962c-.738.534-1.426.802-2.06.802-.317 0-.58-.042-.792-.127a3.99 3.99 0 0 1-.74-.412c.205-.28.36-.518.47-.708s.228-.43.355-.72h.21c.177.262.355.465.53.61.176.143.44.215.79.215.552 0 .985-.267 1.302-.802s.662-1.483 1.035-2.843c.14-.465.314-1.116.518-1.955.205-.838.666-2.762 1.385-5.77.014-.035.04-.138.08-.307a6.63 6.63 0 0 1 .1-.4c-.422.016-.9.023-1.426.023z"/></g><path fill="#872042" d="M60.596 255.195h-1.443a1130.035 1130.035 0 0 0-7.14-20.075c-1.27-3.477-2.086-5.51-2.446-6.097a2.475 2.475 0 0 0-.723-.763c-.44-.28-1.424-.595-2.948-.942v-1.183c3.087.146 5.058.22 5.913.22 1.134 0 2.96-.073 5.472-.22v1.183c-1.59.4-2.524.71-2.798.924-.273.214-.41.475-.41.782 0 .28.28 1.257.842 2.928 2.49 7.552 4.43 13.105 5.822 16.66l5.493-14.774c-.895-2.447-1.5-3.944-1.813-4.493-.315-.548-.64-.923-.974-1.123-.335-.2-1.284-.502-2.85-.903v-1.185c2.488.146 4.413.22 5.776.22 1.424 0 3.286-.073 5.585-.22v1.183l-.722.18c-1.11.215-1.825.45-2.146.703-.2.176-.3.437-.3.784 0 .147.013.288.04.422.08.348.822 2.556 2.226 6.624l4.312 12.264c.924-2.542 2.034-5.795 3.333-9.756l2.994-9.155c.04-.187.06-.354.06-.5 0-.24-.073-.42-.22-.532-.147-.112-1.144-.457-2.99-1.032v-1.183c2.488.146 4.112.22 4.875.22.908 0 2.44-.073 4.592-.22v1.183c-1.525.4-2.475.75-2.85 1.043-.24.2-.47.536-.68 1.004-.35.762-1.913 5.06-4.694 12.896-.08.2-1.552 4.513-4.413 12.936H73.99l-4.93-13.736c-.442-1.23-1.03-2.773-1.766-4.632-1.778 4.583-4.01 10.706-6.698 18.367zM340.38 238.69h4.855c1.87 0 2.975-.05 3.31-.15.333-.1.604-.305.81-.612s.466-1.196.773-2.667c.04-.145.1-.372.18-.68h1.324c-.147 2.205-.22 3.903-.22 5.094 0 1.23.072 2.915.22 5.054h-1.323c-.39-1.938-.63-3.02-.725-3.25a1.244 1.244 0 0 0-.7-.69c-.335-.14-1.332-.21-2.99-.21H340.4l.102 11.79h8.402l.742-.02c1.15 0 1.87-.046 2.166-.14a3.326 3.326 0 0 0 1.344-.872c.388-.408 1.104-1.562 2.146-3.46.106-.187.267-.46.48-.822h1.384c-.16.428-.99 2.94-2.487 7.54-4.868-.146-9.314-.22-13.338-.22-2.808 0-5.91.073-9.306.22v-1.183l3.25-.7c.52-.147.84-.295.962-.44.2-.255.3-.783.3-1.586v-.36l.1-4.713c.014-.91.02-2.693.02-5.354 0-3.863-.013-6.694-.04-8.493-.026-1.798-.093-2.817-.2-3.06a.94.94 0 0 0-.37-.39c-.168-.1-.786-.27-1.855-.512l-2.166-.48v-1.183c2.513.146 5.514.22 9.004.22 1.913 0 6.458-.073 13.638-.22.028 2.312.19 4.6.483 6.858h-1.403c-.536-1.818-.97-3.028-1.305-3.63-.228-.414-.51-.688-.843-.822-.44-.174-1.417-.26-2.93-.26h-8.1l-.14 6.457-.06 3.95zM89.567 236.924c0-3.174 1.023-5.78 3.07-7.818s4.678-3.056 7.89-3.056c2.992 0 5.373.9 7.144 2.7 1.773 1.8 2.66 4.278 2.66 7.434 0 3.503-.998 6.27-2.99 8.297-1.995 2.03-4.618 3.044-7.87 3.044-3.05 0-5.46-.92-7.237-2.758s-2.665-4.453-2.665-7.84zm3.18-.428c0 3.197.7 5.597 2.098 7.2s3.167 2.404 5.307 2.404c1.413 0 2.666-.373 3.76-1.12 1.094-.745 1.92-1.837 2.482-3.275.562-1.438.842-3.03.842-4.773 0-2.19-.357-4.005-1.074-5.448-.716-1.443-1.602-2.478-2.656-3.103-1.056-.623-2.24-.935-3.558-.935-1.44 0-2.734.38-3.876 1.14s-1.98 1.86-2.52 3.3-.805 2.975-.805 4.612zm20.283-9.154v-.856c2.565.106 4.622.16 6.17.16.892 0 1.724-.01 2.498-.03a65.955 65.955 0 0 1 2.135-.057c1.887 0 3.31.443 4.268 1.333.95.9 1.425 2.115 1.425 3.645 0 1.025-.215 1.933-.646 2.722-.43.79-1.054 1.455-1.867 1.997-.59.387-1.433.73-2.527 1.03l4.836 6.3c.602.784.98 1.244 1.134 1.38.242.202.557.376.943.52.542.214 1.456.46 2.744.74v.857c-1.53-.106-2.643-.16-3.34-.16-.803 0-1.625.053-2.468.16a60.723 60.723 0 0 0-1.77-2.737c-.747-1.098-1.2-1.75-1.366-1.953a4.937 4.937 0 0 1-.275-.363l-3.194-4.383a26.828 26.828 0 0 1-2.613-.19l.116 7.318c.02.29.106.508.262.653.23.194.958.402 2.178.625.174.03.44.087.798.174v.855a77.816 77.816 0 0 0-4.63-.16c-1.433 0-3.034.053-4.806.16v-.856l.624-.132c1.384-.26 2.17-.477 2.36-.646.187-.17.297-.472.326-.907.02-.28.043-2.767.072-7.46l-.06-6.824c-.01-1.045-.035-1.646-.078-1.8a.557.557 0 0 0-.283-.35c-.475-.25-1.225-.458-2.25-.623-.156-.03-.393-.077-.713-.145zm6.084 8.886c1.007.106 1.786.16 2.338.16 1.76 0 3.065-.393 3.912-1.178.847-.785 1.27-1.876 1.27-3.272 0-1.222-.374-2.187-1.124-2.894-.75-.708-1.842-1.062-3.274-1.062-.513 0-1.524.06-3.034.175l-.088 8.07zm33.816 7.332l.61 1.103c-1.556.978-3.05 1.698-4.48 2.163a14.28 14.28 0 0 1-4.435.697c-1.942 0-3.706-.443-5.29-1.33a8.703 8.703 0 0 1-3.604-3.76c-.814-1.62-1.223-3.418-1.223-5.393 0-3.223 1.05-5.86 3.152-7.913 2.102-2.052 4.882-3.078 8.342-3.078 2.127 0 4.494.434 7.104 1.305-.02.852-.03 1.49-.03 1.917 0 1.24.074 2.54.22 3.905h-1.22c-.358-1.694-.74-2.86-1.147-3.5s-1.064-1.148-1.974-1.53c-.908-.383-2.03-.574-3.364-.574-2.805 0-4.917.997-6.338 2.99-1.103 1.56-1.654 3.514-1.654 5.866 0 2.806.776 5.02 2.328 6.64 1.553 1.62 3.585 2.433 6.1 2.433 1.083 0 2.137-.14 3.16-.42 1.027-.28 2.274-.79 3.745-1.525zm8.93-7.986h3.515c1.355 0 2.153-.037 2.396-.11.244-.072.44-.22.59-.442s.336-.866.56-1.93c.03-.107.072-.272.13-.494h.96c-.108 1.597-.16 2.826-.16 3.688 0 .89.052 2.11.16 3.658h-.96c-.28-1.403-.455-2.187-.52-2.352a.912.912 0 0 0-.51-.5c-.24-.103-.964-.153-2.163-.153h-3.98l.074 8.535h6.084l.537-.015c.833 0 1.355-.033 1.568-.1a2.41 2.41 0 0 0 .973-.633c.28-.295.8-1.13 1.555-2.504.077-.136.193-.334.35-.596h1c-.115.31-.716 2.13-1.8 5.46-3.522-.107-6.74-.16-9.654-.16-2.03 0-4.277.052-6.735.16v-.857l2.352-.508c.378-.106.61-.213.697-.32.146-.183.218-.565.218-1.146v-.26l.073-3.413c.01-.658.015-1.95.015-3.876 0-2.797-.01-4.847-.03-6.148s-.066-2.04-.144-2.216a.695.695 0 0 0-.27-.283c-.12-.072-.568-.195-1.343-.37l-1.566-.35v-.854c1.82.106 3.992.16 6.52.16 1.383 0 4.674-.053 9.87-.16.02 1.674.137 3.33.35 4.965h-1.017c-.387-1.315-.7-2.19-.943-2.627-.165-.3-.368-.5-.61-.595-.318-.126-1.025-.19-2.12-.19h-5.864l-.102 4.675-.046 2.86zm27.792-3.542h-1.104c-.252-1.243-.537-2.15-.856-2.724-.32-.573-.807-1.022-1.46-1.347s-1.386-.486-2.2-.486c-1.15 0-2.067.32-2.75.96-.683.64-1.023 1.414-1.023 2.325 0 .803.28 1.506.84 2.106.55.6 1.9 1.36 4.045 2.276 2.146.918 3.604 1.866 4.378 2.844.763.99 1.145 2.1 1.145 3.33a5.85 5.85 0 0 1-.864 3.083c-.576.95-1.442 1.707-2.6 2.274a8.382 8.382 0 0 1-3.738.85c-.91 0-1.82-.086-2.736-.26s-2.01-.474-3.288-.9c.145-1.364.218-3.174.218-5.43h1.118c.318 1.452.65 2.468.992 3.05.343.58.862 1.057 1.56 1.43a4.772 4.772 0 0 0 2.29.558c1.14 0 2.14-.32 3-.96.86-.638 1.29-1.534 1.29-2.687 0-.94-.31-1.773-.93-2.5-.63-.716-1.99-1.527-4.087-2.433-2.096-.906-3.496-1.774-4.203-2.606-.706-.822-1.06-1.804-1.06-2.945 0-.996.285-1.946.856-2.85s1.41-1.62 2.52-2.148a7.933 7.933 0 0 1 3.447-.79c1.433 0 3.165.344 5.198 1.03a114.8 114.8 0 0 0-.072 2.556c0 .59.024 1.39.072 2.396zm5.04.116h-1.117c.184-1.684.348-3.572.493-5.662 4.284.106 7.34.16 9.168.16 1.52 0 4.284-.053 8.298-.16.125 2.158.27 4.046.435 5.662h-1.09c-.454-1.77-.75-2.81-.884-3.114-.136-.305-.33-.522-.587-.653s-.906-.194-1.95-.194h-3.215c-.078 2.575-.116 5.76-.116 9.553 0 3.522.037 5.903.115 7.142.02.29.092.49.218.596.164.136.963.344 2.395.624.135.02.338.063.61.13v.857a93.93 93.93 0 0 0-5.126-.16c-1.423 0-2.88.052-4.37.16v-.857c.34-.086.596-.145.77-.173 1.326-.223 2.09-.41 2.294-.566a.705.705 0 0 0 .196-.326c.043-.14.08-1.212.108-3.215.04-3.098.06-5.392.06-6.883 0-2.604-.02-4.897-.06-6.88h-3.455l-.624.013c-.55 0-.914.058-1.09.174-.27.165-.512.513-.725 1.045-.164.405-.416 1.315-.755 2.728zm25.134 3.426h3.514c1.354 0 2.153-.037 2.396-.11.24-.072.438-.22.588-.442.15-.223.336-.866.56-1.93.028-.107.07-.272.13-.494h.958c-.106 1.597-.16 2.826-.16 3.688 0 .89.054 2.11.16 3.658h-.958c-.28-1.403-.455-2.187-.522-2.352-.098-.232-.267-.4-.51-.5s-.962-.153-2.162-.153h-3.978l.072 8.535h6.083l.537-.015c.832 0 1.355-.033 1.568-.1a2.41 2.41 0 0 0 .973-.633c.28-.295.798-1.13 1.554-2.504.075-.136.19-.334.346-.596h1.002c-.117.31-.717 2.13-1.8 5.46a323.41 323.41 0 0 0-9.656-.16c-2.032 0-4.277.052-6.736.16v-.857l2.353-.508c.377-.106.61-.213.696-.32.146-.183.218-.565.218-1.146v-.26l.073-3.413c.01-.658.015-1.95.015-3.876 0-2.797-.01-4.847-.03-6.148s-.067-2.04-.145-2.216c-.058-.116-.147-.21-.27-.283s-.567-.195-1.342-.37l-1.568-.35v-.854c1.82.106 3.993.16 6.52.16 1.384 0 4.674-.053 9.872-.16.02 1.674.134 3.33.347 4.965h-1.016c-.387-1.315-.7-2.19-.942-2.627-.166-.3-.37-.5-.61-.595-.32-.126-1.027-.19-2.12-.19h-5.865l-.103 4.675-.046 2.86zm14.522-8.232v-.856c2.564.106 4.62.16 6.17.16.89 0 1.723-.01 2.497-.03a65.914 65.914 0 0 1 2.134-.057c1.886 0 3.31.443 4.267 1.333.948.9 1.423 2.115 1.423 3.645 0 1.025-.215 1.933-.645 2.722s-1.053 1.455-1.866 1.997c-.593.387-1.436.73-2.53 1.03l4.837 6.3c.6.784.978 1.244 1.132 1.38.24.202.556.376.943.52.542.214 1.457.46 2.744.74v.857c-1.53-.106-2.642-.16-3.34-.16-.803 0-1.625.053-2.467.16a61.622 61.622 0 0 0-1.77-2.737c-.745-1.098-1.2-1.75-1.364-1.953a4.683 4.683 0 0 1-.276-.363l-3.193-4.383a27.097 27.097 0 0 1-2.613-.19l.116 7.318c.02.29.105.508.26.653.233.194.96.402 2.18.625.174.03.44.087.798.174v.855a77.848 77.848 0 0 0-4.632-.16c-1.433 0-3.034.053-4.805.16v-.856l.626-.132c1.384-.26 2.17-.477 2.36-.646.187-.17.296-.472.325-.907.02-.28.045-2.767.073-7.46l-.058-6.824c-.01-1.045-.036-1.646-.08-1.8a.55.55 0 0 0-.283-.35c-.473-.25-1.224-.458-2.25-.623-.157-.03-.393-.077-.712-.145zm6.083 8.886c1.008.106 1.787.16 2.34.16 1.76 0 3.064-.393 3.912-1.178.848-.785 1.27-1.876 1.27-3.272 0-1.222-.374-2.187-1.124-2.894-.75-.708-1.84-1.062-3.273-1.062-.514 0-1.524.06-3.034.175l-.09 8.07zm29.315-4.196h-1.104c-.25-1.243-.535-2.15-.854-2.724-.32-.573-.806-1.022-1.46-1.347s-1.386-.486-2.198-.486c-1.152 0-2.07.32-2.752.96-.682.64-1.023 1.414-1.023 2.325 0 .803.28 1.506.842 2.106.552.6 1.9 1.36 4.045 2.276 2.145.918 3.603 1.866 4.377 2.844.764.99 1.146 2.1 1.146 3.33a5.84 5.84 0 0 1-.864 3.083c-.578.95-1.444 1.707-2.6 2.274s-2.403.85-3.74.85a14.6 14.6 0 0 1-2.735-.26c-.915-.174-2.01-.474-3.29-.9.147-1.364.22-3.174.22-5.43h1.117c.32 1.452.65 2.468.993 3.05.343.58.862 1.057 1.558 1.43a4.77 4.77 0 0 0 2.29.558c1.14 0 2.14-.32 3-.96s1.29-1.534 1.29-2.687c0-.94-.31-1.773-.928-2.5-.63-.716-1.992-1.527-4.087-2.433-2.097-.906-3.498-1.774-4.204-2.606-.707-.822-1.06-1.804-1.06-2.945 0-.996.285-1.946.856-2.85.57-.905 1.41-1.62 2.52-2.148a7.94 7.94 0 0 1 3.447-.79c1.43 0 3.164.344 5.196 1.03a111.89 111.89 0 0 0-.072 2.556c0 .59.023 1.39.07 2.396zm20.53 3.745l-.013-1.03-.015-3.123-.03-2.715c-.01-.408-.067-.66-.173-.757-.155-.165-.533-.29-1.133-.377l-1.96-.436v-.855c2.23.106 3.84.16 4.836.16 1.09 0 2.6-.053 4.53-.16v.856c-1.59.33-2.486.54-2.688.627-.202.087-.337.184-.404.29-.106.174-.164.707-.174 1.597-.02 1.452-.03 3.94-.03 7.462l.06 6.88v.408c0 .455.08.745.247.87.27.204 1.277.456 3.02.756v.855c-2.66-.106-4.35-.16-5.07-.16a71.31 71.31 0 0 0-4.353.16v-.856l2.67-.597a.83.83 0 0 0 .378-.29c.137-.204.21-.586.22-1.148l.072-6.823a337.35 337.35 0 0 0-5.86-.073c-1.463 0-3.01.023-4.637.072l.044 7.012c0 .503.05.823.147.958.096.136.347.26.75.377.098.03.888.2 2.372.507v.856c-2.36-.106-4.026-.16-5-.16-1.21 0-2.675.053-4.395.16v-.856a82.797 82.797 0 0 1 2.338-.494c.387-.068.634-.165.74-.29.145-.166.218-.51.218-1.032.03-1.85.044-4.49.044-7.926l-.072-7.187v-.464c0-.34-.055-.574-.165-.704-.11-.13-.345-.24-.7-.328l-2.4-.465v-.856c1.958.107 3.592.16 4.9.16 1.376 0 2.884-.052 4.52-.16v.857l-2.448.48c-.313.077-.526.186-.643.326-.117.14-.176.39-.176.748l-.072 6.88c1.494.03 3.07.045 4.73.045 2.145.005 4.07-.01 5.78-.04zm17.542-9.29v.855c-.34.078-.59.13-.755.16-1.287.223-2.032.434-2.235.632s-.306.64-.306 1.328v.508l-.07 5.836.044 8.48c0 .676.1 1.107.298 1.29.2.185.88.345 2.04.48.223.03.547.087.973.174v.856a66.42 66.42 0 0 0-4.5-.16c-1.49 0-3.127.053-4.907.16v-.856a5.19 5.19 0 0 1 .64-.146c1.373-.222 2.16-.428 2.358-.617.198-.19.298-.666.298-1.43l-.03-.726.044-5.326c0-5.478-.014-8.507-.043-9.088-.02-.32-.123-.566-.31-.74-.19-.175-.92-.383-2.19-.625-.174-.04-.43-.1-.767-.19v-.854c2.104.106 3.746.16 4.93.16a71.2 71.2 0 0 0 4.49-.16zm1.993.855v-.856c2.564.106 4.62.16 6.17.16.89 0 1.723-.01 2.497-.03a65.985 65.985 0 0 1 2.134-.057c1.89 0 3.313.443 4.27 1.333.95.9 1.424 2.115 1.424 3.645 0 1.025-.216 1.933-.646 2.722s-1.053 1.455-1.866 1.997c-.59.387-1.433.73-2.526 1.03l4.836 6.3c.6.784.978 1.244 1.133 1.38.242.202.557.376.943.52.542.214 1.457.46 2.745.74v.857c-1.528-.106-2.642-.16-3.34-.16-.802 0-1.625.053-2.467.16a61.622 61.622 0 0 0-1.77-2.737c-.746-1.098-1.2-1.75-1.365-1.953a5.247 5.247 0 0 1-.275-.363l-3.193-4.383a27.097 27.097 0 0 1-2.614-.19l.116 7.318c.02.29.105.508.26.653.233.194.96.402 2.18.625.174.03.44.087.798.174v.855a77.848 77.848 0 0 0-4.632-.16c-1.433 0-3.034.053-4.805.16v-.856l.624-.132c1.383-.26 2.17-.477 2.36-.646.186-.17.295-.472.324-.907.02-.28.044-2.767.072-7.46l-.058-6.824c-.01-1.045-.036-1.646-.08-1.8a.55.55 0 0 0-.283-.35c-.474-.25-1.225-.458-2.25-.623-.158-.03-.394-.077-.713-.145zm6.083 8.886c1.006.106 1.785.16 2.337.16 1.762 0 3.066-.393 3.913-1.178.847-.785 1.27-1.876 1.27-3.272 0-1.222-.375-2.187-1.124-2.894-.753-.708-1.844-1.062-3.276-1.062-.514 0-1.524.06-3.034.175l-.087 8.07z"/></svg>