<?xml version="1.0" encoding="utf-8"?>
<!-- Generator: Adobe Illustrator 17.0.2, SVG Export Plug-In . SVG Version: 6.00 Build 0)  -->
<!DOCTYPE svg PUBLIC "-//W3C//DTD SVG 1.1//EN" "http://www.w3.org/Graphics/SVG/1.1/DTD/svg11.dtd">
<svg version="1.1" id="Layer_1" xmlns="http://www.w3.org/2000/svg" xmlns:xlink="http://www.w3.org/1999/xlink" x="0px" y="0px"
	 width="402px" height="401.567px" viewBox="0 0 402 401.567" enable-background="new 0 0 402 401.567" xml:space="preserve">
<g>
	<g>
		<path fill="#D9D9D6" stroke="#D9D9D6" stroke-width="5" stroke-miterlimit="10" d="M279.296,133.462h-15.337
			c-3.499-17.272-7.466-29.891-11.905-37.855c-4.439-7.961-11.2-14.205-20.28-18.726c-9.081-4.521-19.271-6.782-30.572-6.782
			c-16.011,0-28.755,4.446-38.239,13.334s-14.227,19.662-14.227,32.322c0,11.177,3.897,20.942,11.697,29.292
			c7.662,8.35,26.403,18.896,56.225,31.638c29.818,12.741,50.102,25.914,60.848,39.52c10.609,13.744,15.916,29.172,15.916,46.28
			c0,15.361-4.004,29.642-12.007,42.844c-8.005,13.204-20.047,23.745-36.121,31.628c-16.077,7.879-33.396,11.82-51.961,11.82
			c-12.647,0-25.325-1.211-38.038-3.632c-12.714-2.422-27.949-6.59-45.707-12.512c2.019-18.969,3.027-44.123,3.027-75.471h15.538
			c4.433,20.18,9.033,34.305,13.801,42.377c4.768,8.071,11.984,14.699,21.658,19.876c9.67,5.181,20.28,7.77,31.833,7.77
			c15.847,0,29.749-4.442,41.705-13.328c11.953-8.885,17.931-21.34,17.931-37.363c0-13.06-4.307-24.638-12.914-34.733
			c-8.747-9.964-27.681-21.239-56.806-33.826c-29.127-12.587-48.601-24.663-58.419-36.225c-9.821-11.427-14.73-25.07-14.73-40.933
			c0-13.845,3.966-27.053,11.905-39.621c7.937-12.568,19.605-22.513,35.012-29.84c15.402-7.328,31.379-10.991,47.926-10.991
			c19.908,0,43.991,4.777,72.242,14.327c-0.675,19.644-1.009,31.48-1.009,35.516C278.287,108.374,278.621,119.472,279.296,133.462z"
			/>
	</g>
	<g>
		<g>
			<g>
				<path fill="#872042" d="M82.238,163.48h-3.34c-0.762-3.761-1.625-6.509-2.592-8.244c-0.967-1.734-2.439-3.094-4.416-4.078
					c-1.979-0.985-4.197-1.477-6.658-1.477c-3.486,0-6.262,0.968-8.328,2.904c-2.064,1.936-3.098,4.282-3.098,7.039
					c0,2.435,0.848,4.561,2.547,6.379c1.668,1.818,5.75,4.115,12.244,6.89s10.91,5.644,13.252,8.606
					c2.311,2.993,3.465,6.353,3.465,10.079c0,3.346-0.871,6.455-2.613,9.33c-1.744,2.876-4.367,5.171-7.867,6.888
					c-3.502,1.716-7.273,2.574-11.316,2.574c-2.754,0-5.514-0.264-8.283-0.791c-2.768-0.527-6.086-1.436-9.953-2.725
					c0.439-4.131,0.658-9.609,0.658-16.436h3.385c0.965,4.395,1.967,7.471,3.006,9.229c1.037,1.758,2.609,3.201,4.715,4.329
					c2.107,1.128,4.418,1.691,6.934,1.691c3.451,0,6.479-0.968,9.082-2.902c2.604-1.936,3.904-4.647,3.904-8.137
					c0-2.844-0.938-5.366-2.812-7.564c-1.904-2.169-6.027-4.625-12.369-7.366c-6.344-2.741-10.584-5.371-12.723-7.889
					c-2.139-2.488-3.209-5.459-3.209-8.914c0-3.015,0.865-5.892,2.594-8.628s4.27-4.903,7.625-6.499
					c3.354-1.596,6.832-2.394,10.436-2.394c4.336,0,9.58,1.04,15.732,3.12c-0.146,4.278-0.219,6.855-0.219,7.734
					C82.02,158.017,82.092,160.434,82.238,163.48z"/>
				<path fill="#872042" d="M104.045,184.513h7.443c2.871,0,4.562-0.077,5.076-0.23c0.512-0.154,0.928-0.466,1.246-0.938
					c0.318-0.472,0.713-1.835,1.184-4.091c0.062-0.226,0.154-0.574,0.277-1.046h2.031c-0.227,3.384-0.34,5.988-0.34,7.813
					c0,1.887,0.113,4.471,0.34,7.751h-2.031c-0.596-2.973-0.965-4.634-1.107-4.983c-0.205-0.492-0.564-0.846-1.076-1.061
					c-0.514-0.216-2.041-0.323-4.584-0.323h-8.428l0.152,18.088h12.891l1.137-0.031c1.764,0,2.871-0.071,3.322-0.215
					c0.779-0.267,1.467-0.712,2.062-1.338c0.594-0.626,1.691-2.395,3.291-5.307c0.164-0.287,0.41-0.707,0.738-1.262h2.123
					c-0.246,0.657-1.52,4.513-3.814,11.566c-7.467-0.226-14.285-0.338-20.457-0.338c-4.307,0-9.064,0.112-14.273,0.338v-1.814
					l4.982-1.076c0.801-0.226,1.293-0.451,1.477-0.678c0.309-0.389,0.463-1.199,0.463-2.43v-0.554l0.152-7.229
					c0.021-1.394,0.031-4.132,0.031-8.213c0-5.926-0.021-10.269-0.061-13.027c-0.043-2.758-0.145-4.322-0.309-4.691
					c-0.123-0.246-0.312-0.446-0.568-0.6c-0.258-0.154-1.205-0.416-2.846-0.785l-3.322-0.738v-1.815
					c3.855,0.226,8.459,0.338,13.812,0.338c2.932,0,9.904-0.112,20.918-0.338c0.039,3.548,0.285,7.055,0.738,10.521h-2.154
					c-0.82-2.789-1.486-4.645-2-5.568c-0.348-0.635-0.779-1.056-1.291-1.261c-0.678-0.266-2.174-0.4-4.492-0.4h-12.428l-0.215,9.905
					L104.045,184.513z"/>
				<path fill="#872042" d="M161.354,177.007h-2.338c-0.533-2.633-1.139-4.557-1.814-5.771c-0.678-1.214-1.707-2.166-3.092-2.855
					c-1.385-0.689-2.938-1.034-4.66-1.034c-2.441,0-4.385,0.678-5.83,2.033s-2.168,2.997-2.168,4.927
					c0,1.704,0.594,3.192,1.783,4.465c1.168,1.272,4.025,2.88,8.57,4.823s7.639,3.95,9.275,6.024
					c1.617,2.095,2.426,4.447,2.426,7.055c0,2.342-0.609,4.519-1.83,6.531c-1.219,2.013-3.055,3.62-5.506,4.821
					s-5.092,1.803-7.922,1.803c-1.928,0-3.859-0.186-5.797-0.555c-1.939-0.369-4.262-1.004-6.969-1.906
					c0.309-2.893,0.461-6.727,0.461-11.506h2.369c0.676,3.076,1.377,5.23,2.104,6.461s1.828,2.24,3.303,3.029
					c1.475,0.79,3.092,1.185,4.852,1.185c2.416,0,4.535-0.677,6.357-2.031s2.734-3.254,2.734-5.696c0-1.991-0.656-3.756-1.969-5.295
					c-1.334-1.519-4.219-3.237-8.66-5.156c-4.439-1.919-7.408-3.76-8.904-5.522c-1.498-1.742-2.246-3.821-2.246-6.24
					c0-2.11,0.605-4.124,1.814-6.04c1.211-1.916,2.988-3.432,5.338-4.549c2.348-1.117,4.783-1.676,7.305-1.676
					c3.035,0,6.707,0.728,11.014,2.184c-0.104,2.995-0.154,4.799-0.154,5.414C161.199,173.182,161.25,174.874,161.354,177.007z"/>
				<path fill="#872042" d="M196.115,177.007h-2.338c-0.535-2.633-1.139-4.557-1.816-5.771c-0.676-1.214-1.707-2.166-3.092-2.855
					c-1.383-0.689-2.938-1.034-4.66-1.034c-2.439,0-4.383,0.678-5.828,2.033c-1.447,1.355-2.17,2.997-2.17,4.927
					c0,1.704,0.594,3.192,1.783,4.465c1.168,1.272,4.025,2.88,8.572,4.823c4.545,1.942,7.637,3.95,9.275,6.024
					c1.617,2.095,2.426,4.447,2.426,7.055c0,2.342-0.611,4.519-1.83,6.531c-1.221,2.013-3.057,3.62-5.506,4.821
					c-2.451,1.201-5.092,1.803-7.922,1.803c-1.928,0-3.861-0.186-5.799-0.555s-4.26-1.004-6.967-1.906
					c0.307-2.893,0.461-6.727,0.461-11.506h2.369c0.676,3.076,1.377,5.23,2.104,6.461s1.826,2.24,3.301,3.029
					c1.475,0.79,3.092,1.185,4.854,1.185c2.416,0,4.535-0.677,6.357-2.031s2.734-3.254,2.734-5.696c0-1.991-0.658-3.756-1.969-5.295
					c-1.334-1.519-4.221-3.237-8.66-5.156c-4.441-1.919-7.408-3.76-8.906-5.522c-1.496-1.742-2.244-3.821-2.244-6.24
					c0-2.11,0.604-4.124,1.814-6.04c1.209-1.916,2.988-3.432,5.336-4.549c2.35-1.117,4.785-1.676,7.307-1.676
					c3.035,0,6.707,0.728,11.014,2.184c-0.104,2.995-0.154,4.799-0.154,5.414C195.961,173.182,196.012,174.874,196.115,177.007z"/>
				<path fill="#872042" d="M223.123,165.256v1.815c-0.719,0.165-1.252,0.277-1.6,0.338c-2.729,0.472-4.307,0.918-4.738,1.338
					c-0.43,0.421-0.645,1.359-0.645,2.815v1.077l-0.154,12.366l0.092,17.965c0,1.436,0.211,2.349,0.631,2.737
					c0.42,0.391,1.861,0.729,4.322,1.016c0.471,0.062,1.158,0.185,2.061,0.369v1.814c-3.301-0.226-6.48-0.338-9.535-0.338
					c-3.158,0-6.625,0.112-10.398,0.338v-1.814c0.596-0.164,1.047-0.267,1.354-0.308c2.912-0.472,4.578-0.907,5-1.308
					c0.42-0.399,0.629-1.409,0.629-3.029l-0.061-1.539l0.092-11.289c0-11.607-0.031-18.026-0.092-19.257
					c-0.041-0.677-0.26-1.2-0.658-1.569s-1.945-0.81-4.641-1.323c-0.367-0.082-0.908-0.215-1.623-0.4v-1.815
					c4.457,0.226,7.938,0.338,10.445,0.338C216.396,165.594,219.57,165.482,223.123,165.256z"/>
				<path fill="#872042" d="M227.521,187.374c0-6.726,2.17-12.248,6.506-16.565c4.338-4.317,9.91-6.476,16.719-6.476
					c6.338,0,11.383,1.907,15.135,5.722c3.754,3.814,5.631,9.064,5.631,15.75c0,7.424-2.113,13.284-6.338,17.58
					c-4.225,4.297-9.781,6.445-16.672,6.445c-6.461,0-11.572-1.948-15.336-5.846C229.402,200.089,227.521,194.552,227.521,187.374z
					 M234.258,186.466c0,6.772,1.482,11.857,4.445,15.254c2.965,3.397,6.711,5.095,11.244,5.095c2.994,0,5.65-0.79,7.967-2.37
					c2.318-1.58,4.07-3.895,5.26-6.942c1.189-3.047,1.785-6.419,1.785-10.113c0-4.638-0.76-8.487-2.277-11.544
					c-1.518-3.058-3.393-5.25-5.629-6.573c-2.234-1.324-4.748-1.985-7.537-1.985c-3.055,0-5.793,0.806-8.213,2.417
					c-2.42,1.611-4.199,3.941-5.336,6.989C234.828,179.739,234.258,182.997,234.258,186.466z"/>
				<path fill="#872042" d="M274.465,167.071v-1.815c2.598,0.226,4.643,0.338,6.137,0.338c1.207,0,3.365-0.112,6.475-0.338
					l8.736,10.92c0.801,0.964,6.973,8.439,18.52,22.425c0.02-2.871,0.031-4.953,0.031-6.244c0-3.056-0.094-8.645-0.277-16.766
					c-0.082-3.794-0.18-5.855-0.293-6.183c-0.113-0.328-0.35-0.625-0.707-0.892c-0.359-0.266-1.789-0.635-4.291-1.107
					c-0.328-0.062-0.811-0.174-1.445-0.338v-1.815c3.648,0.226,6.551,0.338,8.705,0.338c2.092,0,4.982-0.112,8.674-0.338v1.815
					c-0.553,0.144-0.963,0.236-1.23,0.277c-2.748,0.574-4.275,0.954-4.582,1.138c-0.227,0.123-0.412,0.308-0.555,0.554
					c-0.205,0.328-0.35,0.943-0.43,1.846c-0.021,0.39-0.068,3.184-0.139,8.382c-0.072,5.199-0.107,10.229-0.107,15.089
					c0,5.742,0.102,10.593,0.307,14.55l-2,0.924l-12.826-15.938l-16.828-20.246l0.154,18.185c0.102,7.958,0.215,12.204,0.338,12.738
					c0.082,0.369,0.268,0.687,0.555,0.953c0.451,0.41,1.979,0.842,4.584,1.292c0.307,0.042,0.768,0.134,1.383,0.277v1.814
					c-3.137-0.226-5.783-0.338-7.936-0.338c-1.805,0-4.953,0.112-9.443,0.338v-1.814c0.717-0.164,1.26-0.287,1.629-0.369
					c2.461-0.431,3.887-0.83,4.277-1.199c0.225-0.186,0.389-0.503,0.492-0.954c0.203-0.943,0.348-4.512,0.43-10.705
					c0.102-8.777,0.154-13.966,0.154-15.565c0-5.147-0.072-8.008-0.215-8.583c-0.084-0.41-0.35-0.753-0.801-1.031
					c-0.451-0.276-2.389-0.702-5.814-1.276C275.756,167.348,275.203,167.235,274.465,167.071z"/>
				<path fill="#872042" d="M354.998,177.007h-2.338c-0.533-2.633-1.139-4.557-1.814-5.771c-0.678-1.214-1.707-2.166-3.092-2.855
					c-1.385-0.689-2.938-1.034-4.66-1.034c-2.441,0-4.385,0.678-5.83,2.033s-2.168,2.997-2.168,4.927
					c0,1.704,0.594,3.192,1.783,4.465c1.168,1.272,4.025,2.88,8.57,4.823s7.639,3.95,9.275,6.024
					c1.617,2.095,2.426,4.447,2.426,7.055c0,2.342-0.609,4.519-1.83,6.531c-1.219,2.013-3.055,3.62-5.506,4.821
					s-5.092,1.803-7.922,1.803c-1.928,0-3.859-0.186-5.797-0.555c-1.939-0.369-4.262-1.004-6.969-1.906
					c0.309-2.893,0.461-6.727,0.461-11.506h2.369c0.676,3.076,1.377,5.23,2.104,6.461s1.828,2.24,3.303,3.029
					c1.475,0.79,3.092,1.185,4.852,1.185c2.416,0,4.535-0.677,6.357-2.031s2.734-3.254,2.734-5.696c0-1.991-0.656-3.756-1.969-5.295
					c-1.334-1.519-4.219-3.237-8.66-5.156c-4.439-1.919-7.408-3.76-8.904-5.522c-1.498-1.742-2.246-3.821-2.246-6.24
					c0-2.11,0.605-4.124,1.814-6.04c1.211-1.916,2.988-3.432,5.338-4.549c2.348-1.117,4.783-1.676,7.305-1.676
					c3.035,0,6.707,0.728,11.014,2.184c-0.104,2.995-0.154,4.799-0.154,5.414C354.844,173.182,354.895,174.874,354.998,177.007z"/>
			</g>
			<g>
				<path fill="#872042" d="M241.039,190.604c0-0.923,0.184-1.8,0.549-2.631c0.367-0.831,0.85-1.557,1.449-2.177
					c0.598-0.62,1.24-1.096,1.928-1.427s1.326-0.497,1.918-0.497c0.711,0,1.264,0.21,1.654,0.629s0.652,0.896,0.787,1.432
					c0.135,0.536,0.201,1.032,0.201,1.49c0,0.902-0.178,1.749-0.533,2.542c-0.357,0.792-0.834,1.497-1.434,2.113
					c-0.598,0.616-1.246,1.092-1.943,1.427c-0.697,0.334-1.357,0.502-1.977,0.502c-0.902,0-1.561-0.353-1.977-1.057
					C241.246,192.246,241.039,191.465,241.039,190.604z M242.73,190.436c0,0.62,0.127,1.209,0.381,1.765
					c0.252,0.557,0.725,0.835,1.416,0.835c0.611,0,1.172-0.271,1.68-0.813c0.508-0.542,0.908-1.25,1.205-2.124
					c0.295-0.874,0.443-1.765,0.443-2.674c0-0.585-0.102-1.171-0.307-1.76c-0.205-0.588-0.666-0.882-1.385-0.882
					c-0.619,0-1.191,0.312-1.717,0.936c-0.525,0.623-0.941,1.386-1.252,2.287C242.885,188.907,242.73,189.717,242.73,190.436z"/>
				<path fill="#872042" d="M251.344,185.046l0.105-0.476c0.584-0.169,1.109-0.341,1.574-0.518c0.24-0.916,0.447-1.616,0.623-2.103
					s0.393-0.909,0.65-1.269s0.615-0.736,1.072-1.131c0.986-0.838,1.986-1.257,3.002-1.257c0.379,0,0.711,0.047,0.992,0.143
					c0.283,0.095,0.551,0.213,0.805,0.354c-0.184,0.451-0.307,0.769-0.371,0.951c-0.062,0.184-0.148,0.5-0.254,0.951l-0.559-0.042
					c-0.037-0.395-0.141-0.738-0.312-1.03c-0.174-0.293-0.531-0.438-1.072-0.438c-0.332,0-0.631,0.099-0.898,0.296
					s-0.506,0.482-0.713,0.855c-0.209,0.374-0.395,0.791-0.561,1.252c-0.166,0.462-0.383,1.154-0.65,2.077
					c0,0.077-0.043,0.243-0.127,0.496c0.564,0.015,1.328,0,2.293-0.042l0.105,0.148c-0.197,0.288-0.361,0.57-0.496,0.845
					c-0.584-0.042-1.297-0.07-2.135-0.084c-0.527,1.958-0.926,3.452-1.193,4.48c-0.354,1.346-0.676,2.497-0.967,3.456
					c-0.293,0.958-0.561,1.701-0.805,2.229c-0.242,0.528-0.506,0.958-0.791,1.289s-0.645,0.651-1.074,0.962
					c-0.738,0.535-1.426,0.803-2.061,0.803c-0.316,0-0.58-0.042-0.791-0.127c-0.213-0.084-0.459-0.222-0.74-0.412
					c0.205-0.281,0.361-0.518,0.471-0.708s0.227-0.43,0.354-0.719h0.211c0.176,0.261,0.354,0.464,0.529,0.608
					c0.176,0.144,0.439,0.216,0.791,0.216c0.551,0,0.984-0.268,1.301-0.803s0.662-1.483,1.035-2.843
					c0.141-0.465,0.314-1.116,0.518-1.955c0.205-0.838,0.666-2.762,1.385-5.77c0.014-0.035,0.041-0.138,0.08-0.307
					c0.037-0.169,0.072-0.303,0.1-0.401C252.348,185.039,251.871,185.046,251.344,185.046z"/>
			</g>
		</g>
		<g>
			<g>
				<path fill="#872042" d="M60.596,255.195h-1.443c-2.193-6.364-4.572-13.056-7.14-20.075c-1.271-3.477-2.086-5.509-2.446-6.097
					c-0.188-0.308-0.429-0.562-0.723-0.763c-0.441-0.28-1.424-0.595-2.948-0.942v-1.183c3.087,0.146,5.058,0.22,5.913,0.22
					c1.136,0,2.961-0.073,5.474-0.22v1.183c-1.591,0.401-2.524,0.709-2.798,0.924c-0.273,0.214-0.411,0.475-0.411,0.782
					c0,0.281,0.281,1.257,0.843,2.928c2.489,7.552,4.43,13.105,5.822,16.661l5.494-14.775c-0.896-2.447-1.501-3.944-1.814-4.493
					c-0.314-0.548-0.639-0.923-0.973-1.123c-0.335-0.201-1.284-0.502-2.849-0.903v-1.183c2.487,0.146,4.412,0.22,5.775,0.22
					c1.425,0,3.287-0.073,5.586-0.22v1.183l-0.722,0.181c-1.11,0.215-1.825,0.449-2.146,0.703c-0.199,0.175-0.3,0.436-0.3,0.783
					c0,0.147,0.013,0.288,0.04,0.422c0.08,0.348,0.822,2.556,2.226,6.624l4.312,12.264c0.924-2.542,2.034-5.795,3.333-9.756
					l2.993-9.155c0.04-0.187,0.06-0.354,0.06-0.501c0-0.24-0.073-0.418-0.221-0.531c-0.146-0.113-1.143-0.458-2.988-1.033v-1.183
					c2.487,0.146,4.111,0.22,4.874,0.22c0.909,0,2.44-0.073,4.593-0.22v1.183c-1.524,0.401-2.474,0.749-2.848,1.043
					c-0.241,0.2-0.469,0.535-0.682,1.003c-0.348,0.762-1.912,5.061-4.693,12.896c-0.08,0.2-1.551,4.513-4.412,12.936h-1.384
					l-4.934-13.738c-0.441-1.229-1.03-2.773-1.765-4.632C65.516,241.411,63.283,247.534,60.596,255.195z"/>
			</g>
			<g>
				<path fill="#872042" d="M340.381,238.689h4.854c1.871,0,2.975-0.05,3.309-0.15c0.334-0.1,0.605-0.304,0.812-0.611
					s0.465-1.196,0.772-2.667c0.04-0.147,0.101-0.374,0.181-0.683h1.323c-0.147,2.206-0.221,3.904-0.221,5.095
					c0,1.23,0.073,2.915,0.221,5.054h-1.323c-0.389-1.938-0.629-3.021-0.723-3.249c-0.133-0.321-0.367-0.552-0.701-0.691
					c-0.334-0.141-1.331-0.211-2.988-0.211H340.4l0.102,11.792h8.402l0.742-0.02c1.15,0,1.871-0.047,2.166-0.141
					c0.508-0.174,0.955-0.464,1.344-0.872c0.388-0.408,1.104-1.562,2.146-3.46c0.106-0.187,0.267-0.461,0.48-0.822h1.384
					c-0.16,0.428-0.989,2.941-2.487,7.541c-4.866-0.147-9.312-0.221-13.336-0.221c-2.808,0-5.91,0.073-9.306,0.221v-1.184
					l3.249-0.702c0.521-0.146,0.842-0.294,0.963-0.44c0.2-0.254,0.301-0.782,0.301-1.585v-0.36l0.1-4.713
					c0.014-0.909,0.021-2.694,0.021-5.355c0-3.863-0.014-6.694-0.04-8.493c-0.027-1.798-0.094-2.817-0.201-3.059
					c-0.08-0.16-0.203-0.291-0.371-0.391c-0.167-0.101-0.785-0.271-1.854-0.512l-2.166-0.481v-1.183
					c2.514,0.146,5.515,0.22,9.005,0.22c1.912,0,6.457-0.073,13.637-0.22c0.027,2.312,0.188,4.599,0.482,6.858h-1.404
					c-0.535-1.818-0.97-3.028-1.304-3.63c-0.228-0.414-0.509-0.688-0.843-0.822c-0.44-0.174-1.416-0.261-2.928-0.261h-8.102
					l-0.141,6.458L340.381,238.689z"/>
			</g>
			<g>
				<path fill="#872042" d="M89.567,236.924c0-3.174,1.023-5.78,3.07-7.818s4.678-3.056,7.891-3.056c2.991,0,5.372,0.9,7.143,2.7
					c1.771,1.8,2.657,4.278,2.657,7.434c0,3.503-0.997,6.27-2.99,8.297c-1.994,2.028-4.617,3.042-7.869,3.042
					c-3.049,0-5.461-0.919-7.237-2.758S89.567,240.312,89.567,236.924z M92.747,236.496c0,3.197,0.699,5.597,2.098,7.2
					s3.167,2.404,5.307,2.404c1.413,0,2.666-0.373,3.76-1.119c1.094-0.746,1.921-1.838,2.482-3.276
					c0.562-1.438,0.842-3.029,0.842-4.773c0-2.189-0.357-4.005-1.074-5.448c-0.716-1.443-1.602-2.478-2.656-3.103
					c-1.056-0.625-2.241-0.937-3.558-0.937c-1.441,0-2.734,0.38-3.876,1.141s-1.981,1.86-2.519,3.298S92.747,234.859,92.747,236.496
					z"/>
				<path fill="#872042" d="M113.031,227.342v-0.856c2.564,0.106,4.621,0.16,6.17,0.16c0.891,0,1.723-0.01,2.497-0.029
					c1.026-0.039,1.737-0.058,2.135-0.058c1.887,0,3.31,0.445,4.268,1.335c0.949,0.9,1.423,2.115,1.423,3.645
					c0,1.026-0.215,1.934-0.646,2.723c-0.431,0.789-1.053,1.455-1.866,1.997c-0.591,0.388-1.433,0.731-2.527,1.031l4.836,6.3
					c0.601,0.784,0.978,1.244,1.133,1.379c0.242,0.203,0.557,0.377,0.943,0.522c0.543,0.213,1.457,0.459,2.745,0.74v0.856
					c-1.529-0.106-2.643-0.16-3.339-0.16c-0.804,0-1.626,0.053-2.469,0.16c-0.436-0.726-1.025-1.638-1.771-2.737
					c-0.746-1.098-1.2-1.749-1.365-1.953c-0.097-0.116-0.188-0.237-0.275-0.363l-3.194-4.384c-0.861-0.02-1.732-0.083-2.613-0.189
					l0.116,7.317c0.02,0.29,0.106,0.508,0.262,0.653c0.231,0.193,0.958,0.401,2.178,0.624c0.174,0.029,0.439,0.087,0.798,0.174
					v0.856c-1.752-0.106-3.295-0.16-4.631-0.16c-1.433,0-3.034,0.053-4.806,0.16v-0.856l0.624-0.131
					c1.384-0.261,2.171-0.477,2.359-0.646c0.188-0.169,0.298-0.472,0.327-0.907c0.019-0.281,0.043-2.768,0.072-7.462l-0.059-6.823
					c-0.01-1.045-0.036-1.646-0.079-1.8c-0.044-0.155-0.139-0.271-0.283-0.349c-0.475-0.251-1.225-0.459-2.25-0.624
					C113.588,227.458,113.351,227.41,113.031,227.342z M119.114,236.228c1.007,0.106,1.786,0.16,2.338,0.16
					c1.761,0,3.065-0.393,3.912-1.178c0.847-0.785,1.271-1.876,1.271-3.272c0-1.222-0.375-2.187-1.125-2.894
					c-0.75-0.708-1.842-1.062-3.274-1.062c-0.513,0-1.524,0.059-3.034,0.175L119.114,236.228z"/>
				<path fill="#872042" d="M152.931,243.559l0.609,1.104c-1.556,0.978-3.049,1.698-4.479,2.163
					c-1.43,0.464-2.909,0.697-4.436,0.697c-1.942,0-3.706-0.443-5.291-1.329c-1.585-0.885-2.785-2.139-3.603-3.76
					c-0.816-1.621-1.225-3.419-1.225-5.394c0-3.223,1.051-5.86,3.152-7.913c2.103-2.052,4.883-3.078,8.343-3.078
					c2.126,0,4.493,0.436,7.103,1.307c-0.02,0.852-0.029,1.491-0.029,1.917c0,1.239,0.073,2.541,0.218,3.905h-1.22
					c-0.357-1.694-0.739-2.86-1.146-3.499s-1.063-1.149-1.973-1.532c-0.908-0.382-2.03-0.573-3.364-0.573
					c-2.805,0-4.917,0.997-6.338,2.991c-1.103,1.559-1.654,3.513-1.654,5.865c0,2.807,0.776,5.021,2.328,6.642
					c1.553,1.621,3.585,2.432,6.1,2.432c1.083,0,2.137-0.14,3.161-0.421C150.213,244.803,151.46,244.295,152.931,243.559z"/>
				<path fill="#872042" d="M161.861,235.574h3.514c1.355,0,2.153-0.037,2.396-0.109c0.242-0.073,0.438-0.22,0.588-0.443
					s0.336-0.866,0.559-1.931c0.029-0.106,0.073-0.271,0.131-0.493h0.958c-0.106,1.597-0.159,2.826-0.159,3.688
					c0,0.891,0.053,2.11,0.159,3.658h-0.958c-0.28-1.403-0.455-2.187-0.522-2.352c-0.097-0.232-0.267-0.399-0.508-0.501
					c-0.242-0.102-0.964-0.152-2.163-0.152h-3.979l0.073,8.537h6.083l0.537-0.015c0.832,0,1.354-0.034,1.567-0.102
					c0.368-0.126,0.692-0.336,0.973-0.632c0.281-0.295,0.799-1.13,1.554-2.504c0.077-0.136,0.193-0.334,0.349-0.596h1.002
					c-0.116,0.31-0.717,2.129-1.801,5.459c-3.522-0.106-6.741-0.16-9.654-0.16c-2.032,0-4.278,0.053-6.736,0.16v-0.856l2.352-0.508
					c0.378-0.106,0.61-0.213,0.697-0.319c0.146-0.184,0.218-0.566,0.218-1.147v-0.261l0.072-3.412
					c0.01-0.658,0.015-1.95,0.015-3.876c0-2.797-0.01-4.847-0.029-6.148s-0.067-2.04-0.145-2.214
					c-0.059-0.116-0.148-0.21-0.269-0.283c-0.121-0.073-0.569-0.196-1.344-0.37l-1.567-0.349v-0.856
					c1.819,0.106,3.992,0.16,6.519,0.16c1.384,0,4.675-0.053,9.872-0.16c0.02,1.674,0.136,3.33,0.349,4.965h-1.017
					c-0.387-1.316-0.701-2.192-0.943-2.628c-0.165-0.3-0.368-0.499-0.609-0.595c-0.319-0.125-1.026-0.189-2.12-0.189h-5.865
					l-0.102,4.675L161.861,235.574z"/>
				<path fill="#872042" d="M189.652,232.032h-1.104c-0.252-1.243-0.537-2.15-0.856-2.724c-0.32-0.573-0.807-1.022-1.46-1.347
					s-1.386-0.488-2.199-0.488c-1.151,0-2.068,0.32-2.751,0.959c-0.683,0.64-1.023,1.415-1.023,2.326
					c0,0.804,0.28,1.507,0.842,2.107c0.551,0.601,1.899,1.359,4.045,2.276c2.146,0.917,3.604,1.865,4.378,2.843
					c0.763,0.989,1.145,2.099,1.145,3.33c0,1.105-0.288,2.133-0.863,3.083c-0.576,0.95-1.442,1.708-2.599,2.275
					c-1.157,0.567-2.403,0.851-3.739,0.851c-0.909,0-1.821-0.087-2.736-0.261s-2.011-0.474-3.288-0.9
					c0.145-1.364,0.218-3.174,0.218-5.43h1.118c0.318,1.452,0.649,2.468,0.992,3.049c0.343,0.581,0.862,1.058,1.559,1.43
					c0.695,0.373,1.459,0.559,2.29,0.559c1.141,0,2.141-0.32,3.001-0.959c0.859-0.639,1.29-1.535,1.29-2.688
					c0-0.94-0.311-1.773-0.93-2.499c-0.629-0.717-1.991-1.528-4.087-2.434c-2.096-0.906-3.496-1.774-4.203-2.606
					c-0.706-0.822-1.06-1.804-1.06-2.945c0-0.996,0.285-1.946,0.856-2.851s1.411-1.62,2.52-2.147
					c1.107-0.527,2.257-0.791,3.447-0.791c1.433,0,3.165,0.344,5.198,1.031c-0.049,1.413-0.073,2.265-0.073,2.555
					C189.579,230.227,189.604,231.025,189.652,232.032z"/>
				<path fill="#872042" d="M194.692,232.148h-1.117c0.184-1.684,0.348-3.572,0.493-5.662c4.284,0.106,7.34,0.16,9.168,0.16
					c1.519,0,4.284-0.053,8.298-0.16c0.125,2.158,0.271,4.046,0.435,5.662h-1.088c-0.454-1.771-0.749-2.81-0.884-3.114
					c-0.136-0.305-0.331-0.522-0.587-0.653s-0.905-0.196-1.948-0.196h-3.216c-0.078,2.575-0.116,5.759-0.116,9.553
					c0,3.523,0.038,5.904,0.116,7.143c0.019,0.29,0.092,0.489,0.218,0.595c0.164,0.136,0.963,0.344,2.395,0.624
					c0.136,0.02,0.339,0.063,0.61,0.131v0.856c-1.916-0.106-3.625-0.16-5.125-0.16c-1.423,0-2.88,0.053-4.37,0.16v-0.856
					c0.339-0.087,0.596-0.146,0.77-0.174c1.326-0.223,2.091-0.411,2.294-0.566c0.087-0.077,0.152-0.186,0.196-0.327
					c0.043-0.14,0.079-1.212,0.108-3.215c0.039-3.097,0.059-5.391,0.059-6.882c0-2.604-0.02-4.897-0.059-6.881h-3.455l-0.624,0.014
					c-0.552,0-0.915,0.058-1.089,0.174c-0.271,0.165-0.514,0.513-0.727,1.045C195.283,229.825,195.031,230.735,194.692,232.148z"/>
				<path fill="#872042" d="M219.826,235.574h3.514c1.354,0,2.153-0.037,2.396-0.109c0.241-0.073,0.438-0.22,0.588-0.443
					c0.149-0.223,0.336-0.866,0.559-1.931c0.029-0.106,0.072-0.271,0.131-0.493h0.958c-0.106,1.597-0.16,2.826-0.16,3.688
					c0,0.891,0.054,2.11,0.16,3.658h-0.958c-0.281-1.403-0.455-2.187-0.522-2.352c-0.098-0.232-0.267-0.399-0.509-0.501
					s-0.963-0.152-2.163-0.152h-3.978l0.072,8.537h6.083l0.537-0.015c0.832,0,1.355-0.034,1.568-0.102
					c0.367-0.126,0.691-0.336,0.973-0.632c0.28-0.295,0.798-1.13,1.554-2.504c0.077-0.136,0.193-0.334,0.348-0.596h1.002
					c-0.116,0.31-0.716,2.129-1.8,5.459c-3.523-0.106-6.741-0.16-9.655-0.16c-2.032,0-4.277,0.053-6.736,0.16v-0.856l2.353-0.508
					c0.377-0.106,0.609-0.213,0.696-0.319c0.146-0.184,0.218-0.566,0.218-1.147v-0.261l0.073-3.412
					c0.009-0.658,0.015-1.95,0.015-3.876c0-2.797-0.01-4.847-0.029-6.148s-0.068-2.04-0.146-2.214
					c-0.058-0.116-0.147-0.21-0.269-0.283s-0.568-0.196-1.343-0.37l-1.568-0.349v-0.856c1.82,0.106,3.993,0.16,6.519,0.16
					c1.385,0,4.675-0.053,9.873-0.16c0.019,1.674,0.135,3.33,0.348,4.965h-1.016c-0.388-1.316-0.702-2.192-0.943-2.628
					c-0.165-0.3-0.368-0.499-0.61-0.595c-0.319-0.125-1.026-0.189-2.119-0.189h-5.865l-0.103,4.675L219.826,235.574z"/>
				<path fill="#872042" d="M234.348,227.342v-0.856c2.564,0.106,4.621,0.16,6.17,0.16c0.891,0,1.723-0.01,2.497-0.029
					c1.025-0.039,1.737-0.058,2.134-0.058c1.888,0,3.311,0.445,4.269,1.335c0.948,0.9,1.423,2.115,1.423,3.645
					c0,1.026-0.216,1.934-0.646,2.723s-1.053,1.455-1.866,1.997c-0.591,0.388-1.434,0.731-2.527,1.031l4.836,6.3
					c0.6,0.784,0.978,1.244,1.132,1.379c0.242,0.203,0.557,0.377,0.944,0.522c0.542,0.213,1.457,0.459,2.744,0.74v0.856
					c-1.529-0.106-2.642-0.16-3.339-0.16c-0.804,0-1.626,0.053-2.468,0.16c-0.436-0.726-1.026-1.638-1.771-2.737
					c-0.745-1.098-1.2-1.749-1.364-1.953c-0.098-0.116-0.189-0.237-0.276-0.363l-3.193-4.384c-0.862-0.02-1.733-0.083-2.613-0.189
					l0.116,7.317c0.019,0.29,0.105,0.508,0.261,0.653c0.232,0.193,0.958,0.401,2.178,0.624c0.175,0.029,0.44,0.087,0.799,0.174
					v0.856c-1.752-0.106-3.296-0.16-4.632-0.16c-1.433,0-3.034,0.053-4.805,0.16v-0.856l0.624-0.131
					c1.384-0.261,2.17-0.477,2.359-0.646c0.188-0.169,0.297-0.472,0.326-0.907c0.02-0.281,0.044-2.768,0.072-7.462l-0.058-6.823
					c-0.01-1.045-0.036-1.646-0.08-1.8c-0.043-0.155-0.138-0.271-0.283-0.349c-0.474-0.251-1.225-0.459-2.25-0.624
					C234.903,227.458,234.667,227.41,234.348,227.342z M240.431,236.228c1.006,0.106,1.785,0.16,2.337,0.16
					c1.762,0,3.065-0.393,3.913-1.178c0.847-0.785,1.27-1.876,1.27-3.272c0-1.222-0.375-2.187-1.125-2.894
					c-0.75-0.708-1.841-1.062-3.273-1.062c-0.514,0-1.524,0.059-3.034,0.175L240.431,236.228z"/>
				<path fill="#872042" d="M269.745,232.032h-1.104c-0.252-1.243-0.537-2.15-0.856-2.724c-0.319-0.573-0.806-1.022-1.459-1.347
					s-1.387-0.488-2.199-0.488c-1.152,0-2.069,0.32-2.752,0.959c-0.682,0.64-1.023,1.415-1.023,2.326
					c0,0.804,0.281,1.507,0.842,2.107c0.552,0.601,1.899,1.359,4.045,2.276c2.146,0.917,3.604,1.865,4.378,2.843
					c0.764,0.989,1.146,2.099,1.146,3.33c0,1.105-0.288,2.133-0.864,3.083c-0.576,0.95-1.442,1.708-2.599,2.275
					s-2.402,0.851-3.738,0.851c-0.91,0-1.822-0.087-2.736-0.261c-0.915-0.174-2.011-0.474-3.289-0.9
					c0.146-1.364,0.218-3.174,0.218-5.43h1.118c0.319,1.452,0.65,2.468,0.993,3.049c0.343,0.581,0.862,1.058,1.558,1.43
					c0.696,0.373,1.459,0.559,2.291,0.559c1.14,0,2.14-0.32,3-0.959s1.29-1.535,1.29-2.688c0-0.94-0.31-1.773-0.929-2.499
					c-0.63-0.717-1.992-1.528-4.087-2.434c-2.096-0.906-3.497-1.774-4.203-2.606c-0.707-0.822-1.06-1.804-1.06-2.945
					c0-0.996,0.285-1.946,0.856-2.851c0.57-0.904,1.41-1.62,2.519-2.147c1.108-0.527,2.258-0.791,3.448-0.791
					c1.432,0,3.165,0.344,5.197,1.031c-0.049,1.413-0.072,2.265-0.072,2.555C269.673,230.227,269.696,231.025,269.745,232.032z"/>
				<path fill="#872042" d="M290.276,235.777l-0.014-1.031l-0.015-3.122l-0.029-2.715c-0.01-0.406-0.068-0.658-0.174-0.755
					c-0.155-0.165-0.533-0.29-1.133-0.377l-1.96-0.436v-0.856c2.229,0.106,3.84,0.16,4.834,0.16c1.09,0,2.601-0.053,4.53-0.16v0.856
					c-1.59,0.329-2.486,0.537-2.688,0.625c-0.202,0.087-0.337,0.184-0.404,0.29c-0.106,0.174-0.164,0.707-0.174,1.597
					c-0.02,1.452-0.029,3.939-0.029,7.462l0.059,6.881v0.407c0,0.455,0.082,0.745,0.248,0.871c0.271,0.203,1.277,0.455,3.019,0.755
					v0.856c-2.66-0.106-4.35-0.16-5.068-0.16c-1.194,0-2.646,0.053-4.354,0.16v-0.856l2.669-0.595
					c0.165-0.068,0.292-0.165,0.379-0.291c0.137-0.203,0.209-0.585,0.219-1.147l0.073-6.823c-2.55-0.048-4.502-0.073-5.859-0.073
					c-1.464,0-3.01,0.024-4.638,0.073l0.044,7.012c0,0.503,0.048,0.823,0.145,0.958c0.096,0.136,0.347,0.261,0.751,0.377
					c0.097,0.029,0.887,0.199,2.371,0.508v0.856c-2.358-0.106-4.025-0.16-5.001-0.16c-1.209,0-2.673,0.053-4.393,0.16v-0.856
					c1.045-0.232,1.824-0.397,2.338-0.494c0.387-0.068,0.634-0.165,0.74-0.291c0.145-0.165,0.218-0.508,0.218-1.031
					c0.028-1.849,0.043-4.491,0.043-7.927l-0.072-7.187v-0.464c0-0.339-0.056-0.574-0.166-0.704
					c-0.111-0.131-0.345-0.24-0.701-0.327l-2.399-0.465v-0.856c1.958,0.106,3.592,0.16,4.9,0.16c1.376,0,2.884-0.053,4.521-0.16
					v0.856l-2.449,0.479c-0.312,0.078-0.525,0.187-0.642,0.327c-0.117,0.141-0.176,0.39-0.176,0.748l-0.072,6.881
					c1.494,0.029,3.071,0.043,4.731,0.043C286.642,235.821,288.568,235.807,290.276,235.777z"/>
				<path fill="#872042" d="M307.817,226.486v0.856c-0.339,0.078-0.59,0.131-0.755,0.16c-1.287,0.223-2.032,0.434-2.235,0.632
					s-0.306,0.641-0.306,1.328v0.508l-0.072,5.836l0.044,8.479c0,0.677,0.099,1.108,0.298,1.292
					c0.198,0.184,0.878,0.344,2.039,0.479c0.223,0.029,0.547,0.087,0.973,0.174v0.856c-1.559-0.106-3.059-0.16-4.5-0.16
					c-1.491,0-3.127,0.053-4.907,0.16v-0.856c0.28-0.078,0.493-0.126,0.639-0.146c1.374-0.222,2.16-0.428,2.359-0.617
					c0.198-0.189,0.298-0.666,0.298-1.43l-0.029-0.726l0.043-5.328c0-5.478-0.014-8.507-0.043-9.088
					c-0.02-0.32-0.123-0.566-0.311-0.741c-0.188-0.174-0.918-0.382-2.19-0.624c-0.173-0.039-0.429-0.102-0.766-0.189v-0.856
					c2.104,0.106,3.746,0.16,4.929,0.16C304.643,226.646,306.141,226.592,307.817,226.486z"/>
				<path fill="#872042" d="M309.81,227.342v-0.856c2.564,0.106,4.621,0.16,6.17,0.16c0.891,0,1.723-0.01,2.497-0.029
					c1.026-0.039,1.737-0.058,2.134-0.058c1.888,0,3.311,0.445,4.269,1.335c0.948,0.9,1.423,2.115,1.423,3.645
					c0,1.026-0.216,1.934-0.646,2.723s-1.053,1.455-1.866,1.997c-0.591,0.388-1.434,0.731-2.527,1.031l4.836,6.3
					c0.6,0.784,0.978,1.244,1.133,1.379c0.242,0.203,0.557,0.377,0.943,0.522c0.542,0.213,1.457,0.459,2.745,0.74v0.856
					c-1.529-0.106-2.643-0.16-3.34-0.16c-0.803,0-1.626,0.053-2.468,0.16c-0.436-0.726-1.026-1.638-1.771-2.737
					c-0.745-1.098-1.2-1.749-1.364-1.953c-0.097-0.116-0.188-0.237-0.276-0.363l-3.193-4.384c-0.862-0.02-1.733-0.083-2.613-0.189
					l0.116,7.317c0.019,0.29,0.105,0.508,0.261,0.653c0.232,0.193,0.958,0.401,2.178,0.624c0.175,0.029,0.44,0.087,0.799,0.174
					v0.856c-1.752-0.106-3.296-0.16-4.632-0.16c-1.433,0-3.034,0.053-4.805,0.16v-0.856l0.624-0.131
					c1.384-0.261,2.17-0.477,2.359-0.646c0.188-0.169,0.297-0.472,0.326-0.907c0.02-0.281,0.044-2.768,0.072-7.462l-0.058-6.823
					c-0.01-1.045-0.036-1.646-0.08-1.8c-0.043-0.155-0.138-0.271-0.283-0.349c-0.474-0.251-1.225-0.459-2.25-0.624
					C310.365,227.458,310.129,227.41,309.81,227.342z M315.893,236.228c1.006,0.106,1.785,0.16,2.337,0.16
					c1.762,0,3.066-0.393,3.913-1.178c0.847-0.785,1.271-1.876,1.271-3.272c0-1.222-0.376-2.187-1.125-2.894
					c-0.751-0.708-1.842-1.062-3.274-1.062c-0.514,0-1.524,0.059-3.034,0.175L315.893,236.228z"/>
			</g>
		</g>
	</g>
</g>
</svg>
