<?xml version="1.0" encoding="utf-8"?>
<!-- Generator: Adobe Illustrator 17.0.2, SVG Export Plug-In . SVG Version: 6.00 Build 0)  -->
<!DOCTYPE svg PUBLIC "-//W3C//DTD SVG 1.1//EN" "http://www.w3.org/Graphics/SVG/1.1/DTD/svg11.dtd">
<svg version="1.1" id="Layer_1" xmlns="http://www.w3.org/2000/svg" xmlns:xlink="http://www.w3.org/1999/xlink" x="0px" y="0px"
	 width="62.268px" height="62.188px" viewBox="19.018 11.358 62.268 62.188" enable-background="new 19.018 11.358 62.268 62.188"
	 xml:space="preserve">
<path fill="#7D838A" d="M81.286,73.547l-1.707-8.821h0c0,0-0.009-0.045-0.024-0.121l-0.057-0.294h-0.002
	c-0.277-1.374-1.175-5.736-1.588-6.481c-0.244-0.443-0.575-2.786-0.819-4.025c-0.782-3.969-3.227-4.995-3.938-5.238
	c-0.79-0.269-8.581-3.083-9.176-3.194c-0.594-0.111-3.566-1.523-3.938-1.932c-0.286-0.314-0.921-2.031-1.201-2.81
	c-0.003-0.008-0.005-0.011-0.007-0.019c0,0,0.003-0.001,0.003-0.001l-0.307-0.756c0,0-0.003,0.001-0.004,0.001
	c0.405-1.135,0.779-2.285,1.084-3.451c0.302-1.156,1.048-3.759,1.075-4.008c0.086-0.766,0.656-0.855,1.337-1.62
	c0.892-1.301,1.527-2.622,0.765-4.195c-0.114-0.235-0.088-0.568-0.047-0.843c0.381-2.565,0.553-5.16-0.699-7.513
	c-1.362-2.56-2.887-5.077-6.315-5.235c-0.296-0.014-0.583-0.278-0.871-0.432c-0.679-0.365-1.324-0.963-2.039-1.063
	c-4.824-0.681-8.633,1.2-11.592,4.925c-2.168,2.729-2.298,5.918-1.883,9.206c0.055,0.432,0.003,0.931-0.168,1.327
	c-0.584,1.359,0.256,3.906,1.563,4.588c0.356,0.284,0.792,1.249,1.069,1.889c0.314,0.725,0.506,1.308,0.607,1.989
	c0.103,0.69,0.302,1.365,0.473,2.044c0.203,0.809,0.374,1.632,0.652,2.415c0.063,0.176,0.163,0.384,0.282,0.565
	c-0.022-0.005-0.035-0.009-0.035-0.009l-0.352,0.679c0,0,0.006,0.001,0.007,0.001c-0.345,0.662-1.088,2.071-1.341,2.437
	c-0.334,0.483-2.489,0.855-2.489,0.855s-6.316,1.671-11.628,3.381c-5.312,1.708-4.765,4.746-5.266,7.811
	c-0.235,1.437-2.163,8.163-2.163,8.163l-0.102,0.717l-0.084,0.584H20.4l-1.265,8.485H81.286z"/>
</svg>
