<svg version="1.1" xmlns="http://www.w3.org/2000/svg" xmlns:xlink="http://www.w3.org/1999/xlink" x="0px" y="0px" width="16px" height="16px" viewBox="0 0 16 16" enable-background="new 0 0 16 16" xml:space="preserve">
<path fill="#FFFFFF" d="M5.057,11.145c0.499-1.03,1.094-2.16,1.784-3.392c0.691-1.231,1.472-2.459,2.344-3.684 c0.872-1.225,1.508-2.038,1.908-2.438c0.399-0.4,0.738-0.718,1.015-0.954c0.277-0.236,0.768-0.407,1.472-0.515 C14.284,0.054,14.817,0,15.18,0c0.239,0,0.436,0.072,0.59,0.217C15.923,0.362,16,0.551,16,0.788c0,0.182-0.044,0.338-0.134,0.469 c-0.089,0.131-0.273,0.328-0.554,0.59c-1.347,1.218-2.748,2.955-4.205,5.209c-1.456,2.254-2.611,4.438-3.466,6.551 c-0.404,0.969-0.663,1.538-0.78,1.706c-0.116,0.168-0.293,0.325-0.533,0.469C6.089,15.928,5.596,16,4.851,16 c-0.588,0-0.964-0.035-1.128-0.106c-0.164-0.07-0.291-0.146-0.379-0.227c-0.089-0.08-0.342-0.432-0.759-1.051 c-0.431-0.652-1.056-1.422-1.877-2.312C0.236,11.794,0,11.367,0,11.023c0-0.497,0.268-0.932,0.805-1.302 c0.537-0.371,1.01-0.556,1.42-0.556c0.451,0,0.934,0.181,1.446,0.54S4.646,10.546,5.057,11.145z"/>
</svg>