<svg width="18" height="14" viewBox="0 0 18 14" xmlns="http://www.w3.org/2000/svg"><title>Untitled</title><path d="M15.468 3.484a10.128 10.128 0 0 1-1.666 6.018 10.715 10.715 0 0 1-2.024 2.302c-.783.67-1.724 1.202-2.823 1.6-1.1.397-2.278.596-3.535.596A9.837 9.837 0 0 1 0 12.41c.293.034.574.05.843.05 1.64 0 3.103-.505 4.392-1.514a3.43 3.43 0 0 1-2.053-.706 3.478 3.478 0 0 1-1.248-1.75 3.54 3.54 0 0 0 1.596-.06A3.445 3.445 0 0 1 1.5 7.214a3.424 3.424 0 0 1-.806-2.247V4.92c.5.278 1.035.426 1.602.444a3.544 3.544 0 0 1-1.15-1.26 3.466 3.466 0 0 1-.423-1.682c0-.636.16-1.228.478-1.777a10.036 10.036 0 0 0 3.226 2.61A9.84 9.84 0 0 0 8.49 4.34a3.42 3.42 0 0 1-.094-.805c0-.975.345-1.81 1.036-2.5A3.407 3.407 0 0 1 11.93 0c1.022 0 1.882.372 2.582 1.116a7.02 7.02 0 0 0 2.245-.86 3.42 3.42 0 0 1-1.554 1.958 7.106 7.106 0 0 0 2.032-.556 7.167 7.167 0 0 1-1.767 1.826z" fill="#FFF" fill-rule="evenodd"/></svg>