<svg width="18" height="14" viewBox="0 0 18 14" xmlns="http://www.w3.org/2000/svg"><title>Untitled</title><path d="M15.468 3.484c.007.135.01.287.01.458 0 .945-.137 1.89-.413 2.84-.275.946-.696 1.853-1.263 2.72-.566.866-1.24 1.633-2.024 2.302-.783.67-1.724 1.202-2.823 1.6-1.1.397-2.278.596-3.535.596-1.962 0-3.768-.53-5.42-1.59.293.034.574.05.843.05 1.64 0 3.103-.505 4.392-1.514-.764-.014-1.45-.25-2.053-.706-.605-.457-1.02-1.04-1.248-1.75.225.043.447.064.666.064.315 0 .625-.04.93-.123-.815-.162-1.492-.57-2.03-1.218-.537-.65-.806-1.398-.806-2.247V4.92c.5.278 1.035.426 1.602.444-.483-.323-.866-.743-1.15-1.26-.282-.518-.423-1.08-.423-1.682 0-.636.16-1.228.478-1.777.888 1.09 1.962 1.96 3.225 2.61 1.262.65 2.616 1.013 4.063 1.085-.062-.257-.093-.525-.093-.805 0-.975.345-1.81 1.036-2.5C10.12.346 10.956 0 11.93 0c1.022 0 1.882.372 2.582 1.116.8-.158 1.547-.445 2.245-.86-.27.847-.787 1.5-1.554 1.958.705-.084 1.382-.27 2.032-.556-.48.714-1.07 1.323-1.767 1.826z" fill="#FFF" fill-rule="evenodd"/></svg>